ufo
<glyph name="exclam" format="2">
  <advance width="1103"/>
  <unicode hex="0021"/>
  <outline>
    <contour>
      <point x="474" y="1422" type="line" name="dh01"/>
      <point x="632" y="1422" type="line"/>
      <point x="632" y="474" type="line" name="dh02"/>
      <point x="474" y="474" type="line" name="at01"/>
    </contour>
    <contour>
      <point x="474" y="316" type="line" name="sh01"/>
      <point x="632" y="316" type="line"/>
      <point x="632" y="0" type="line" name="sh02"/>
      <point x="474" y="0" type="line" name="ab01"/>
    </contour>
  </outline>
</glyph>
<glyph name="numbersign" format="2">
  <advance width="1103"/>
  <unicode hex="0023"/>
  <outline>
    <contour>
      <point x="474" y="790" type="line" name="dh01"/>
      <point x="474" y="632" type="line" name="sv02"/>
      <point x="632" y="632" type="line" name="dh02"/>
      <point x="632" y="790" type="line"/>
    </contour>
    <contour>
      <point x="158" y="790" type="line" name="sh02"/>
      <point x="158" y="948" type="line"/>
      <point x="316" y="948" type="line" name="sh03"/>
      <point x="316" y="1264" type="line" name="sv03"/>
      <point x="474" y="1264" type="line"/>
      <point x="474" y="948" type="line" name="sh04"/>
      <point x="632" y="948" type="line"/>
      <point x="632" y="1264" type="line" name="sv04"/>
      <point x="790" y="1264" type="line"/>
      <point x="790" y="948" type="line" name="sh06"/>
      <point x="948" y="948" type="line"/>
      <point x="948" y="790" type="line" name="sh08"/>
      <point x="790" y="790" type="line" name="sv05"/>
      <point x="790" y="632" type="line" name="sh05"/>
      <point x="948" y="632" type="line" name="sh07"/>
      <point x="948" y="474" type="line"/>
      <point x="790" y="474" type="line" name="sh09"/>
      <point x="790" y="158" type="line"/>
      <point x="632" y="158" type="line" name="sv07"/>
      <point x="632" y="474" type="line"/>
      <point x="474" y="474" type="line" name="sh10"/>
      <point x="474" y="158" type="line"/>
      <point x="316" y="158" type="line" name="sv06"/>
      <point x="316" y="474" type="line" name="sh11"/>
      <point x="158" y="474" type="line"/>
      <point x="158" y="632" type="line" name="sh12"/>
      <point x="316" y="632" type="line" name="sv01"/>
      <point x="316" y="790" type="line" name="sh01"/>
    </contour>
  </outline>
</glyph>
<glyph name="dollar" format="2">
  <advance width="1103"/>
  <unicode hex="0024"/>
  <outline>
    <contour>
      <point x="474" y="158" type="line" name="sh03"/>
      <point x="158" y="158" type="line"/>
      <point x="158" y="316" type="line" name="sh04"/>
      <point x="474" y="316" type="line"/>
      <point x="474" y="632" type="line" name="sh05"/>
      <point x="415" y="632"/>
      <point x="301" y="686"/>
      <point x="212" y="775"/>
      <point x="158" y="889"/>
      <point x="158" y="948" type="qcurve" name="ah01"/>
      <point x="158" y="1007"/>
      <point x="212" y="1121"/>
      <point x="301" y="1210"/>
      <point x="415" y="1264"/>
      <point x="474" y="1264" type="qcurve" name="sh06"/>
      <point x="474" y="1422" type="line" name="at01"/>
      <point x="632" y="1422" type="line"/>
      <point x="632" y="1264" type="line" name="sh08"/>
      <point x="948" y="1264" type="line"/>
      <point x="948" y="1106" type="line" name="sh12"/>
      <point x="632" y="1106" type="line" name="sh07"/>
      <point x="632" y="790" type="line" name="sv01"/>
      <point x="691" y="790"/>
      <point x="805" y="735"/>
      <point x="894" y="646"/>
      <point x="948" y="532"/>
      <point x="948" y="474" type="qcurve" name="sh11"/>
      <point x="948" y="414"/>
      <point x="894" y="300"/>
      <point x="805" y="212"/>
      <point x="691" y="158"/>
      <point x="632" y="158" type="qcurve" name="sh13"/>
      <point x="632" y="0" type="line"/>
      <point x="474" y="0" type="line" name="ab01"/>
    </contour>
    <contour>
      <point x="316" y="948" type="qcurve" name="sh01"/>
      <point x="316" y="918"/>
      <point x="343" y="862"/>
      <point x="388" y="817"/>
      <point x="444" y="790"/>
      <point x="474" y="790" type="qcurve" name="at02"/>
      <point x="474" y="1106" type="line" name="sh02"/>
      <point x="444" y="1106"/>
      <point x="388" y="1079"/>
      <point x="343" y="1034"/>
      <point x="316" y="978"/>
    </contour>
    <contour>
      <point x="790" y="474" type="qcurve" name="sh10"/>
      <point x="790" y="504"/>
      <point x="763" y="560"/>
      <point x="718" y="605"/>
      <point x="662" y="632"/>
      <point x="632" y="632" type="qcurve" name="sh09"/>
      <point x="632" y="316" type="line" name="sv02"/>
      <point x="662" y="316"/>
      <point x="718" y="343"/>
      <point x="763" y="388"/>
      <point x="790" y="444"/>
    </contour>
  </outline>
</glyph>
<glyph name="percent" format="2">
  <advance width="1103"/>
  <unicode hex="0025"/>
  <outline>
    <contour>
      <point x="158" y="158" type="line"/>
      <point x="0" y="158" type="line"/>
      <point x="790" y="1264" type="line"/>
      <point x="948" y="1264" type="line"/>
    </contour>
    <contour>
      <point x="474" y="395" type="qcurve" name="sh02"/>
      <point x="474" y="444"/>
      <point x="511" y="530"/>
      <point x="576" y="595"/>
      <point x="662" y="632"/>
      <point x="711" y="632" type="qcurve"/>
      <point x="760" y="632"/>
      <point x="846" y="595"/>
      <point x="911" y="530"/>
      <point x="948" y="444"/>
      <point x="948" y="395" type="qcurve" name="sh05"/>
      <point x="948" y="346"/>
      <point x="911" y="260"/>
      <point x="846" y="195"/>
      <point x="760" y="158"/>
      <point x="711" y="158" type="qcurve"/>
      <point x="662" y="158"/>
      <point x="576" y="195"/>
      <point x="511" y="260"/>
      <point x="474" y="346"/>
    </contour>
    <contour>
      <point x="0" y="1027" type="qcurve" name="sh06"/>
      <point x="0" y="1076"/>
      <point x="37" y="1162"/>
      <point x="102" y="1227"/>
      <point x="188" y="1264"/>
      <point x="237" y="1264" type="qcurve"/>
      <point x="286" y="1264"/>
      <point x="372" y="1227"/>
      <point x="437" y="1162"/>
      <point x="474" y="1076"/>
      <point x="474" y="1027" type="qcurve" name="sh01"/>
      <point x="474" y="978"/>
      <point x="437" y="892"/>
      <point x="372" y="827"/>
      <point x="286" y="790"/>
      <point x="237" y="790" type="qcurve"/>
      <point x="188" y="790"/>
      <point x="102" y="827"/>
      <point x="37" y="892"/>
      <point x="0" y="978"/>
    </contour>
    <contour>
      <point x="158" y="1027" type="qcurve" name="dh01"/>
      <point x="158" y="994"/>
      <point x="204" y="948"/>
      <point x="237" y="948" type="qcurve"/>
      <point x="270" y="948"/>
      <point x="316" y="994"/>
      <point x="316" y="1027" type="qcurve" name="dh02"/>
      <point x="316" y="1060"/>
      <point x="270" y="1106"/>
      <point x="237" y="1106" type="qcurve"/>
      <point x="204" y="1106"/>
      <point x="158" y="1060"/>
    </contour>
    <contour>
      <point x="632" y="395" type="qcurve" name="sh03"/>
      <point x="632" y="362"/>
      <point x="678" y="316"/>
      <point x="711" y="316" type="qcurve"/>
      <point x="744" y="316"/>
      <point x="790" y="362"/>
      <point x="790" y="395" type="qcurve" name="sh04"/>
      <point x="790" y="428"/>
      <point x="744" y="474"/>
      <point x="711" y="474" type="qcurve"/>
      <point x="678" y="474"/>
      <point x="632" y="428"/>
    </contour>
  </outline>
</glyph>
<glyph name="ampersand" format="2">
  <advance width="1103"/>
  <unicode hex="0026"/>
  <outline>
    <contour>
      <point x="695" y="107" type="line"/>
      <point x="632" y="56"/>
      <point x="483" y="0"/>
      <point x="395" y="0" type="qcurve" name="ab01"/>
      <point x="297" y="0"/>
      <point x="149" y="74"/>
      <point x="50" y="203"/>
      <point x="0" y="376"/>
      <point x="0" y="474" type="qcurve" name="ah01"/>
      <point x="0" y="541"/>
      <point x="35" y="665"/>
      <point x="100" y="772"/>
      <point x="190" y="859"/>
      <point x="245" y="889" type="qcurve"/>
      <point x="207" y="934"/>
      <point x="158" y="1043"/>
      <point x="158" y="1106" type="qcurve" name="dh01"/>
      <point x="158" y="1171"/>
      <point x="208" y="1286"/>
      <point x="294" y="1372"/>
      <point x="409" y="1422"/>
      <point x="474" y="1422" type="qcurve" name="at01"/>
      <point x="538" y="1422"/>
      <point x="653" y="1379"/>
      <point x="740" y="1303"/>
      <point x="790" y="1196"/>
      <point x="790" y="1132" type="qcurve" name="dh04"/>
      <point x="790" y="1127" type="line"/>
      <point x="789" y="1083"/>
      <point x="752" y="1010"/>
      <point x="695" y="949"/>
      <point x="625" y="901"/>
      <point x="557" y="865"/>
      <point x="497" y="840"/>
      <point x="479" y="833" type="qcurve"/>
      <point x="728" y="385" type="line"/>
      <point x="737" y="408"/>
      <point x="758" y="472"/>
      <point x="776" y="539"/>
      <point x="789" y="606" name="ah03"/>
      <point x="790" y="632" type="qcurve" name="ah02"/>
      <point x="948" y="632" type="line" name="sh01"/>
      <point x="935" y="543"/>
      <point x="904" y="417"/>
      <point x="873" y="326"/>
      <point x="841" y="262"/>
      <point x="827" y="237" type="qcurve"/>
      <point x="948" y="0" type="line" name="sh02"/>
      <point x="766" y="0" type="line" name="sh03"/>
    </contour>
    <contour>
      <point x="395" y="158" type="qcurve" name="sv01"/>
      <point x="456" y="158"/>
      <point x="567" y="203"/>
      <point x="627" y="251" type="qcurve"/>
      <point x="339" y="759" type="line"/>
      <point x="301" y="741"/>
      <point x="235" y="683"/>
      <point x="186" y="609"/>
      <point x="158" y="521"/>
      <point x="158" y="474" type="qcurve" name="sh04"/>
      <point x="158" y="409"/>
      <point x="183" y="294"/>
      <point x="239" y="208"/>
      <point x="330" y="158"/>
    </contour>
    <contour>
      <point x="316" y="1106" type="qcurve" name="dh02"/>
      <point x="316" y="1091"/>
      <point x="324" y="1060"/>
      <point x="341" y="1023"/>
      <point x="369" y="978"/>
      <point x="390" y="948" type="qcurve"/>
      <point x="423" y="952"/>
      <point x="508" y="991"/>
      <point x="584" y="1044"/>
      <point x="637" y="1104"/>
      <point x="637" y="1129" type="qcurve" name="dh03"/>
      <point x="637" y="1163"/>
      <point x="608" y="1213"/>
      <point x="561" y="1247"/>
      <point x="503" y="1264"/>
      <point x="474" y="1264" type="qcurve" name="sv02"/>
      <point x="441" y="1264"/>
      <point x="384" y="1239"/>
      <point x="341" y="1196"/>
      <point x="316" y="1139"/>
    </contour>
  </outline>
</glyph>
<glyph name="parenleft" format="2">
  <advance width="1103"/>
  <unicode hex="0028"/>
  <outline>
    <contour>
      <point x="394" y="632" type="qcurve" name="dh02"/>
      <point x="394" y="498"/>
      <point x="441" y="257"/>
      <point x="525" y="59"/>
      <point x="641" y="-86"/>
      <point x="710" y="-123" type="qcurve" name="ah01"/>
      <point x="710" y="-305" type="line" name="dv02"/>
      <point x="641" y="-290"/>
      <point x="517" y="-208"/>
      <point x="412" y="-82"/>
      <point x="327" y="84"/>
      <point x="268" y="282"/>
      <point x="236" y="509"/>
      <point x="236" y="632" type="qcurve" name="dh01"/>
      <point x="236" y="817"/>
      <point x="307" y="1139"/>
      <point x="433" y="1387"/>
      <point x="607" y="1546"/>
      <point x="710" y="1569" type="qcurve" name="dv01"/>
      <point x="710" y="1387" type="line" name="sh01"/>
      <point x="641" y="1350"/>
      <point x="525" y="1204"/>
      <point x="441" y="1006"/>
      <point x="394" y="765"/>
    </contour>
  </outline>
</glyph>
<glyph name="parenright" format="2">
  <advance width="1103"/>
  <unicode hex="0029"/>
  <outline>
    <contour>
      <point x="632" y="632" type="qcurve"/>
      <point x="632" y="765" name="dh01"/>
      <point x="585" y="1006"/>
      <point x="501" y="1204"/>
      <point x="385" y="1350"/>
      <point x="316" y="1387" type="qcurve" name="sh01"/>
      <point x="316" y="1569" type="line" name="dv01"/>
      <point x="419" y="1546"/>
      <point x="593" y="1387"/>
      <point x="719" y="1139"/>
      <point x="790" y="817"/>
      <point x="790" y="632" type="qcurve" name="dh02"/>
      <point x="790" y="509"/>
      <point x="758" y="282"/>
      <point x="699" y="84"/>
      <point x="614" y="-82"/>
      <point x="509" y="-208"/>
      <point x="385" y="-290"/>
      <point x="316" y="-305" type="qcurve" name="dv02"/>
      <point x="316" y="-123" type="line" name="ah01"/>
      <point x="385" y="-86"/>
      <point x="501" y="59"/>
      <point x="585" y="257"/>
      <point x="632" y="498"/>
    </contour>
  </outline>
</glyph>
<glyph name="plus" format="2">
  <advance width="1103"/>
  <unicode hex="002B"/>
  <outline>
    <contour>
      <point x="474" y="632" type="line" name="sh01"/>
      <point x="158" y="632" type="line" name="sv01"/>
      <point x="158" y="790" type="line" name="sh02"/>
      <point x="474" y="790" type="line"/>
      <point x="474" y="1106" type="line" name="dh01"/>
      <point x="632" y="1106" type="line" name="dh02"/>
      <point x="632" y="790" type="line" name="sv02"/>
      <point x="948" y="790" type="line" name="sh03"/>
      <point x="948" y="632" type="line"/>
      <point x="632" y="632" type="line" name="sh04"/>
      <point x="632" y="316" type="line"/>
      <point x="474" y="316" type="line" name="sv03"/>
    </contour>
  </outline>
</glyph>
<glyph name="comma" format="2">
  <advance width="1103"/>
  <unicode hex="002C"/>
  <outline>
    <contour>
      <point x="395" y="-316" type="qcurve" name="sv02"/>
      <point x="362" y="-316"/>
      <point x="316" y="-270"/>
      <point x="316" y="-237" type="qcurve" name="sh02"/>
      <point x="316" y="-204"/>
      <point x="362" y="-158"/>
      <point x="395" y="-158" type="qcurve" name="sv01"/>
      <point x="424" y="-158"/>
      <point x="456" y="-138"/>
      <point x="471" y="-99"/>
      <point x="474" y="-43"/>
      <point x="474" y="-7" type="qcurve" name="dh01"/>
      <point x="474" y="0" type="line"/>
      <point x="441" y="0"/>
      <point x="384" y="25"/>
      <point x="341" y="68"/>
      <point x="316" y="125"/>
      <point x="316" y="158" type="qcurve" name="sh01"/>
      <point x="316" y="191"/>
      <point x="341" y="248"/>
      <point x="384" y="291"/>
      <point x="441" y="316"/>
      <point x="474" y="316" type="qcurve" name="sv03"/>
      <point x="507" y="316"/>
      <point x="564" y="291"/>
      <point x="607" y="248"/>
      <point x="632" y="191"/>
      <point x="632" y="158" type="qcurve"/>
      <point x="632" y="0" type="line" name="dh02"/>
      <point x="632" y="-59"/>
      <point x="602" y="-173"/>
      <point x="543" y="-262"/>
      <point x="454" y="-316"/>
    </contour>
  </outline>
</glyph>
<glyph name="hyphen" format="2">
  <advance width="1103"/>
  <unicode hex="002D"/>
  <outline>
    <contour>
      <point x="158" y="790" type="line" name="at01"/>
      <point x="948" y="790" type="line"/>
      <point x="948" y="632" type="line" name="ah02"/>
      <point x="158" y="632" type="line" name="ah01"/>
    </contour>
  </outline>
</glyph>
<glyph name="period" format="2">
  <advance width="1103"/>
  <unicode hex="002E"/>
  <outline>
    <contour>
      <point x="316" y="158" type="qcurve" name="dh01"/>
      <point x="316" y="191"/>
      <point x="341" y="248"/>
      <point x="384" y="291"/>
      <point x="441" y="316"/>
      <point x="474" y="316" type="qcurve" name="sv01"/>
      <point x="507" y="316"/>
      <point x="564" y="291"/>
      <point x="607" y="248"/>
      <point x="632" y="191"/>
      <point x="632" y="158" type="qcurve" name="dh02"/>
      <point x="632" y="125"/>
      <point x="607" y="68"/>
      <point x="564" y="25"/>
      <point x="507" y="0"/>
      <point x="474" y="0" type="qcurve" name="ab01"/>
      <point x="441" y="0"/>
      <point x="384" y="25"/>
      <point x="341" y="68"/>
      <point x="316" y="125"/>
    </contour>
  </outline>
</glyph>
<glyph name="slash" format="2">
  <advance width="1103"/>
  <unicode hex="002F"/>
  <outline>
    <contour>
      <point x="727" y="1264" type="line"/>
      <point x="790" y="1422" type="line"/>
      <point x="948" y="1422" type="line"/>
      <point x="885" y="1264" type="line" name="mh01"/>
      <point x="379" y="-1" type="line"/>
      <point x="316" y="-158" type="line"/>
      <point x="158" y="-158" type="line"/>
      <point x="222" y="2" type="line" name="mh02"/>
    </contour>
  </outline>
  <guideline angle="0" x="0" y="2044"/>
</glyph>
<glyph name="zero" format="2">
  <advance width="1103"/>
  <unicode hex="0030"/>
  <outline>
    <contour>
      <point x="158" y="1027" type="line" name="dh03"/>
      <point x="158" y="1109"/>
      <point x="220" y="1253"/>
      <point x="327" y="1360"/>
      <point x="471" y="1422"/>
      <point x="553" y="1422" type="qcurve" name="at01"/>
      <point x="635" y="1422"/>
      <point x="779" y="1360"/>
      <point x="886" y="1253"/>
      <point x="948" y="1109"/>
      <point x="948" y="1027" type="qcurve" name="dh01"/>
      <point x="948" y="395" type="line"/>
      <point x="948" y="313"/>
      <point x="886" y="169"/>
      <point x="779" y="62"/>
      <point x="635" y="0"/>
      <point x="553" y="0" type="qcurve" name="ab01"/>
      <point x="471" y="0"/>
      <point x="327" y="62"/>
      <point x="220" y="169"/>
      <point x="158" y="313"/>
      <point x="158" y="395" type="qcurve"/>
    </contour>
    <contour>
      <point x="553" y="158" type="qcurve" name="sv01"/>
      <point x="602" y="158"/>
      <point x="688" y="195"/>
      <point x="753" y="260"/>
      <point x="790" y="346"/>
      <point x="790" y="395" type="qcurve" name="sh01"/>
      <point x="790" y="810" type="line" name="dv03"/>
      <point x="316" y="435" type="line" name="dv01"/>
      <point x="316" y="395" type="line" name="sh02"/>
      <point x="316" y="346"/>
      <point x="353" y="260"/>
      <point x="418" y="195" name="fv01"/>
      <point x="504" y="158"/>
    </contour>
    <contour>
      <point x="553" y="1264" type="qcurve" name="sv02"/>
      <point x="504" y="1264"/>
      <point x="418" y="1227"/>
      <point x="353" y="1162"/>
      <point x="316" y="1076"/>
      <point x="316" y="1027" type="qcurve" name="dh04"/>
      <point x="316" y="637" type="line" name="dv02"/>
      <point x="790" y="1012" type="line" name="dh02"/>
      <point x="790" y="1076"/>
      <point x="753" y="1162"/>
      <point x="720" y="1195" type="qcurve" name="fv02"/>
      <point x="688" y="1227"/>
      <point x="602" y="1264"/>
    </contour>
  </outline>
</glyph>
<glyph name="two" format="2">
  <advance width="1103"/>
  <unicode hex="0032"/>
  <outline>
    <contour>
      <point x="632" y="1422" type="line"/>
      <point x="697" y="1422" name="mv01"/>
      <point x="812" y="1372" name="fv01"/>
      <point x="898" y="1286"/>
      <point x="948" y="1171"/>
      <point x="948" y="1106" type="qcurve" name="dh01"/>
      <point x="948" y="948" type="line" name="mv02"/>
      <point x="948" y="903"/>
      <point x="894" y="808"/>
      <point x="805" y="708"/>
      <point x="691" y="605"/>
      <point x="632" y="553" type="qcurve"/>
      <point x="573" y="501"/>
      <point x="459" y="398"/>
      <point x="370" y="298"/>
      <point x="316" y="203" name="mh01"/>
      <point x="316" y="158" type="qcurve" name="dh04"/>
      <point x="948" y="158" type="line" name="sh01"/>
      <point x="948" y="0" type="line" name="ab01"/>
      <point x="158" y="0" type="line"/>
      <point x="158" y="237" type="line" name="dh03"/>
      <point x="158" y="266"/>
      <point x="209" y="344"/>
      <point x="292" y="437"/>
      <point x="400" y="540"/>
      <point x="457" y="593" type="qcurve"/>
      <point x="527" y="657"/>
      <point x="648" y="773"/>
      <point x="738" y="871"/>
      <point x="790" y="950"/>
      <point x="790" y="979" type="qcurve"/>
      <point x="790" y="1106" type="line" name="dh02"/>
      <point x="790" y="1139"/>
      <point x="765" y="1196"/>
      <point x="722" y="1239"/>
      <point x="665" y="1264"/>
      <point x="632" y="1264" type="qcurve"/>
      <point x="474" y="1264" type="line" name="sv01"/>
      <point x="441" y="1264"/>
      <point x="384" y="1239"/>
      <point x="341" y="1196"/>
      <point x="316" y="1139"/>
      <point x="316" y="1106" type="qcurve" name="sh03"/>
      <point x="158" y="1106" type="line" name="sh02"/>
      <point x="158" y="1171"/>
      <point x="208" y="1286"/>
      <point x="294" y="1372"/>
      <point x="409" y="1422"/>
      <point x="474" y="1422" type="qcurve" name="at01"/>
    </contour>
  </outline>
</glyph>
<glyph name="three" format="2">
  <advance width="1103"/>
  <unicode hex="0033"/>
  <outline>
    <contour>
      <point x="158" y="158" type="line" name="sh01"/>
      <point x="553" y="158" type="line" name="sv01"/>
      <point x="602" y="158"/>
      <point x="688" y="195"/>
      <point x="753" y="260"/>
      <point x="790" y="346"/>
      <point x="790" y="395" type="qcurve" name="sh03"/>
      <point x="790" y="444"/>
      <point x="753" y="530"/>
      <point x="688" y="595"/>
      <point x="602" y="632"/>
      <point x="553" y="632" type="qcurve"/>
      <point x="316" y="632" type="line" name="sv02"/>
      <point x="316" y="790" type="line" name="ah02"/>
      <point x="553" y="790" type="line"/>
      <point x="602" y="790"/>
      <point x="688" y="827"/>
      <point x="753" y="892"/>
      <point x="790" y="978"/>
      <point x="790" y="1027" type="qcurve" name="sh02"/>
      <point x="790" y="1076"/>
      <point x="753" y="1162"/>
      <point x="688" y="1227" name="fv01"/>
      <point x="602" y="1264"/>
      <point x="553" y="1264" type="qcurve" name="sv03"/>
      <point x="158" y="1264" type="line" name="ah01"/>
      <point x="158" y="1422" type="line"/>
      <point x="553" y="1422" type="line" name="at01"/>
      <point x="635" y="1422"/>
      <point x="779" y="1360"/>
      <point x="886" y="1253"/>
      <point x="948" y="1109"/>
      <point x="948" y="1027" type="qcurve" name="ah03"/>
      <point x="948" y="928"/>
      <point x="861" y="765" name="fh01"/>
      <point x="789" y="711" type="qcurve" name="mh01"/>
      <point x="861" y="657"/>
      <point x="948" y="492" name="fv02"/>
      <point x="948" y="395" type="qcurve" name="sh04"/>
      <point x="948" y="313"/>
      <point x="886" y="169"/>
      <point x="779" y="62"/>
      <point x="635" y="0"/>
      <point x="553" y="0" type="qcurve" name="ab01"/>
      <point x="158" y="0" type="line"/>
    </contour>
  </outline>
</glyph>
<glyph name="five" format="2">
  <advance width="1103"/>
  <unicode hex="0035"/>
  <outline>
    <contour>
      <point x="158" y="158" type="line" name="sh01"/>
      <point x="553" y="158" type="line"/>
      <point x="602" y="158"/>
      <point x="688" y="195"/>
      <point x="753" y="260"/>
      <point x="790" y="346"/>
      <point x="790" y="395" type="qcurve" name="dh03"/>
      <point x="790" y="444"/>
      <point x="753" y="530"/>
      <point x="688" y="595"/>
      <point x="602" y="632"/>
      <point x="553" y="632" type="qcurve"/>
      <point x="158" y="632" type="line" name="dh01"/>
      <point x="158" y="1422" type="line"/>
      <point x="948" y="1422" type="line" name="at01"/>
      <point x="948" y="1264" type="line" name="sh02"/>
      <point x="316" y="1264" type="line"/>
      <point x="316" y="790" type="line" name="dh02"/>
      <point x="553" y="790" type="line"/>
      <point x="635" y="790"/>
      <point x="779" y="728" name="fv01"/>
      <point x="886" y="621"/>
      <point x="948" y="477"/>
      <point x="948" y="395" type="qcurve" name="dh04"/>
      <point x="948" y="313"/>
      <point x="886" y="169"/>
      <point x="779" y="62"/>
      <point x="635" y="0"/>
      <point x="553" y="0" type="qcurve"/>
      <point x="158" y="0" type="line" name="ab01"/>
    </contour>
  </outline>
</glyph>
<glyph name="six" format="2">
  <advance width="1103"/>
  <unicode hex="0036"/>
  <outline>
    <contour>
      <point x="158" y="553" type="line" name="dh02"/>
      <point x="158" y="760"/>
      <point x="244" y="1084"/>
      <point x="407" y="1306"/>
      <point x="641" y="1422" name="mh01"/>
      <point x="790" y="1422" type="qcurve" name="at01"/>
      <point x="790" y="1264" type="line" name="sh01"/>
      <point x="711" y="1264"/>
      <point x="579" y="1215"/>
      <point x="474" y="1131"/>
      <point x="395" y="1019" name="mv01"/>
      <point x="341" y="893"/>
      <point x="314" y="760"/>
      <point x="313" y="697" type="qcurve"/>
      <point x="364" y="735"/>
      <point x="486" y="790"/>
      <point x="553" y="790" type="qcurve" name="mh02"/>
      <point x="635" y="790"/>
      <point x="779" y="728"/>
      <point x="886" y="621"/>
      <point x="948" y="477"/>
      <point x="948" y="395" type="qcurve" name="dh03"/>
      <point x="948" y="313"/>
      <point x="886" y="169"/>
      <point x="779" y="62"/>
      <point x="635" y="0"/>
      <point x="553" y="0" type="qcurve" name="ab01"/>
      <point x="471" y="0"/>
      <point x="327" y="59"/>
      <point x="220" y="178"/>
      <point x="158" y="355"/>
      <point x="158" y="474" type="qcurve"/>
    </contour>
    <contour>
      <point x="316" y="395" type="qcurve" name="dh01"/>
      <point x="316" y="346"/>
      <point x="353" y="260"/>
      <point x="418" y="195"/>
      <point x="504" y="158"/>
      <point x="553" y="158" type="qcurve" name="sv01"/>
      <point x="602" y="158"/>
      <point x="688" y="195"/>
      <point x="753" y="260"/>
      <point x="790" y="346"/>
      <point x="790" y="395" type="qcurve" name="dh04"/>
      <point x="790" y="444"/>
      <point x="753" y="530"/>
      <point x="688" y="595"/>
      <point x="602" y="632"/>
      <point x="553" y="632" type="qcurve" name="sv02"/>
      <point x="505" y="630"/>
      <point x="420" y="597"/>
      <point x="356" y="536"/>
      <point x="318" y="450"/>
    </contour>
  </outline>
</glyph>
<glyph name="eight" format="2">
  <advance width="1103"/>
  <unicode hex="0038"/>
  <outline>
    <contour>
      <point x="158" y="395" type="qcurve" name="sh01"/>
      <point x="158" y="443"/>
      <point x="183" y="534"/>
      <point x="228" y="615"/>
      <point x="290" y="684"/>
      <point x="326" y="711" type="qcurve" name="mh01"/>
      <point x="290" y="738"/>
      <point x="228" y="807"/>
      <point x="183" y="887"/>
      <point x="158" y="978"/>
      <point x="158" y="1027" type="qcurve" name="dh01"/>
      <point x="158" y="1109"/>
      <point x="220" y="1253"/>
      <point x="327" y="1360"/>
      <point x="471" y="1422"/>
      <point x="553" y="1422" type="qcurve" name="at01"/>
      <point x="635" y="1422"/>
      <point x="779" y="1360"/>
      <point x="886" y="1253"/>
      <point x="948" y="1109"/>
      <point x="948" y="1027" type="qcurve" name="dh04"/>
      <point x="948" y="978"/>
      <point x="922" y="887"/>
      <point x="877" y="807"/>
      <point x="815" y="738"/>
      <point x="779" y="711" type="qcurve" name="mh02"/>
      <point x="815" y="684"/>
      <point x="877" y="615"/>
      <point x="922" y="534"/>
      <point x="948" y="443"/>
      <point x="948" y="395" type="qcurve" name="sh02"/>
      <point x="948" y="313"/>
      <point x="886" y="169"/>
      <point x="779" y="62"/>
      <point x="635" y="0"/>
      <point x="553" y="0" type="qcurve" name="ab01"/>
      <point x="471" y="0"/>
      <point x="327" y="62"/>
      <point x="220" y="169"/>
      <point x="158" y="313"/>
    </contour>
    <contour>
      <point x="316" y="395" type="qcurve" name="sh03"/>
      <point x="316" y="346"/>
      <point x="353" y="260"/>
      <point x="418" y="195"/>
      <point x="504" y="158"/>
      <point x="553" y="158" type="qcurve" name="sv01"/>
      <point x="602" y="158"/>
      <point x="688" y="195"/>
      <point x="753" y="260"/>
      <point x="790" y="346"/>
      <point x="790" y="395" type="qcurve" name="sh04"/>
      <point x="790" y="444"/>
      <point x="760" y="530"/>
      <point x="701" y="595"/>
      <point x="612" y="632"/>
      <point x="553" y="632" type="qcurve" name="sv02"/>
      <point x="494" y="632"/>
      <point x="405" y="595"/>
      <point x="346" y="530"/>
      <point x="316" y="444"/>
    </contour>
    <contour>
      <point x="316" y="1027" type="qcurve" name="dh02"/>
      <point x="316" y="978"/>
      <point x="346" y="892"/>
      <point x="405" y="827"/>
      <point x="494" y="790"/>
      <point x="553" y="790" type="qcurve" name="at02"/>
      <point x="612" y="790"/>
      <point x="701" y="827"/>
      <point x="760" y="892"/>
      <point x="790" y="978"/>
      <point x="790" y="1027" type="qcurve" name="dh03"/>
      <point x="790" y="1076"/>
      <point x="753" y="1162"/>
      <point x="688" y="1227"/>
      <point x="602" y="1264"/>
      <point x="553" y="1264" type="qcurve" name="sv03"/>
      <point x="504" y="1264"/>
      <point x="418" y="1227"/>
      <point x="353" y="1162"/>
      <point x="316" y="1076"/>
    </contour>
  </outline>
</glyph>
<glyph name="nine" format="2">
  <advance width="1103"/>
  <unicode hex="0039"/>
  <outline>
    <contour>
      <point x="948" y="869" type="line" name="dh04"/>
      <point x="948" y="662"/>
      <point x="862" y="338" name="mh01"/>
      <point x="699" y="116" name="mh02"/>
      <point x="464" y="0" name="mh03"/>
      <point x="316" y="0" type="qcurve" name="ab01"/>
      <point x="316" y="158" type="line" name="sh01"/>
      <point x="395" y="158"/>
      <point x="527" y="207"/>
      <point x="632" y="291"/>
      <point x="711" y="403" name="mv01"/>
      <point x="765" y="529"/>
      <point x="792" y="662"/>
      <point x="793" y="725" type="qcurve"/>
      <point x="742" y="687"/>
      <point x="620" y="632"/>
      <point x="553" y="632" type="qcurve" name="sv01"/>
      <point x="471" y="632"/>
      <point x="327" y="694"/>
      <point x="220" y="801" name="mh04"/>
      <point x="158" y="945"/>
      <point x="158" y="1027" type="qcurve" name="dh01"/>
      <point x="158" y="1109"/>
      <point x="220" y="1253"/>
      <point x="327" y="1360"/>
      <point x="471" y="1422"/>
      <point x="553" y="1422" type="qcurve" name="at01"/>
      <point x="635" y="1422"/>
      <point x="779" y="1363"/>
      <point x="886" y="1244"/>
      <point x="948" y="1066"/>
      <point x="948" y="948" type="qcurve"/>
    </contour>
    <contour>
      <point x="790" y="1027" type="qcurve" name="dh03"/>
      <point x="790" y="1076"/>
      <point x="753" y="1162" name="mv02"/>
      <point x="688" y="1227"/>
      <point x="602" y="1264"/>
      <point x="553" y="1264" type="qcurve" name="sv02"/>
      <point x="504" y="1264"/>
      <point x="418" y="1227"/>
      <point x="353" y="1162" name="mv03"/>
      <point x="316" y="1076"/>
      <point x="316" y="1027" type="qcurve" name="dh02"/>
      <point x="316" y="978"/>
      <point x="353" y="892" name="mv04"/>
      <point x="418" y="827"/>
      <point x="504" y="790"/>
      <point x="553" y="790" type="qcurve" name="at02"/>
      <point x="601" y="792"/>
      <point x="686" y="825"/>
      <point x="750" y="886" name="mv05"/>
      <point x="788" y="972"/>
    </contour>
  </outline>
</glyph>
<glyph name="colon" format="2">
  <advance width="1103"/>
  <unicode hex="003A"/>
  <outline>
    <contour>
      <point x="316" y="790" type="qcurve" name="dh01"/>
      <point x="316" y="823"/>
      <point x="341" y="880"/>
      <point x="384" y="923"/>
      <point x="441" y="948"/>
      <point x="474" y="948" type="qcurve" name="dv02"/>
      <point x="507" y="948"/>
      <point x="564" y="923"/>
      <point x="607" y="880"/>
      <point x="632" y="823"/>
      <point x="632" y="790" type="qcurve" name="dh02"/>
      <point x="632" y="757"/>
      <point x="607" y="700"/>
      <point x="564" y="657"/>
      <point x="507" y="632"/>
      <point x="474" y="632" type="qcurve" name="dv01"/>
      <point x="441" y="632"/>
      <point x="384" y="657"/>
      <point x="341" y="700"/>
      <point x="316" y="757"/>
    </contour>
    <contour>
      <point x="316" y="158" type="qcurve" name="sh01"/>
      <point x="316" y="191"/>
      <point x="341" y="248"/>
      <point x="384" y="291"/>
      <point x="441" y="316"/>
      <point x="474" y="316" type="qcurve" name="sv01"/>
      <point x="507" y="316"/>
      <point x="564" y="291"/>
      <point x="607" y="248"/>
      <point x="632" y="191"/>
      <point x="632" y="158" type="qcurve" name="sh02"/>
      <point x="632" y="125"/>
      <point x="607" y="68"/>
      <point x="564" y="25"/>
      <point x="507" y="0"/>
      <point x="474" y="0" type="qcurve" name="ab01"/>
      <point x="441" y="0"/>
      <point x="384" y="25"/>
      <point x="341" y="68"/>
      <point x="316" y="125"/>
    </contour>
  </outline>
</glyph>
<glyph name="semicolon" format="2">
  <advance width="1103"/>
  <unicode hex="003B"/>
  <outline>
    <contour>
      <point x="316" y="790" type="qcurve" name="dh01"/>
      <point x="316" y="823"/>
      <point x="341" y="880"/>
      <point x="384" y="923"/>
      <point x="441" y="948"/>
      <point x="474" y="948" type="qcurve" name="dv01"/>
      <point x="507" y="948"/>
      <point x="564" y="923"/>
      <point x="607" y="880"/>
      <point x="632" y="823"/>
      <point x="632" y="790" type="qcurve" name="dh02"/>
      <point x="632" y="757"/>
      <point x="607" y="700"/>
      <point x="564" y="657"/>
      <point x="507" y="632"/>
      <point x="474" y="632" type="qcurve" name="dv02"/>
      <point x="441" y="632"/>
      <point x="384" y="657"/>
      <point x="341" y="700"/>
      <point x="316" y="757"/>
    </contour>
    <contour>
      <point x="395" y="-316" type="qcurve" name="sv02"/>
      <point x="362" y="-316"/>
      <point x="316" y="-270"/>
      <point x="316" y="-237" type="qcurve" name="sh02"/>
      <point x="316" y="-204"/>
      <point x="362" y="-158"/>
      <point x="395" y="-158" type="qcurve" name="sv01"/>
      <point x="424" y="-158"/>
      <point x="456" y="-138"/>
      <point x="471" y="-99"/>
      <point x="474" y="-43"/>
      <point x="474" y="-7" type="qcurve" name="ab01"/>
      <point x="474" y="0" type="line"/>
      <point x="441" y="0"/>
      <point x="384" y="25"/>
      <point x="341" y="68"/>
      <point x="316" y="125"/>
      <point x="316" y="158" type="qcurve" name="sh01"/>
      <point x="316" y="191"/>
      <point x="341" y="248"/>
      <point x="384" y="291"/>
      <point x="441" y="316"/>
      <point x="474" y="316" type="qcurve" name="sv03"/>
      <point x="507" y="316"/>
      <point x="564" y="291"/>
      <point x="607" y="248"/>
      <point x="632" y="191"/>
      <point x="632" y="158" type="qcurve" name="sh03"/>
      <point x="632" y="0" type="line"/>
      <point x="632" y="-59"/>
      <point x="602" y="-173"/>
      <point x="543" y="-262"/>
      <point x="454" y="-316"/>
    </contour>
  </outline>
</glyph>
<glyph name="less" format="2">
  <advance width="1103"/>
  <unicode hex="003C"/>
  <outline>
    <contour>
      <point x="643" y="158" type="line"/>
      <point x="147" y="654" type="line"/>
      <point x="107" y="710" type="line"/>
      <point x="147" y="768" type="line"/>
      <point x="643" y="1264" type="line"/>
      <point x="757" y="1150" type="line"/>
      <point x="318" y="711" type="line"/>
      <point x="757" y="272" type="line"/>
    </contour>
  </outline>
</glyph>
<glyph name="greater" format="2">
  <advance width="1103"/>
  <unicode hex="003E"/>
  <outline>
    <contour>
      <point x="160" y="272" type="line"/>
      <point x="599" y="711" type="line"/>
      <point x="160" y="1150" type="line"/>
      <point x="274" y="1264" type="line"/>
      <point x="770" y="768" type="line"/>
      <point x="810" y="710" type="line"/>
      <point x="770" y="654" type="line"/>
      <point x="274" y="158" type="line"/>
    </contour>
  </outline>
</glyph>
<glyph name="question" format="2">
  <advance width="1103"/>
  <unicode hex="003F"/>
  <outline>
    <contour>
      <point x="158" y="1027" type="line"/>
      <point x="158" y="1109"/>
      <point x="215" y="1253"/>
      <point x="318" y="1360"/>
      <point x="464" y="1422"/>
      <point x="553" y="1422" type="qcurve" name="at01"/>
      <point x="642" y="1422"/>
      <point x="788" y="1365"/>
      <point x="891" y="1262"/>
      <point x="948" y="1116"/>
      <point x="948" y="1027" type="qcurve" name="dh03"/>
      <point x="948" y="968"/>
      <point x="921" y="884"/>
      <point x="876" y="821"/>
      <point x="820" y="773"/>
      <point x="790" y="751" type="qcurve"/>
      <point x="760" y="729"/>
      <point x="704" y="681"/>
      <point x="659" y="618"/>
      <point x="632" y="533"/>
      <point x="632" y="474" type="qcurve" name="sh01"/>
      <point x="474" y="474" type="line" name="sh02"/>
      <point x="474" y="548"/>
      <point x="501" y="655"/>
      <point x="546" y="733"/>
      <point x="602" y="787"/>
      <point x="632" y="810" type="qcurve" name="mv01"/>
      <point x="662" y="832"/>
      <point x="718" y="873"/>
      <point x="763" y="921"/>
      <point x="790" y="983"/>
      <point x="790" y="1027" type="qcurve" name="dh04"/>
      <point x="790" y="1264"/>
      <point x="553" y="1264" type="qcurve" name="sv01"/>
      <point x="316" y="1264"/>
      <point x="316" y="1027" type="qcurve"/>
      <point x="316" y="948" type="line" name="dh05"/>
      <point x="158" y="948" type="line" name="dh06"/>
    </contour>
    <contour>
      <point x="474" y="316" type="line" name="dh01"/>
      <point x="632" y="316" type="line" name="dh02"/>
      <point x="632" y="0" type="line"/>
      <point x="474" y="0" type="line" name="ab01"/>
    </contour>
  </outline>
</glyph>
<glyph name="at" format="2">
  <advance width="1103"/>
  <unicode hex="0040"/>
  <outline>
    <contour>
      <point x="474" y="-158" type="line" name="sv01"/>
      <point x="385" y="-158"/>
      <point x="215" y="-77"/>
      <point x="81" y="57"/>
      <point x="0" y="227"/>
      <point x="0" y="316" type="qcurve"/>
      <point x="0" y="1106" type="line" name="ah01"/>
      <point x="0" y="1195"/>
      <point x="81" y="1365"/>
      <point x="215" y="1499"/>
      <point x="385" y="1580"/>
      <point x="474" y="1580" type="qcurve" name="sv02"/>
      <point x="563" y="1580"/>
      <point x="733" y="1499"/>
      <point x="867" y="1365"/>
      <point x="948" y="1195"/>
      <point x="948" y="1106" type="qcurve" name="dh02"/>
      <point x="948" y="316" type="line"/>
      <point x="632" y="316" type="line" name="sv03"/>
      <point x="548" y="316"/>
      <point x="429" y="386"/>
      <point x="352" y="499"/>
      <point x="316" y="640"/>
      <point x="316" y="711" type="qcurve" name="dh03"/>
      <point x="316" y="787"/>
      <point x="355" y="929"/>
      <point x="433" y="1039"/>
      <point x="552" y="1106"/>
      <point x="632" y="1106" type="qcurve" name="at02"/>
      <point x="790" y="1106" type="line" name="dh01"/>
      <point x="790" y="1165"/>
      <point x="736" y="1279" name="mv01"/>
      <point x="647" y="1368"/>
      <point x="533" y="1422"/>
      <point x="474" y="1422" type="qcurve" name="at01"/>
      <point x="415" y="1422"/>
      <point x="301" y="1368"/>
      <point x="212" y="1279" name="mv02"/>
      <point x="158" y="1165"/>
      <point x="158" y="1106" type="qcurve" name="sh01"/>
      <point x="158" y="316" type="line"/>
      <point x="158" y="257"/>
      <point x="212" y="143" name="mv03"/>
      <point x="301" y="54"/>
      <point x="415" y="0"/>
      <point x="474" y="0" type="qcurve" name="ab01"/>
      <point x="790" y="0" type="line" name="sh02"/>
      <point x="790" y="-158" type="line"/>
    </contour>
    <contour>
      <point x="790" y="474" type="line"/>
      <point x="790" y="948" type="line" name="sh03"/>
      <point x="632" y="948" type="line" name="sv04"/>
      <point x="602" y="948"/>
      <point x="546" y="918"/>
      <point x="501" y="859"/>
      <point x="474" y="770"/>
      <point x="474" y="711" type="qcurve" name="dh04"/>
      <point x="474" y="652"/>
      <point x="501" y="563"/>
      <point x="546" y="504"/>
      <point x="602" y="474"/>
      <point x="632" y="474" type="qcurve" name="at03"/>
    </contour>
  </outline>
</glyph>
<glyph name="A" format="2">
  <advance width="1103"/>
  <unicode hex="0041"/>
  <outline>
    <contour>
      <point x="158" y="1027" type="line"/>
      <point x="158" y="1109"/>
      <point x="220" y="1253"/>
      <point x="327" y="1360"/>
      <point x="471" y="1422"/>
      <point x="553" y="1422" type="qcurve" name="at01"/>
      <point x="635" y="1422"/>
      <point x="779" y="1360"/>
      <point x="886" y="1253"/>
      <point x="948" y="1109"/>
      <point x="948" y="1027" type="qcurve"/>
      <point x="948" y="0" type="line" name="dh04"/>
      <point x="790" y="0" type="line" name="dh03"/>
      <point x="790" y="632" type="line"/>
      <point x="316" y="632" type="line" name="sv01"/>
      <point x="316" y="0" type="line" name="dh02"/>
      <point x="158" y="0" type="line" name="dh01"/>
    </contour>
    <contour>
      <point x="790" y="790" type="line" name="sh01"/>
      <point x="790" y="1027" type="line"/>
      <point x="790" y="1076"/>
      <point x="753" y="1162" name="mv01"/>
      <point x="688" y="1227"/>
      <point x="602" y="1264"/>
      <point x="553" y="1264" type="qcurve" name="sv02"/>
      <point x="504" y="1264"/>
      <point x="418" y="1227"/>
      <point x="353" y="1162" name="mv02"/>
      <point x="316" y="1076"/>
      <point x="316" y="1027" type="qcurve"/>
      <point x="316" y="790" type="line" name="sh02"/>
    </contour>
  </outline>
</glyph>
<glyph name="B" format="2">
  <advance width="1103"/>
  <unicode hex="0042"/>
  <outline>
    <contour>
      <point x="158" y="1422" type="line" name="dh02"/>
      <point x="553" y="1422" type="line" name="at01"/>
      <point x="635" y="1422"/>
      <point x="779" y="1360"/>
      <point x="886" y="1253"/>
      <point x="948" y="1109"/>
      <point x="948" y="1027" type="qcurve" name="dh04"/>
      <point x="948" y="928"/>
      <point x="861" y="765" name="mh01"/>
      <point x="789" y="711" type="qcurve" name="mv01"/>
      <point x="861" y="657"/>
      <point x="948" y="492"/>
      <point x="948" y="395" type="qcurve" name="sh01"/>
      <point x="948" y="313"/>
      <point x="886" y="169"/>
      <point x="779" y="62"/>
      <point x="635" y="0"/>
      <point x="553" y="0" type="qcurve" name="ab01"/>
      <point x="158" y="0" type="line"/>
    </contour>
    <contour>
      <point x="553" y="790" type="line" name="at02"/>
      <point x="602" y="790"/>
      <point x="688" y="827"/>
      <point x="753" y="892"/>
      <point x="790" y="978"/>
      <point x="790" y="1027" type="qcurve" name="dh03"/>
      <point x="790" y="1076"/>
      <point x="753" y="1162"/>
      <point x="688" y="1227" name="mv02"/>
      <point x="602" y="1264"/>
      <point x="553" y="1264" type="qcurve" name="sv01"/>
      <point x="316" y="1264" type="line" name="dh01"/>
      <point x="316" y="790" type="line"/>
    </contour>
    <contour>
      <point x="553" y="158" type="line" name="sv02"/>
      <point x="602" y="158"/>
      <point x="688" y="195"/>
      <point x="753" y="260"/>
      <point x="790" y="346"/>
      <point x="790" y="395" type="qcurve" name="sh02"/>
      <point x="790" y="444"/>
      <point x="753" y="530"/>
      <point x="688" y="595"/>
      <point x="602" y="632"/>
      <point x="553" y="632" type="qcurve" name="mh02"/>
      <point x="316" y="632" type="line" name="sh03"/>
      <point x="316" y="158" type="line"/>
    </contour>
  </outline>
</glyph>
<glyph name="C" format="2">
  <advance width="1103"/>
  <unicode hex="0043"/>
  <outline>
    <contour>
      <point x="556" y="1264" type="qcurve" name="sv01"/>
      <point x="505" y="1264"/>
      <point x="417" y="1227"/>
      <point x="353" y="1162"/>
      <point x="316" y="1076"/>
      <point x="316" y="1027" type="qcurve" name="dh03"/>
      <point x="316" y="395" type="line"/>
      <point x="316" y="346"/>
      <point x="353" y="260"/>
      <point x="417" y="195"/>
      <point x="505" y="158"/>
      <point x="556" y="158" type="qcurve" name="sv02"/>
      <point x="598" y="158"/>
      <point x="672" y="181"/>
      <point x="733" y="223"/>
      <point x="778" y="281"/>
      <point x="790" y="316" type="qcurve" name="sh01"/>
      <point x="948" y="316" type="line" name="sh02"/>
      <point x="934" y="248"/>
      <point x="864" y="132"/>
      <point x="761" y="48"/>
      <point x="631" y="0"/>
      <point x="556" y="0" type="qcurve" name="ab01"/>
      <point x="472" y="0"/>
      <point x="327" y="62"/>
      <point x="219" y="169"/>
      <point x="158" y="313"/>
      <point x="158" y="395" type="qcurve"/>
      <point x="158" y="1027" type="line" name="dh04"/>
      <point x="158" y="1109"/>
      <point x="219" y="1253"/>
      <point x="327" y="1360"/>
      <point x="472" y="1422"/>
      <point x="556" y="1422" type="qcurve" name="at01"/>
      <point x="631" y="1422"/>
      <point x="762" y="1374"/>
      <point x="864" y="1289"/>
      <point x="934" y="1173"/>
      <point x="948" y="1106" type="qcurve" name="dh01"/>
      <point x="790" y="1106" type="line" name="dh02"/>
      <point x="778" y="1140"/>
      <point x="733" y="1198"/>
      <point x="673" y="1240"/>
      <point x="598" y="1264"/>
    </contour>
  </outline>
</glyph>
<glyph name="D" format="2">
  <advance width="1103"/>
  <unicode hex="0044"/>
  <outline>
    <contour>
      <point x="158" y="1422" type="line" name="dh01"/>
      <point x="553" y="1422" type="line" name="mh01"/>
      <point x="608" y="1422"/>
      <point x="709" y="1382"/>
      <point x="797" y="1313"/>
      <point x="869" y="1221"/>
      <point x="920" y="1116"/>
      <point x="948" y="1003"/>
      <point x="948" y="948" type="qcurve" name="dh04"/>
      <point x="948" y="474" type="line"/>
      <point x="948" y="419"/>
      <point x="920" y="306"/>
      <point x="869" y="201"/>
      <point x="797" y="109"/>
      <point x="709" y="40"/>
      <point x="608" y="0"/>
      <point x="553" y="0" type="qcurve" name="mh02"/>
      <point x="158" y="0" type="line"/>
    </contour>
    <contour>
      <point x="553" y="158" type="line" name="mh03"/>
      <point x="602" y="158"/>
      <point x="688" y="220"/>
      <point x="753" y="314"/>
      <point x="790" y="425"/>
      <point x="790" y="474" type="qcurve"/>
      <point x="790" y="948" type="line" name="dh03"/>
      <point x="790" y="997"/>
      <point x="753" y="1108"/>
      <point x="688" y="1202"/>
      <point x="602" y="1264"/>
      <point x="553" y="1264" type="qcurve" name="mh04"/>
      <point x="316" y="1264" type="line" name="dh02"/>
      <point x="316" y="158" type="line"/>
    </contour>
  </outline>
</glyph>
<glyph name="E" format="2">
  <advance width="1103"/>
  <unicode hex="0045"/>
  <outline>
    <contour>
      <point x="158" y="1422" type="line" name="dh01"/>
      <point x="948" y="1422" type="line" name="at01"/>
      <point x="948" y="1264" type="line" name="ah01"/>
      <point x="316" y="1264" type="line" name="dh02"/>
      <point x="316" y="790" type="line"/>
      <point x="790" y="790" type="line" name="ah02"/>
      <point x="790" y="632" type="line" name="sv01"/>
      <point x="316" y="632" type="line" name="sh01"/>
      <point x="316" y="158" type="line"/>
      <point x="948" y="158" type="line" name="sh02"/>
      <point x="948" y="0" type="line" name="ab01"/>
      <point x="158" y="0" type="line"/>
    </contour>
  </outline>
</glyph>
<glyph name="H" format="2">
  <advance width="1103"/>
  <unicode hex="0048"/>
  <outline>
    <contour>
      <point x="158" y="1422" type="line" name="dh01"/>
      <point x="316" y="1422" type="line" name="dh02"/>
      <point x="316" y="790" type="line" name="at01"/>
      <point x="790" y="790" type="line"/>
      <point x="790" y="1422" type="line" name="dh04"/>
      <point x="948" y="1422" type="line" name="dh03"/>
      <point x="948" y="0" type="line"/>
      <point x="790" y="0" type="line" name="sv01"/>
      <point x="790" y="632" type="line" name="sh01"/>
      <point x="316" y="632" type="line" name="sh02"/>
      <point x="316" y="0" type="line"/>
      <point x="158" y="0" type="line" name="ab01"/>
    </contour>
  </outline>
</glyph>
<glyph name="J" format="2">
  <advance width="1103"/>
  <unicode hex="004A"/>
  <outline>
    <contour>
      <point x="158" y="474" type="line" name="dh03"/>
      <point x="316" y="474" type="line" name="dh04"/>
      <point x="316" y="395" type="line"/>
      <point x="316" y="346"/>
      <point x="353" y="260"/>
      <point x="418" y="195"/>
      <point x="504" y="158"/>
      <point x="553" y="158" type="qcurve" name="sv01"/>
      <point x="602" y="158"/>
      <point x="688" y="195"/>
      <point x="753" y="260"/>
      <point x="790" y="346"/>
      <point x="790" y="395" type="qcurve"/>
      <point x="790" y="1422" type="line" name="dh01"/>
      <point x="948" y="1422" type="line" name="dh02"/>
      <point x="948" y="395" type="line"/>
      <point x="948" y="313"/>
      <point x="886" y="169"/>
      <point x="779" y="62"/>
      <point x="635" y="0"/>
      <point x="553" y="0" type="qcurve" name="ab01"/>
      <point x="471" y="0"/>
      <point x="327" y="62"/>
      <point x="220" y="169"/>
      <point x="158" y="313"/>
      <point x="158" y="395" type="qcurve"/>
    </contour>
  </outline>
</glyph>
<glyph name="K" format="2">
  <advance width="1103"/>
  <unicode hex="004B"/>
  <outline>
    <contour>
      <point x="316" y="761" type="line" name="sh03"/>
      <point x="662" y="1265" type="line" name="mh01"/>
      <point x="770" y="1422" type="line" name="dh05"/>
      <point x="948" y="1422" type="line" name="dh06"/>
      <point x="842" y="1263" type="line" name="mh02"/>
      <point x="474" y="711" type="line" name="sh02"/>
      <point x="842" y="160" type="line" name="mh03"/>
      <point x="948" y="0" type="line" name="dh04"/>
      <point x="768" y="0" type="line" name="dh03"/>
      <point x="660" y="159" type="line" name="mh04"/>
      <point x="316" y="666" type="line" name="sh01"/>
      <point x="316" y="0" type="line"/>
      <point x="158" y="0" type="line" name="ab01"/>
      <point x="158" y="1422" type="line" name="dh01"/>
      <point x="316" y="1422" type="line" name="dh02"/>
    </contour>
  </outline>
</glyph>
<glyph name="L" format="2">
  <advance width="1103"/>
  <unicode hex="004C"/>
  <outline>
    <contour>
      <point x="158" y="1422" type="line" name="dh01"/>
      <point x="316" y="1422" type="line" name="dh02"/>
      <point x="316" y="158" type="line" name="sv01"/>
      <point x="948" y="158" type="line"/>
      <point x="948" y="0" type="line" name="ah01"/>
      <point x="158" y="0" type="line"/>
    </contour>
  </outline>
</glyph>
<glyph name="M" format="2">
  <advance width="1103"/>
  <unicode hex="004D"/>
  <outline>
    <contour>
      <point x="790" y="1106" type="line"/>
      <point x="553" y="692" type="line" name="fv01"/>
      <point x="316" y="1106" type="line"/>
      <point x="316" y="0" type="line" name="dh01"/>
      <point x="158" y="0" type="line" name="dh02"/>
      <point x="158" y="1422" type="line" name="at01"/>
      <point x="316" y="1422" type="line"/>
      <point x="553" y="948" type="line" name="mv01"/>
      <point x="790" y="1422" type="line" name="sv01"/>
      <point x="948" y="1422" type="line"/>
      <point x="948" y="0" type="line" name="dh04"/>
      <point x="790" y="0" type="line" name="dh03"/>
    </contour>
  </outline>
</glyph>
<glyph name="P" format="2">
  <advance width="1103"/>
  <unicode hex="0050"/>
  <outline>
    <contour>
      <point x="316" y="0" type="line" name="ab01"/>
      <point x="158" y="0" type="line"/>
      <point x="158" y="1422" type="line" name="dh04"/>
      <point x="553" y="1422" type="line" name="at01"/>
      <point x="635" y="1422"/>
      <point x="779" y="1360"/>
      <point x="886" y="1253"/>
      <point x="948" y="1109"/>
      <point x="948" y="1027" type="qcurve" name="dh02"/>
      <point x="948" y="945"/>
      <point x="886" y="801"/>
      <point x="779" y="694"/>
      <point x="635" y="632"/>
      <point x="553" y="632" type="qcurve" name="sv01"/>
      <point x="316" y="632" type="line" name="sh01"/>
    </contour>
    <contour>
      <point x="553" y="790" type="line" name="at02"/>
      <point x="602" y="790"/>
      <point x="688" y="827"/>
      <point x="753" y="892"/>
      <point x="790" y="978"/>
      <point x="790" y="1027" type="qcurve" name="dh01"/>
      <point x="790" y="1076"/>
      <point x="753" y="1162"/>
      <point x="688" y="1227"/>
      <point x="602" y="1264"/>
      <point x="553" y="1264" type="qcurve" name="sv02"/>
      <point x="316" y="1264" type="line" name="dh03"/>
      <point x="316" y="790" type="line"/>
    </contour>
  </outline>
</glyph>
<glyph name="Q" format="2">
  <advance width="1103"/>
  <unicode hex="0051"/>
  <outline>
    <contour>
      <point x="692" y="25" type="line"/>
      <point x="626" y="0"/>
      <point x="553" y="0" type="qcurve" name="ab01"/>
      <point x="471" y="0"/>
      <point x="327" y="62"/>
      <point x="220" y="169"/>
      <point x="158" y="313"/>
      <point x="158" y="395" type="qcurve"/>
      <point x="158" y="1027" type="line" name="dh02"/>
      <point x="158" y="1109"/>
      <point x="220" y="1253"/>
      <point x="327" y="1360"/>
      <point x="471" y="1422"/>
      <point x="553" y="1422" type="qcurve" name="at01"/>
      <point x="635" y="1422"/>
      <point x="779" y="1360"/>
      <point x="886" y="1253"/>
      <point x="948" y="1109"/>
      <point x="948" y="1027" type="qcurve" name="dh03"/>
      <point x="948" y="395" type="line"/>
      <point x="948" y="308"/>
      <point x="880" y="159"/>
      <point x="822" y="105" type="qcurve"/>
      <point x="954" y="-158" type="line" name="sh01"/>
      <point x="784" y="-158" type="line" name="sh02"/>
    </contour>
    <contour>
      <point x="553" y="1264" type="qcurve" name="sv01"/>
      <point x="504" y="1264"/>
      <point x="418" y="1227"/>
      <point x="353" y="1162"/>
      <point x="316" y="1076"/>
      <point x="316" y="1027" type="qcurve" name="dh01"/>
      <point x="316" y="395" type="line"/>
      <point x="316" y="346"/>
      <point x="353" y="260"/>
      <point x="418" y="195"/>
      <point x="504" y="158"/>
      <point x="553" y="158" type="qcurve" name="sv02"/>
      <point x="591" y="158"/>
      <point x="621" y="168" type="qcurve"/>
      <point x="468" y="474" type="line" name="dh06"/>
      <point x="638" y="474" type="line" name="dh05"/>
      <point x="746" y="257" type="line"/>
      <point x="766" y="286"/>
      <point x="790" y="356"/>
      <point x="790" y="395" type="qcurve"/>
      <point x="790" y="1027" type="line" name="dh04"/>
      <point x="790" y="1076"/>
      <point x="753" y="1162"/>
      <point x="688" y="1227"/>
      <point x="602" y="1264"/>
    </contour>
  </outline>
</glyph>
<glyph name="R" format="2">
  <advance width="1103"/>
  <unicode hex="0052"/>
  <outline>
    <contour>
      <point x="643" y="642" type="qcurve"/>
      <point x="955" y="3" name="dh04"/>
      <point x="955" y="0" type="qcurve"/>
      <point x="774" y="0" type="line" name="dh03"/>
      <point x="466" y="630"/>
      <point x="466" y="632" type="qcurve"/>
      <point x="316" y="632" type="line" name="sv01"/>
      <point x="316" y="0" type="line" name="dh01"/>
      <point x="158" y="0" type="line" name="dh02"/>
      <point x="158" y="1422" type="line"/>
      <point x="553" y="1422" type="line" name="at01"/>
      <point x="635" y="1422"/>
      <point x="779" y="1360"/>
      <point x="886" y="1253"/>
      <point x="948" y="1109"/>
      <point x="948" y="1027" type="qcurve" name="sh01"/>
      <point x="948" y="957"/>
      <point x="902" y="831" name="mv01"/>
      <point x="820" y="729"/>
      <point x="708" y="657"/>
    </contour>
    <contour>
      <point x="553" y="790" type="line"/>
      <point x="602" y="790"/>
      <point x="688" y="827"/>
      <point x="753" y="892"/>
      <point x="790" y="978"/>
      <point x="790" y="1027" type="qcurve" name="sh02"/>
      <point x="790" y="1076"/>
      <point x="753" y="1162"/>
      <point x="688" y="1227" name="fh01"/>
      <point x="602" y="1264"/>
      <point x="553" y="1264" type="qcurve" name="sv02"/>
      <point x="316" y="1264" type="line" name="sh03"/>
      <point x="316" y="790" type="line" name="at02"/>
    </contour>
  </outline>
</glyph>
<glyph name="S" format="2">
  <advance width="1103"/>
  <unicode hex="0053"/>
  <outline>
    <contour>
      <point x="316" y="1027" type="qcurve" name="dh01"/>
      <point x="316" y="978"/>
      <point x="353" y="892"/>
      <point x="418" y="827"/>
      <point x="504" y="790"/>
      <point x="553" y="790" type="qcurve" name="dv01"/>
      <point x="635" y="790"/>
      <point x="779" y="728"/>
      <point x="886" y="621"/>
      <point x="948" y="477"/>
      <point x="948" y="395" type="qcurve" name="dh04"/>
      <point x="948" y="313"/>
      <point x="886" y="169"/>
      <point x="779" y="62"/>
      <point x="635" y="0"/>
      <point x="553" y="0" type="qcurve"/>
      <point x="158" y="0" type="line" name="ab01"/>
      <point x="158" y="158" type="line" name="sh01"/>
      <point x="553" y="158" type="line"/>
      <point x="602" y="158"/>
      <point x="688" y="195"/>
      <point x="753" y="260"/>
      <point x="790" y="346"/>
      <point x="790" y="395" type="qcurve" name="dh03"/>
      <point x="790" y="444"/>
      <point x="753" y="530"/>
      <point x="688" y="595"/>
      <point x="602" y="632"/>
      <point x="553" y="632" type="qcurve" name="mh01"/>
      <point x="471" y="632"/>
      <point x="327" y="694" name="mh02"/>
      <point x="220" y="801" name="mv01"/>
      <point x="158" y="945"/>
      <point x="158" y="1027" type="qcurve" name="dh02"/>
      <point x="158" y="1109"/>
      <point x="220" y="1253"/>
      <point x="327" y="1360"/>
      <point x="471" y="1422"/>
      <point x="553" y="1422" type="qcurve"/>
      <point x="948" y="1422" type="line" name="at01"/>
      <point x="948" y="1264" type="line" name="sh02"/>
      <point x="553" y="1264" type="line"/>
      <point x="504" y="1264"/>
      <point x="418" y="1227"/>
      <point x="353" y="1162" name="mv02"/>
      <point x="316" y="1076"/>
    </contour>
  </outline>
</glyph>
<glyph name="V" format="2">
  <advance width="1103"/>
  <unicode hex="0056"/>
  <outline>
    <contour>
      <point x="316" y="1422" type="line" name="dh02"/>
      <point x="553" y="332" type="line" name="ih01"/>
      <point x="790" y="1422" type="line" name="dh04"/>
      <point x="948" y="1422" type="line" name="dh03"/>
      <point x="632" y="0" type="line" name="ih03"/>
      <point x="474" y="0" type="line" name="ih02"/>
      <point x="158" y="1422" type="line" name="dh01"/>
    </contour>
  </outline>
</glyph>
<glyph name="W" format="2">
  <advance width="1103"/>
  <unicode hex="0057"/>
  <outline>
    <contour>
      <point x="790" y="1422" type="line" name="dh03"/>
      <point x="948" y="1422" type="line" name="dh04"/>
      <point x="948" y="0" type="line" name="sv01"/>
      <point x="790" y="0" type="line"/>
      <point x="553" y="474" type="line"/>
      <point x="316" y="0" type="line"/>
      <point x="158" y="0" type="line" name="ab01"/>
      <point x="158" y="1422" type="line" name="dh01"/>
      <point x="316" y="1422" type="line" name="dh02"/>
      <point x="316" y="316" type="line" name="mv01"/>
      <point x="553" y="730" type="line" name="mv02"/>
      <point x="790" y="316" type="line"/>
    </contour>
  </outline>
</glyph>
<glyph name="X" format="2">
  <advance width="1103"/>
  <unicode hex="0058"/>
  <outline>
    <contour>
      <point x="553" y="904" type="line"/>
      <point x="715" y="1270" type="line" name="mh01"/>
      <point x="783" y="1422" type="line" name="dh04"/>
      <point x="949" y="1422" type="line" name="dh03"/>
      <point x="880" y="1264" type="line" name="mh02"/>
      <point x="639" y="711" type="line"/>
      <point x="880" y="159" type="line"/>
      <point x="949" y="0" type="line" name="sh01"/>
      <point x="783" y="0" type="line" name="sh02"/>
      <point x="712" y="160" type="line"/>
      <point x="553" y="517" type="line"/>
      <point x="394" y="159" type="line"/>
      <point x="323" y="0" type="line" name="sh03"/>
      <point x="158" y="0" type="line" name="sh04"/>
      <point x="226" y="157" type="line"/>
      <point x="467" y="711" type="line"/>
      <point x="225" y="1266" type="line" name="mh03"/>
      <point x="157" y="1422" type="line" name="dh01"/>
      <point x="323" y="1422" type="line" name="dh02"/>
      <point x="393" y="1265" type="line" name="mh04"/>
    </contour>
  </outline>
</glyph>
<glyph name="Y" format="2">
  <advance width="1103"/>
  <unicode hex="0059"/>
  <outline>
    <contour>
      <point x="474" y="472" type="line" name="fv01"/>
      <point x="158" y="1422" type="line" name="at01"/>
      <point x="316" y="1422" type="line" name="mv01"/>
      <point x="553" y="711" type="line" name="ih01"/>
      <point x="790" y="1422" type="line" name="mv02"/>
      <point x="948" y="1422" type="line" name="sv01"/>
      <point x="632" y="474" type="line" name="fv02"/>
      <point x="632" y="0" type="line" name="dh02"/>
      <point x="474" y="0" type="line" name="dh01"/>
    </contour>
  </outline>
</glyph>
<glyph name="Z" format="2">
  <advance width="1103"/>
  <unicode hex="005A"/>
  <outline>
    <contour>
      <point x="158" y="158" type="line"/>
      <point x="772" y="1264" type="line" name="mh01"/>
      <point x="158" y="1264" type="line" name="sv01"/>
      <point x="158" y="1422" type="line" name="ah01"/>
      <point x="948" y="1422" type="line" name="sh01"/>
      <point x="948" y="1264" type="line"/>
      <point x="346" y="158" type="line" name="mh02"/>
      <point x="948" y="158" type="line" name="sv02"/>
      <point x="948" y="0" type="line" name="ah02"/>
      <point x="158" y="0" type="line" name="sh02"/>
    </contour>
  </outline>
</glyph>
<glyph name="bracketleft" format="2">
  <advance width="1103"/>
  <unicode hex="005B"/>
  <outline>
    <contour>
      <point x="316" y="1580" type="line" name="dh01"/>
      <point x="790" y="1580" type="line" name="dv02"/>
      <point x="790" y="1422" type="line" name="sh01"/>
      <point x="474" y="1422" type="line" name="dh02"/>
      <point x="474" y="-158" type="line"/>
      <point x="790" y="-158" type="line" name="sh02"/>
      <point x="790" y="-316" type="line" name="dv01"/>
      <point x="316" y="-316" type="line"/>
    </contour>
  </outline>
</glyph>
<glyph name="backslash" format="2">
  <advance width="1103"/>
  <unicode hex="005C"/>
  <outline>
    <contour>
      <point x="884" y="2" type="line" name="mh01"/>
      <point x="948" y="-158" type="line" name="dh03"/>
      <point x="790" y="-158" type="line" name="dh04"/>
      <point x="727" y="-1" type="line" name="mh02"/>
      <point x="221" y="1264" type="line" name="mh03"/>
      <point x="158" y="1422" type="line" name="dh01"/>
      <point x="316" y="1422" type="line" name="dh02"/>
      <point x="379" y="1264" type="line" name="mh04"/>
    </contour>
  </outline>
</glyph>
<glyph name="asciicircum" format="2">
  <advance width="1103"/>
  <unicode hex="005E"/>
  <outline>
    <contour>
      <point x="460" y="1422" type="line" name="at01"/>
      <point x="650" y="1422" type="line"/>
      <point x="957" y="790" type="line" name="dh04"/>
      <point x="776" y="790" type="line" name="dh03"/>
      <point x="555" y="1252" type="line"/>
      <point x="334" y="790" type="line" name="dh01"/>
      <point x="152" y="790" type="line" name="dh02"/>
    </contour>
  </outline>
</glyph>
<glyph name="a" format="2">
  <advance width="1103"/>
  <unicode hex="0061"/>
  <outline>
    <contour>
      <point x="474" y="0" type="line" name="ab01"/>
      <point x="409" y="0"/>
      <point x="294" y="50"/>
      <point x="208" y="136" name="mh01"/>
      <point x="158" y="251"/>
      <point x="158" y="316" type="qcurve" name="dh01"/>
      <point x="158" y="381"/>
      <point x="208" y="496" name="mh02"/>
      <point x="294" y="582"/>
      <point x="409" y="632"/>
      <point x="474" y="632" type="qcurve" name="sv01"/>
      <point x="790" y="632" type="line" name="sh01"/>
      <point x="790" y="711" type="line"/>
      <point x="790" y="760"/>
      <point x="753" y="846"/>
      <point x="688" y="911"/>
      <point x="602" y="948"/>
      <point x="553" y="948" type="qcurve"/>
      <point x="316" y="948" type="line" name="sh02"/>
      <point x="316" y="1106" type="line" name="at02"/>
      <point x="553" y="1106" type="line"/>
      <point x="635" y="1106"/>
      <point x="779" y="1044"/>
      <point x="886" y="937"/>
      <point x="948" y="793"/>
      <point x="948" y="711" type="qcurve"/>
      <point x="948" y="0" type="line" name="dh03"/>
    </contour>
    <contour>
      <point x="474" y="474" type="line" name="at01"/>
      <point x="441" y="474"/>
      <point x="384" y="449"/>
      <point x="341" y="406"/>
      <point x="316" y="349"/>
      <point x="316" y="316" type="qcurve" name="dh02"/>
      <point x="316" y="283"/>
      <point x="341" y="226"/>
      <point x="384" y="183"/>
      <point x="441" y="158"/>
      <point x="474" y="158" type="qcurve" name="sv02"/>
      <point x="790" y="158" type="line" name="dh04"/>
      <point x="790" y="474" type="line"/>
    </contour>
  </outline>
</glyph>
<glyph name="c" format="2">
  <advance width="1103"/>
  <unicode hex="0063"/>
  <outline>
    <contour>
      <point x="316" y="395" type="line"/>
      <point x="316" y="346"/>
      <point x="358" y="260" name="fv01"/>
      <point x="427" y="195"/>
      <point x="518" y="158"/>
      <point x="567" y="158" type="qcurve" name="sv01"/>
      <point x="606" y="158"/>
      <point x="676" y="181"/>
      <point x="734" y="223"/>
      <point x="778" y="281"/>
      <point x="790" y="316" type="qcurve" name="sh01"/>
      <point x="948" y="316" type="line" name="sh02"/>
      <point x="934" y="248"/>
      <point x="863" y="133"/>
      <point x="761" y="48"/>
      <point x="633" y="0"/>
      <point x="561" y="0" type="qcurve" name="ab01"/>
      <point x="479" y="0"/>
      <point x="333" y="62" name="fv02"/>
      <point x="223" y="169"/>
      <point x="158" y="313"/>
      <point x="158" y="395" type="qcurve"/>
      <point x="158" y="711" type="line" name="dh02"/>
      <point x="158" y="793"/>
      <point x="223" y="937"/>
      <point x="333" y="1044" name="fv03"/>
      <point x="479" y="1106"/>
      <point x="561" y="1106" type="qcurve" name="at01"/>
      <point x="633" y="1106"/>
      <point x="761" y="1058"/>
      <point x="863" y="973"/>
      <point x="934" y="857"/>
      <point x="948" y="790" type="qcurve" name="dh03"/>
      <point x="790" y="790" type="line" name="dh04"/>
      <point x="778" y="824"/>
      <point x="734" y="882"/>
      <point x="676" y="924"/>
      <point x="606" y="948"/>
      <point x="567" y="948" type="qcurve" name="sv02"/>
      <point x="518" y="948"/>
      <point x="427" y="911"/>
      <point x="358" y="846" name="fv04"/>
      <point x="316" y="760"/>
      <point x="316" y="711" type="qcurve" name="dh01"/>
    </contour>
  </outline>
</glyph>
<glyph name="d" format="2">
  <advance width="1103"/>
  <unicode hex="0064"/>
  <outline>
    <contour>
      <point x="948" y="0" type="line" name="ab01"/>
      <point x="790" y="0" type="line"/>
      <point x="790" y="98" type="line"/>
      <point x="764" y="80"/>
      <point x="709" y="44"/>
      <point x="649" y="17"/>
      <point x="586" y="0"/>
      <point x="553" y="0" type="qcurve" name="sv01"/>
      <point x="471" y="0"/>
      <point x="327" y="62"/>
      <point x="220" y="169"/>
      <point x="158" y="313"/>
      <point x="158" y="395" type="qcurve"/>
      <point x="158" y="711" type="line" name="dh04"/>
      <point x="158" y="793"/>
      <point x="220" y="937"/>
      <point x="327" y="1044"/>
      <point x="471" y="1106"/>
      <point x="553" y="1106" type="qcurve" name="at01"/>
      <point x="616" y="1106"/>
      <point x="732" y="1049"/>
      <point x="790" y="1007" type="qcurve"/>
      <point x="790" y="1422" type="line" name="dh01"/>
      <point x="948" y="1422" type="line" name="dh02"/>
    </contour>
    <contour>
      <point x="790" y="720" type="line"/>
      <point x="776" y="837"/>
      <point x="652" y="948"/>
      <point x="553" y="948" type="qcurve" name="sv02"/>
      <point x="504" y="948"/>
      <point x="418" y="911"/>
      <point x="353" y="846"/>
      <point x="316" y="760"/>
      <point x="316" y="711" type="qcurve" name="dh03"/>
      <point x="316" y="395" type="line"/>
      <point x="316" y="346"/>
      <point x="353" y="260"/>
      <point x="418" y="195"/>
      <point x="504" y="158"/>
      <point x="553" y="158" type="qcurve" name="sv03"/>
      <point x="602" y="158"/>
      <point x="688" y="195"/>
      <point x="753" y="260"/>
      <point x="790" y="346"/>
      <point x="790" y="395" type="qcurve" name="sh01"/>
    </contour>
  </outline>
</glyph>
<glyph name="g" format="2">
  <advance width="1103"/>
  <unicode hex="0067"/>
  <outline>
    <contour>
      <point x="316" y="-316" type="line" name="sh01"/>
      <point x="553" y="-316" type="line" name="sv01"/>
      <point x="602" y="-316"/>
      <point x="688" y="-279"/>
      <point x="753" y="-214"/>
      <point x="790" y="-128"/>
      <point x="790" y="-79" type="qcurve" name="dh01"/>
      <point x="790" y="99" type="line"/>
      <point x="765" y="81"/>
      <point x="710" y="45"/>
      <point x="650" y="17"/>
      <point x="586" y="0"/>
      <point x="553" y="0" type="qcurve" name="ab01"/>
      <point x="471" y="0"/>
      <point x="327" y="62"/>
      <point x="220" y="169"/>
      <point x="158" y="313"/>
      <point x="158" y="395" type="qcurve"/>
      <point x="158" y="711" type="line" name="dh04"/>
      <point x="158" y="793"/>
      <point x="220" y="937"/>
      <point x="327" y="1044"/>
      <point x="471" y="1106"/>
      <point x="553" y="1106" type="qcurve" name="at01"/>
      <point x="586" y="1106"/>
      <point x="650" y="1089"/>
      <point x="710" y="1061"/>
      <point x="765" y="1025"/>
      <point x="790" y="1006" type="qcurve"/>
      <point x="790" y="1106" type="line"/>
      <point x="948" y="1106" type="line" name="at02"/>
      <point x="948" y="-79" type="line" name="dh02"/>
      <point x="948" y="-161"/>
      <point x="886" y="-305"/>
      <point x="779" y="-412"/>
      <point x="635" y="-474"/>
      <point x="553" y="-474" type="qcurve" name="ab02"/>
      <point x="316" y="-474" type="line"/>
    </contour>
    <contour>
      <point x="316" y="395" type="line"/>
      <point x="316" y="346"/>
      <point x="353" y="260"/>
      <point x="418" y="195"/>
      <point x="504" y="158"/>
      <point x="553" y="158" type="qcurve" name="sv02"/>
      <point x="601" y="158"/>
      <point x="687" y="192"/>
      <point x="752" y="252"/>
      <point x="790" y="335"/>
      <point x="790" y="385" type="qcurve" name="sh02"/>
      <point x="790" y="721" type="line"/>
      <point x="790" y="768"/>
      <point x="752" y="851"/>
      <point x="687" y="912"/>
      <point x="601" y="948"/>
      <point x="553" y="948" type="qcurve" name="sv03"/>
      <point x="504" y="948"/>
      <point x="418" y="911"/>
      <point x="353" y="846"/>
      <point x="316" y="760"/>
      <point x="316" y="711" type="qcurve" name="dh03"/>
    </contour>
  </outline>
</glyph>
<glyph name="h" format="2">
  <advance width="1103"/>
  <unicode hex="0068"/>
  <outline>
    <contour>
      <point x="790" y="711" type="line"/>
      <point x="790" y="760"/>
      <point x="753" y="846"/>
      <point x="688" y="911"/>
      <point x="602" y="948"/>
      <point x="553" y="948" type="qcurve" name="sv01"/>
      <point x="505" y="948"/>
      <point x="418" y="912"/>
      <point x="354" y="850"/>
      <point x="316" y="767"/>
      <point x="316" y="721" type="qcurve"/>
      <point x="316" y="0" type="line" name="dh02"/>
      <point x="158" y="0" type="line" name="dh01"/>
      <point x="158" y="1422" type="line" name="at02"/>
      <point x="316" y="1422" type="line" name="sh01"/>
      <point x="316" y="1006" type="line" name="mv01"/>
      <point x="341" y="1025"/>
      <point x="396" y="1061"/>
      <point x="456" y="1089"/>
      <point x="520" y="1106"/>
      <point x="553" y="1106" type="qcurve" name="at01"/>
      <point x="635" y="1106"/>
      <point x="779" y="1044" name="mv02"/>
      <point x="886" y="937"/>
      <point x="948" y="793"/>
      <point x="948" y="711" type="qcurve"/>
      <point x="948" y="0" type="line" name="dh03"/>
      <point x="790" y="0" type="line" name="dh04"/>
    </contour>
  </outline>
</glyph>
<glyph name="j" format="2">
  <advance width="1103"/>
  <unicode hex="006A"/>
  <outline>
    <contour>
      <point x="158" y="-158" type="line" name="ah01"/>
      <point x="395" y="-158" type="line"/>
      <point x="632" y="-158"/>
      <point x="632" y="79" type="qcurve" name="dh01"/>
      <point x="632" y="948" type="line"/>
      <point x="474" y="948" type="line" name="sh01"/>
      <point x="474" y="1106" type="line" name="sv01"/>
      <point x="790" y="1106" type="line"/>
      <point x="790" y="0" type="line" name="dh02"/>
      <point x="790" y="-59"/>
      <point x="736" y="-173"/>
      <point x="647" y="-262" name="mv01"/>
      <point x="533" y="-316"/>
      <point x="474" y="-316" type="qcurve"/>
      <point x="158" y="-316" type="line" name="av01"/>
    </contour>
    <contour>
      <point x="632" y="1422" type="line" name="at01"/>
      <point x="790" y="1422" type="line"/>
      <point x="790" y="1264" type="line" name="sh02"/>
      <point x="632" y="1264" type="line" name="sh03"/>
    </contour>
  </outline>
</glyph>
<glyph name="k" format="2">
  <advance width="1103"/>
  <unicode hex="006B"/>
  <outline>
    <contour>
      <point x="316" y="632" type="line"/>
      <point x="354" y="632" type="line" name="mh01"/>
      <point x="754" y="1106" type="line" name="dh03"/>
      <point x="948" y="1106" type="line" name="dh04"/>
      <point x="495" y="553" type="line"/>
      <point x="948" y="0" type="line" name="dh05"/>
      <point x="754" y="0" type="line" name="dh06"/>
      <point x="354" y="474" type="line" name="mh02"/>
      <point x="316" y="474" type="line" name="mv01"/>
      <point x="316" y="0" type="line" name="sh01"/>
      <point x="158" y="0" type="line" name="sh02"/>
      <point x="158" y="1422" type="line" name="dh01"/>
      <point x="316" y="1422" type="line" name="dh02"/>
    </contour>
  </outline>
</glyph>
<glyph name="l" format="2">
  <advance width="1103"/>
  <unicode hex="006C"/>
  <outline>
    <contour>
      <point x="474" y="1264" type="line"/>
      <point x="316" y="1264" type="line" name="sh01"/>
      <point x="316" y="1422" type="line" name="at01"/>
      <point x="632" y="1422" type="line"/>
      <point x="632" y="0" type="line" name="dh02"/>
      <point x="474" y="0" type="line" name="dh01"/>
    </contour>
  </outline>
</glyph>
<glyph name="m" format="2">
  <advance width="1103"/>
  <unicode hex="006D"/>
  <outline>
    <contour>
      <point x="158" y="1106" type="line"/>
      <point x="316" y="1106" type="line"/>
      <point x="316" y="1067" type="line"/>
      <point x="366" y="1106"/>
      <point x="434" y="1106" type="qcurve" name="at02"/>
      <point x="475" y="1106"/>
      <point x="533" y="1061"/>
      <point x="553" y="1027" type="qcurve" name="mv01"/>
      <point x="580" y="1063"/>
      <point x="661" y="1106"/>
      <point x="711" y="1106" type="qcurve" name="at01"/>
      <point x="752" y="1106"/>
      <point x="836" y="1075" name="mv02"/>
      <point x="905" y="1022"/>
      <point x="948" y="950"/>
      <point x="948" y="909" type="qcurve"/>
      <point x="948" y="0" type="line" name="ah02"/>
      <point x="790" y="0" type="line" name="sh01"/>
      <point x="790" y="869" type="line"/>
      <point x="790" y="948"/>
      <point x="711" y="948" type="qcurve" name="sv01"/>
      <point x="632" y="948"/>
      <point x="632" y="876" type="qcurve"/>
      <point x="632" y="0" type="line" name="dh02"/>
      <point x="474" y="0" type="line" name="dh01"/>
      <point x="474" y="876" type="line"/>
      <point x="469" y="948"/>
      <point x="395" y="948" type="qcurve" name="sv02"/>
      <point x="316" y="948"/>
      <point x="316" y="876" type="qcurve"/>
      <point x="316" y="0" type="line" name="sh02"/>
      <point x="158" y="0" type="line" name="ah01"/>
    </contour>
  </outline>
</glyph>
<glyph name="o" format="2">
  <advance width="1103"/>
  <unicode hex="006F"/>
  <outline>
    <contour>
      <point x="158" y="711" type="line" name="dh02"/>
      <point x="158" y="793"/>
      <point x="220" y="937"/>
      <point x="327" y="1044"/>
      <point x="471" y="1106"/>
      <point x="553" y="1106" type="qcurve" name="at01"/>
      <point x="635" y="1106"/>
      <point x="779" y="1044"/>
      <point x="886" y="937"/>
      <point x="948" y="793"/>
      <point x="948" y="711" type="qcurve" name="dh04"/>
      <point x="948" y="395" type="line"/>
      <point x="948" y="313"/>
      <point x="886" y="169"/>
      <point x="779" y="62"/>
      <point x="635" y="0"/>
      <point x="553" y="0" type="qcurve" name="ab01"/>
      <point x="471" y="0"/>
      <point x="327" y="62"/>
      <point x="220" y="169"/>
      <point x="158" y="313"/>
      <point x="158" y="395" type="qcurve"/>
    </contour>
    <contour>
      <point x="316" y="395" type="line"/>
      <point x="316" y="346"/>
      <point x="353" y="260"/>
      <point x="418" y="195"/>
      <point x="504" y="158"/>
      <point x="553" y="158" type="qcurve" name="sv01"/>
      <point x="602" y="158"/>
      <point x="688" y="195"/>
      <point x="753" y="260"/>
      <point x="790" y="346"/>
      <point x="790" y="395" type="qcurve"/>
      <point x="790" y="711" type="line" name="dh03"/>
      <point x="790" y="760"/>
      <point x="753" y="846"/>
      <point x="688" y="911"/>
      <point x="602" y="948"/>
      <point x="553" y="948" type="qcurve" name="sv02"/>
      <point x="504" y="948"/>
      <point x="418" y="911"/>
      <point x="353" y="846"/>
      <point x="316" y="760"/>
      <point x="316" y="711" type="qcurve" name="dh01"/>
    </contour>
  </outline>
</glyph>
<glyph name="p" format="2">
  <advance width="1103"/>
  <unicode hex="0070"/>
  <outline>
    <contour>
      <point x="158" y="1106" type="line" name="dh04"/>
      <point x="316" y="1106" type="line"/>
      <point x="316" y="1006" type="line"/>
      <point x="341" y="1025"/>
      <point x="396" y="1061"/>
      <point x="456" y="1089"/>
      <point x="520" y="1106"/>
      <point x="553" y="1106" type="qcurve" name="at01"/>
      <point x="635" y="1106"/>
      <point x="779" y="1044"/>
      <point x="886" y="937"/>
      <point x="948" y="793"/>
      <point x="948" y="711" type="qcurve" name="dh02"/>
      <point x="948" y="395" type="line"/>
      <point x="948" y="313"/>
      <point x="886" y="169"/>
      <point x="779" y="62"/>
      <point x="635" y="0"/>
      <point x="553" y="0" type="qcurve" name="dv01"/>
      <point x="520" y="0"/>
      <point x="456" y="17"/>
      <point x="396" y="45"/>
      <point x="341" y="81"/>
      <point x="316" y="99" type="qcurve"/>
      <point x="316" y="-474" type="line" name="dh06"/>
      <point x="158" y="-474" type="line" name="dh05"/>
    </contour>
    <contour>
      <point x="553" y="948" type="qcurve" name="sv01"/>
      <point x="505" y="948"/>
      <point x="419" y="918"/>
      <point x="354" y="859"/>
      <point x="316" y="770"/>
      <point x="316" y="711" type="qcurve"/>
      <point x="316" y="395" type="line" name="dh03"/>
      <point x="316" y="336"/>
      <point x="354" y="247"/>
      <point x="419" y="188"/>
      <point x="505" y="158"/>
      <point x="553" y="158" type="qcurve" name="dv02"/>
      <point x="602" y="158"/>
      <point x="688" y="195"/>
      <point x="753" y="260"/>
      <point x="790" y="346"/>
      <point x="790" y="395" type="qcurve"/>
      <point x="790" y="711" type="line" name="dh01"/>
      <point x="790" y="760"/>
      <point x="753" y="846"/>
      <point x="688" y="911"/>
      <point x="602" y="948"/>
    </contour>
  </outline>
</glyph>
<glyph name="r" format="2">
  <advance width="1103"/>
  <unicode hex="0072"/>
  <outline>
    <contour>
      <point x="158" y="0" type="line" name="ab01"/>
      <point x="158" y="1106" type="line" name="dh01"/>
      <point x="316" y="1106" type="line"/>
      <point x="316" y="946" type="line"/>
      <point x="333" y="977"/>
      <point x="411" y="1034" name="mv01"/>
      <point x="504" y="1079"/>
      <point x="599" y="1106"/>
      <point x="632" y="1106" type="qcurve" name="at01"/>
      <point x="704" y="1106"/>
      <point x="807" y="1058"/>
      <point x="880" y="973" name="fv01"/>
      <point x="926" y="857"/>
      <point x="940" y="790" type="qcurve" name="dh04"/>
      <point x="776" y="790" type="line" name="dh03"/>
      <point x="761" y="835"/>
      <point x="733" y="896"/>
      <point x="701" y="932"/>
      <point x="660" y="948"/>
      <point x="632" y="948" type="qcurve" name="sv01"/>
      <point x="600" y="948"/>
      <point x="528" y="923"/>
      <point x="458" y="878"/>
      <point x="394" y="817"/>
      <point x="345" y="747"/>
      <point x="316" y="670"/>
      <point x="316" y="631" type="qcurve" name="dh02"/>
      <point x="316" y="0" type="line"/>
    </contour>
  </outline>
</glyph>
<glyph name="s" format="2">
  <advance width="1103"/>
  <unicode hex="0073"/>
  <outline>
    <contour>
      <point x="948" y="1106" type="line" name="at01"/>
      <point x="948" y="948" type="line" name="sh01"/>
      <point x="553" y="948" type="line"/>
      <point x="494" y="948"/>
      <point x="405" y="921"/>
      <point x="346" y="876"/>
      <point x="316" y="820"/>
      <point x="316" y="790" type="qcurve" name="dh03"/>
      <point x="316" y="760"/>
      <point x="323" y="704"/>
      <point x="368" y="659"/>
      <point x="464" y="632"/>
      <point x="553" y="632" type="qcurve" name="dv02"/>
      <point x="642" y="632"/>
      <point x="788" y="600"/>
      <point x="891" y="527"/>
      <point x="948" y="406"/>
      <point x="948" y="318" type="qcurve" name="dh01"/>
      <point x="948" y="258"/>
      <point x="891" y="144"/>
      <point x="788" y="54"/>
      <point x="642" y="0"/>
      <point x="553" y="0" type="qcurve"/>
      <point x="158" y="0" type="line" name="ab01"/>
      <point x="158" y="158" type="line" name="sh02"/>
      <point x="553" y="158" type="line"/>
      <point x="612" y="158"/>
      <point x="701" y="185"/>
      <point x="760" y="230"/>
      <point x="790" y="288"/>
      <point x="790" y="318" type="qcurve" name="dh02"/>
      <point x="790" y="347"/>
      <point x="783" y="403"/>
      <point x="738" y="447"/>
      <point x="642" y="474"/>
      <point x="553" y="474" type="qcurve" name="dv01"/>
      <point x="464" y="474"/>
      <point x="318" y="506"/>
      <point x="215" y="581" name="mv01"/>
      <point x="158" y="701"/>
      <point x="158" y="790" type="qcurve" name="dh04"/>
      <point x="158" y="849"/>
      <point x="215" y="963"/>
      <point x="318" y="1052"/>
      <point x="464" y="1106"/>
      <point x="553" y="1106" type="qcurve"/>
    </contour>
  </outline>
</glyph>
<glyph name="t" format="2">
  <advance width="1103"/>
  <unicode hex="0074"/>
  <outline>
    <contour>
      <point x="158" y="1106" type="line" name="at01"/>
      <point x="316" y="1106" type="line"/>
      <point x="316" y="1422" type="line" name="dh01"/>
      <point x="474" y="1422" type="line" name="dh02"/>
      <point x="474" y="1106" type="line" name="sv01"/>
      <point x="790" y="1106" type="line"/>
      <point x="790" y="948" type="line" name="ah02"/>
      <point x="474" y="948" type="line" name="sh01"/>
      <point x="474" y="395" type="line"/>
      <point x="474" y="346"/>
      <point x="511" y="260"/>
      <point x="576" y="195"/>
      <point x="662" y="158"/>
      <point x="711" y="158" type="qcurve"/>
      <point x="948" y="158" type="line" name="sv02"/>
      <point x="948" y="0" type="line" name="ah01"/>
      <point x="711" y="0" type="line"/>
      <point x="629" y="0"/>
      <point x="485" y="62"/>
      <point x="378" y="169"/>
      <point x="316" y="313"/>
      <point x="316" y="395" type="qcurve"/>
      <point x="316" y="948" type="line" name="sh02"/>
      <point x="158" y="948" type="line" name="ah03"/>
    </contour>
  </outline>
</glyph>
<glyph name="u" format="2">
  <advance width="1103"/>
  <unicode hex="0075"/>
  <outline>
    <contour>
      <point x="316" y="395" type="line"/>
      <point x="316" y="346"/>
      <point x="353" y="260"/>
      <point x="418" y="195"/>
      <point x="504" y="158"/>
      <point x="553" y="158" type="qcurve" name="sv01"/>
      <point x="601" y="158"/>
      <point x="687" y="196" name="mv01"/>
      <point x="752" y="261"/>
      <point x="790" y="347"/>
      <point x="790" y="395" type="qcurve"/>
      <point x="790" y="1106" type="line" name="dh04"/>
      <point x="948" y="1106" type="line" name="dh03"/>
      <point x="948" y="0" type="line" name="sv02"/>
      <point x="790" y="0" type="line"/>
      <point x="790" y="99" type="line"/>
      <point x="764" y="81"/>
      <point x="709" y="45" name="mv02"/>
      <point x="650" y="17"/>
      <point x="586" y="0"/>
      <point x="553" y="0" type="qcurve" name="ab01"/>
      <point x="471" y="0"/>
      <point x="327" y="62"/>
      <point x="220" y="169"/>
      <point x="158" y="313"/>
      <point x="158" y="395" type="qcurve"/>
      <point x="158" y="1106" type="line" name="dh01"/>
      <point x="316" y="1106" type="line" name="dh02"/>
    </contour>
  </outline>
</glyph>
<glyph name="v" format="2">
  <advance width="1103"/>
  <unicode hex="0076"/>
  <outline>
    <contour>
      <point x="948" y="1106" type="line" name="dh04"/>
      <point x="632" y="0" type="line" name="ih03"/>
      <point x="474" y="0" type="line" name="ih02"/>
      <point x="158" y="1106" type="line" name="dh02"/>
      <point x="316" y="1106" type="line" name="dh01"/>
      <point x="553" y="237" type="line" name="ih01"/>
      <point x="790" y="1106" type="line" name="dh03"/>
    </contour>
  </outline>
</glyph>
<glyph name="w" format="2">
  <advance width="1103"/>
  <unicode hex="0077"/>
  <outline>
    <contour>
      <point x="553" y="79" type="qcurve"/>
      <point x="526" y="43" name="mv01"/>
      <point x="445" y="0"/>
      <point x="395" y="0" type="qcurve" name="ab01"/>
      <point x="354" y="0"/>
      <point x="270" y="31"/>
      <point x="201" y="84" name="mv02"/>
      <point x="158" y="156"/>
      <point x="158" y="197" type="qcurve"/>
      <point x="158" y="1106" type="line" name="ah01"/>
      <point x="316" y="1106" type="line" name="sh01"/>
      <point x="316" y="237" type="line"/>
      <point x="316" y="158"/>
      <point x="395" y="158" type="qcurve" name="sv01"/>
      <point x="474" y="158"/>
      <point x="474" y="230" type="qcurve"/>
      <point x="474" y="790" type="line" name="dh01"/>
      <point x="632" y="790" type="line" name="dh02"/>
      <point x="632" y="230" type="line"/>
      <point x="632" y="158"/>
      <point x="711" y="158" type="qcurve" name="sv02"/>
      <point x="790" y="158"/>
      <point x="790" y="237" type="qcurve"/>
      <point x="790" y="1106" type="line" name="sh02"/>
      <point x="948" y="1106" type="line" name="ah02"/>
      <point x="948" y="197" type="line"/>
      <point x="948" y="156"/>
      <point x="905" y="84" name="mh01"/>
      <point x="836" y="31"/>
      <point x="752" y="0"/>
      <point x="711" y="0" type="qcurve" name="sv03"/>
      <point x="661" y="0"/>
      <point x="580" y="43"/>
    </contour>
  </outline>
</glyph>
<glyph name="x" format="2">
  <advance width="1103"/>
  <unicode hex="0078"/>
  <outline>
    <contour>
      <point x="553" y="706" type="line" name="ih01"/>
      <point x="777" y="1106" type="line" name="dh02"/>
      <point x="950" y="1106" type="line" name="sh01"/>
      <point x="639" y="553" type="line" name="dh04"/>
      <point x="950" y="0" type="line" name="sh02"/>
      <point x="777" y="0" type="line" name="sh03"/>
      <point x="553" y="398" type="line" name="sh04"/>
      <point x="328" y="0" type="line" name="sh05"/>
      <point x="155" y="0" type="line" name="sh07"/>
      <point x="466" y="553" type="line" name="dh03"/>
      <point x="155" y="1106" type="line" name="sh06"/>
      <point x="328" y="1106" type="line" name="dh01"/>
    </contour>
  </outline>
</glyph>
<glyph name="y" format="2">
  <advance width="1103"/>
  <unicode hex="0079"/>
  <outline>
    <contour>
      <point x="316" y="395" type="line"/>
      <point x="316" y="342"/>
      <point x="357" y="256"/>
      <point x="425" y="195"/>
      <point x="513" y="161"/>
      <point x="559" y="161" type="qcurve" name="sv01"/>
      <point x="607" y="161"/>
      <point x="691" y="197"/>
      <point x="754" y="260"/>
      <point x="790" y="345"/>
      <point x="790" y="395" type="qcurve"/>
      <point x="790" y="1106" type="line" name="dh04"/>
      <point x="948" y="1106" type="line" name="dh03"/>
      <point x="948" y="-79" type="line"/>
      <point x="948" y="-161"/>
      <point x="886" y="-305"/>
      <point x="779" y="-412"/>
      <point x="635" y="-474"/>
      <point x="553" y="-474" type="qcurve"/>
      <point x="316" y="-474" type="line" name="ab02"/>
      <point x="316" y="-316" type="line" name="sh01"/>
      <point x="553" y="-316" type="line"/>
      <point x="602" y="-316"/>
      <point x="688" y="-279"/>
      <point x="753" y="-214"/>
      <point x="790" y="-128"/>
      <point x="790" y="-79" type="qcurve" name="sh02"/>
      <point x="790" y="99" type="line"/>
      <point x="764" y="81"/>
      <point x="709" y="45"/>
      <point x="650" y="17"/>
      <point x="586" y="0"/>
      <point x="553" y="0" type="qcurve" name="ab01"/>
      <point x="471" y="0"/>
      <point x="327" y="62"/>
      <point x="220" y="169"/>
      <point x="158" y="313"/>
      <point x="158" y="395" type="qcurve"/>
      <point x="158" y="1106" type="line" name="dh01"/>
      <point x="316" y="1106" type="line" name="dh02"/>
    </contour>
  </outline>
</glyph>
<glyph name="z" format="2">
  <advance width="1103"/>
  <unicode hex="007A"/>
  <outline>
    <contour>
      <point x="760" y="948" type="line" name="fh01"/>
      <point x="158" y="948" type="line" name="sv01"/>
      <point x="158" y="1106" type="line" name="ah01"/>
      <point x="948" y="1106" type="line" name="sh01"/>
      <point x="948" y="948" type="line" name="fv01"/>
      <point x="345" y="158" type="line" name="mh01"/>
      <point x="948" y="158" type="line" name="sv02"/>
      <point x="948" y="0" type="line" name="ah02"/>
      <point x="158" y="0" type="line" name="sh02"/>
      <point x="158" y="158" type="line"/>
    </contour>
  </outline>
</glyph>
<glyph name="braceleft" format="2">
  <advance width="1103"/>
  <unicode hex="007B"/>
  <outline>
    <contour>
      <point x="516" y="732" type="qcurve"/>
      <point x="516" y="711"/>
      <point x="531" y="675"/>
      <point x="557" y="648"/>
      <point x="593" y="632"/>
      <point x="613" y="632" type="qcurve"/>
      <point x="632" y="632"/>
      <point x="632" y="592" type="qcurve"/>
      <point x="632" y="563"/>
      <point x="614" y="473"/>
      <point x="586" y="365"/>
      <point x="551" y="247"/>
      <point x="516" y="135"/>
      <point x="484" y="35"/>
      <point x="474" y="0" type="qcurve" name="dh04"/>
      <point x="474" y="-30"/>
      <point x="526" y="-86"/>
      <point x="600" y="-131"/>
      <point x="681" y="-158"/>
      <point x="711" y="-158" type="qcurve"/>
      <point x="948" y="-158" type="line" name="sh01"/>
      <point x="948" y="-316" type="line" name="dv01"/>
      <point x="711" y="-316" type="line"/>
      <point x="622" y="-316"/>
      <point x="476" y="-262"/>
      <point x="373" y="-173"/>
      <point x="316" y="-59"/>
      <point x="316" y="0" type="qcurve" name="dh03"/>
      <point x="318" y="38"/>
      <point x="340" y="132"/>
      <point x="369" y="235"/>
      <point x="401" y="341"/>
      <point x="428" y="440"/>
      <point x="446" y="527"/>
      <point x="446" y="560" type="qcurve"/>
      <point x="446" y="593"/>
      <point x="423" y="632"/>
      <point x="395" y="632" type="qcurve"/>
      <point x="158" y="632" type="line" name="sv01"/>
      <point x="158" y="790" type="line" name="ah02"/>
      <point x="395" y="790" type="line"/>
      <point x="414" y="790"/>
      <point x="436" y="796"/>
      <point x="447" y="805"/>
      <point x="449" y="815"/>
      <point x="449" y="820" type="qcurve"/>
      <point x="449" y="853"/>
      <point x="429" y="916"/>
      <point x="400" y="980"/>
      <point x="365" y="1048"/>
      <point x="336" y="1124"/>
      <point x="316" y="1212"/>
      <point x="316" y="1264" type="qcurve" name="dh02"/>
      <point x="316" y="1323"/>
      <point x="373" y="1437"/>
      <point x="476" y="1526"/>
      <point x="622" y="1580"/>
      <point x="711" y="1580" type="qcurve"/>
      <point x="948" y="1580" type="line" name="dv02"/>
      <point x="948" y="1422" type="line" name="ah01"/>
      <point x="711" y="1422" type="line"/>
      <point x="652" y="1422"/>
      <point x="563" y="1395"/>
      <point x="504" y="1350"/>
      <point x="474" y="1294"/>
      <point x="474" y="1264" type="qcurve" name="dh01"/>
      <point x="474" y="1211"/>
      <point x="518" y="1102"/>
      <point x="571" y="994"/>
      <point x="615" y="888"/>
      <point x="615" y="837" type="qcurve"/>
      <point x="615" y="832"/>
      <point x="613" y="832" type="qcurve"/>
      <point x="593" y="832"/>
      <point x="557" y="816"/>
      <point x="531" y="789"/>
      <point x="516" y="753"/>
    </contour>
  </outline>
</glyph>
<glyph name="bar" format="2">
  <advance width="1103"/>
  <unicode hex="007C"/>
  <outline>
    <contour>
      <point x="474" y="1580" type="line" name="dh02"/>
      <point x="632" y="1580" type="line" name="dh01"/>
      <point x="632" y="-316" type="line"/>
      <point x="474" y="-316" type="line" name="av01"/>
    </contour>
  </outline>
</glyph>
<glyph name="braceright" format="2">
  <advance width="1103"/>
  <unicode hex="007D"/>
  <outline>
    <contour>
      <point x="590" y="732" type="qcurve"/>
      <point x="590" y="753"/>
      <point x="575" y="789"/>
      <point x="549" y="816"/>
      <point x="513" y="832"/>
      <point x="493" y="832" type="qcurve"/>
      <point x="491" y="832"/>
      <point x="491" y="837" type="qcurve"/>
      <point x="491" y="865"/>
      <point x="511" y="935"/>
      <point x="540" y="1010"/>
      <point x="576" y="1089"/>
      <point x="607" y="1165"/>
      <point x="630" y="1235"/>
      <point x="632" y="1264" type="qcurve" name="dh01"/>
      <point x="632" y="1294"/>
      <point x="602" y="1350"/>
      <point x="543" y="1395"/>
      <point x="454" y="1422"/>
      <point x="395" y="1422" type="qcurve"/>
      <point x="158" y="1422" type="line" name="ah02"/>
      <point x="158" y="1580" type="line" name="dv01"/>
      <point x="395" y="1580" type="line"/>
      <point x="484" y="1580"/>
      <point x="630" y="1526"/>
      <point x="733" y="1437"/>
      <point x="790" y="1323"/>
      <point x="790" y="1264" type="qcurve" name="dh02"/>
      <point x="790" y="1212"/>
      <point x="770" y="1124"/>
      <point x="741" y="1048"/>
      <point x="706" y="980"/>
      <point x="677" y="916"/>
      <point x="657" y="853"/>
      <point x="657" y="820" type="qcurve"/>
      <point x="657" y="809"/>
      <point x="667" y="797"/>
      <point x="682" y="791"/>
      <point x="699" y="790"/>
      <point x="707" y="790" type="qcurve"/>
      <point x="948" y="790" type="line" name="at01"/>
      <point x="948" y="632" type="line" name="ah01"/>
      <point x="711" y="632" type="line"/>
      <point x="684" y="632"/>
      <point x="661" y="593"/>
      <point x="661" y="559" type="qcurve"/>
      <point x="661" y="524"/>
      <point x="680" y="432"/>
      <point x="709" y="329"/>
      <point x="742" y="222"/>
      <point x="771" y="122"/>
      <point x="790" y="35"/>
      <point x="790" y="5" type="qcurve" name="dh04"/>
      <point x="790" y="0" type="line"/>
      <point x="790" y="-59"/>
      <point x="733" y="-173"/>
      <point x="630" y="-262"/>
      <point x="484" y="-316"/>
      <point x="395" y="-316" type="qcurve"/>
      <point x="158" y="-316" type="line" name="dv02"/>
      <point x="158" y="-158" type="line" name="sh01"/>
      <point x="395" y="-158" type="line"/>
      <point x="425" y="-158"/>
      <point x="506" y="-131"/>
      <point x="580" y="-86"/>
      <point x="632" y="-30"/>
      <point x="632" y="0" type="qcurve" name="dh03"/>
      <point x="620" y="39"/>
      <point x="587" y="143"/>
      <point x="552" y="256"/>
      <point x="518" y="372"/>
      <point x="491" y="477"/>
      <point x="475" y="565"/>
      <point x="475" y="593" type="qcurve"/>
      <point x="475" y="632"/>
      <point x="493" y="632" type="qcurve"/>
      <point x="513" y="632"/>
      <point x="549" y="648"/>
      <point x="575" y="675"/>
      <point x="590" y="711"/>
    </contour>
  </outline>
</glyph>
<glyph name="asciitilde" format="2">
  <advance width="1103"/>
  <unicode hex="007E"/>
  <outline>
    <contour>
      <point x="948" y="948" type="line" name="dh03"/>
      <point x="948" y="908"/>
      <point x="946" y="808"/>
      <point x="933" y="702"/>
      <point x="904" y="601"/>
      <point x="851" y="522"/>
      <point x="770" y="474"/>
      <point x="711" y="474" type="qcurve" name="at01"/>
      <point x="670" y="474"/>
      <point x="602" y="521"/>
      <point x="545" y="591"/>
      <point x="497" y="673"/>
      <point x="454" y="743"/>
      <point x="415" y="790"/>
      <point x="395" y="790" type="qcurve" name="sv01"/>
      <point x="375" y="790"/>
      <point x="348" y="749"/>
      <point x="331" y="687"/>
      <point x="321" y="611"/>
      <point x="317" y="541"/>
      <point x="316" y="485" name="dh01"/>
      <point x="316" y="474" type="qcurve" name="sv02"/>
      <point x="158" y="474" type="line" name="dh02"/>
      <point x="158" y="513"/>
      <point x="160" y="614"/>
      <point x="173" y="720"/>
      <point x="202" y="821"/>
      <point x="255" y="900"/>
      <point x="336" y="948"/>
      <point x="395" y="948" type="qcurve" name="av01"/>
      <point x="435" y="948"/>
      <point x="503" y="901"/>
      <point x="560" y="831"/>
      <point x="608" y="749"/>
      <point x="652" y="679"/>
      <point x="691" y="632"/>
      <point x="711" y="632" type="qcurve" name="sv03"/>
      <point x="731" y="632"/>
      <point x="758" y="668"/>
      <point x="775" y="724"/>
      <point x="785" y="793"/>
      <point x="789" y="860"/>
      <point x="790" y="918"/>
      <point x="790" y="934" type="qcurve"/>
      <point x="790" y="948" type="line" name="dh04"/>
    </contour>
  </outline>
</glyph>
<glyph name="exclamdown" format="2">
  <advance width="1103"/>
  <unicode hex="00A1"/>
  <outline>
    <contour>
      <point x="474" y="948" type="line" name="dh01"/>
      <point x="632" y="948" type="line" name="dh02"/>
      <point x="632" y="0" type="line" name="ab01"/>
      <point x="474" y="0" type="line"/>
    </contour>
    <contour>
      <point x="474" y="1422" type="line"/>
      <point x="632" y="1422" type="line" name="at01"/>
      <point x="632" y="1106" type="line" name="sh01"/>
      <point x="474" y="1106" type="line" name="sh02"/>
    </contour>
  </outline>
</glyph>
<glyph name="cent" format="2">
  <advance width="1103"/>
  <unicode hex="00A2"/>
  <outline>
    <contour>
      <point x="474" y="4" type="line" name="ab01"/>
      <point x="406" y="18"/>
      <point x="290" y="90"/>
      <point x="206" y="193"/>
      <point x="158" y="323"/>
      <point x="158" y="395" type="qcurve"/>
      <point x="158" y="711" type="line"/>
      <point x="158" y="783"/>
      <point x="206" y="913"/>
      <point x="290" y="1016"/>
      <point x="406" y="1088"/>
      <point x="474" y="1102" type="qcurve" name="at01"/>
      <point x="474" y="1264" type="line" name="sv01"/>
      <point x="632" y="1264" type="line"/>
      <point x="632" y="1102" type="line" name="sv02"/>
      <point x="690" y="1090"/>
      <point x="792" y="1033"/>
      <point x="872" y="951"/>
      <point x="928" y="848"/>
      <point x="940" y="790" type="qcurve"/>
      <point x="776" y="790" type="line" name="sv04"/>
      <point x="758" y="841"/>
      <point x="683" y="918"/>
      <point x="632" y="937" type="qcurve" name="sv05"/>
      <point x="632" y="168" type="line" name="sv07"/>
      <point x="683" y="187"/>
      <point x="758" y="265"/>
      <point x="776" y="316" type="qcurve" name="sv08"/>
      <point x="940" y="316" type="line"/>
      <point x="928" y="257"/>
      <point x="872" y="154"/>
      <point x="792" y="72"/>
      <point x="690" y="16"/>
      <point x="632" y="4" type="qcurve" name="sv09"/>
      <point x="632" y="-158" type="line"/>
      <point x="474" y="-158" type="line" name="sv10"/>
    </contour>
    <contour>
      <point x="316" y="395" type="line"/>
      <point x="316" y="356"/>
      <point x="339" y="285"/>
      <point x="381" y="225"/>
      <point x="439" y="180"/>
      <point x="474" y="168" type="qcurve" name="sv06"/>
      <point x="474" y="938" type="line" name="sv03"/>
      <point x="439" y="925"/>
      <point x="381" y="880"/>
      <point x="339" y="821"/>
      <point x="316" y="750"/>
      <point x="316" y="711" type="qcurve"/>
    </contour>
  </outline>
</glyph>
<glyph name="sterling" format="2">
  <advance width="1103"/>
  <unicode hex="00A3"/>
  <outline>
    <contour>
      <point x="632" y="1422" type="qcurve" name="at01"/>
      <point x="691" y="1422"/>
      <point x="805" y="1368"/>
      <point x="894" y="1279"/>
      <point x="948" y="1165"/>
      <point x="948" y="1106" type="qcurve" name="dh04"/>
      <point x="790" y="1106" type="line" name="dh03"/>
      <point x="790" y="1136"/>
      <point x="763" y="1192"/>
      <point x="718" y="1237"/>
      <point x="661" y="1264"/>
      <point x="632" y="1264" type="qcurve" name="sv01"/>
      <point x="602" y="1264"/>
      <point x="546" y="1237"/>
      <point x="501" y="1192"/>
      <point x="474" y="1136"/>
      <point x="474" y="1106" type="qcurve"/>
      <point x="474" y="790" type="line" name="dh02"/>
      <point x="790" y="790" type="line" name="sh01"/>
      <point x="790" y="632" type="line"/>
      <point x="474" y="632" type="line" name="sh02"/>
      <point x="474" y="158" type="line" name="sv02"/>
      <point x="948" y="158" type="line" name="sh03"/>
      <point x="948" y="0" type="line"/>
      <point x="158" y="0" type="line" name="ab01"/>
      <point x="158" y="158" type="line" name="sh06"/>
      <point x="316" y="158" type="line"/>
      <point x="316" y="632" type="line" name="sh04"/>
      <point x="158" y="632" type="line" name="sh05"/>
      <point x="158" y="790" type="line"/>
      <point x="316" y="790" type="line" name="dh01"/>
      <point x="316" y="1106" type="line"/>
      <point x="316" y="1165"/>
      <point x="370" y="1279"/>
      <point x="459" y="1368"/>
      <point x="573" y="1422"/>
    </contour>
  </outline>
</glyph>
<glyph name="currency" format="2">
  <advance width="1103"/>
  <unicode hex="00A4"/>
  <outline>
    <contour>
      <point x="1028" y="928" type="line"/>
      <point x="877" y="777" type="line"/>
      <point x="910" y="729"/>
      <point x="948" y="616"/>
      <point x="948" y="553" type="qcurve" name="dh04"/>
      <point x="948" y="490"/>
      <point x="910" y="376"/>
      <point x="877" y="328" type="qcurve"/>
      <point x="1028" y="178" type="line"/>
      <point x="928" y="78" type="line"/>
      <point x="777" y="228" type="line"/>
      <point x="729" y="195"/>
      <point x="616" y="158"/>
      <point x="553" y="158" type="qcurve" name="dv04"/>
      <point x="490" y="158"/>
      <point x="376" y="195"/>
      <point x="328" y="228" type="qcurve"/>
      <point x="178" y="78" type="line"/>
      <point x="78" y="178" type="line"/>
      <point x="228" y="328" type="line"/>
      <point x="195" y="376"/>
      <point x="158" y="490"/>
      <point x="158" y="553" type="qcurve" name="dh02"/>
      <point x="158" y="616"/>
      <point x="195" y="729"/>
      <point x="228" y="777" type="qcurve"/>
      <point x="78" y="928" type="line"/>
      <point x="178" y="1028" type="line"/>
      <point x="328" y="877" type="line"/>
      <point x="376" y="910"/>
      <point x="490" y="948"/>
      <point x="553" y="948" type="qcurve" name="dv02"/>
      <point x="616" y="948"/>
      <point x="729" y="910"/>
      <point x="777" y="877" type="qcurve"/>
      <point x="928" y="1028" type="line"/>
    </contour>
    <contour>
      <point x="316" y="553" type="qcurve" name="dh01"/>
      <point x="316" y="504"/>
      <point x="353" y="418"/>
      <point x="418" y="353"/>
      <point x="504" y="316"/>
      <point x="553" y="316" type="qcurve" name="dv03"/>
      <point x="602" y="316"/>
      <point x="688" y="353"/>
      <point x="753" y="418"/>
      <point x="790" y="504"/>
      <point x="790" y="553" type="qcurve" name="dh03"/>
      <point x="790" y="602"/>
      <point x="753" y="688"/>
      <point x="688" y="753"/>
      <point x="602" y="790"/>
      <point x="553" y="790" type="qcurve" name="dv01"/>
      <point x="504" y="790"/>
      <point x="418" y="753"/>
      <point x="353" y="688"/>
      <point x="316" y="602"/>
    </contour>
  </outline>
</glyph>
<glyph name="brokenbar" format="2">
  <advance width="1103"/>
  <unicode hex="00A6"/>
  <outline>
    <contour>
      <point x="474" y="474" type="line" name="sh01"/>
      <point x="632" y="474" type="line" name="sh02"/>
      <point x="632" y="-316" type="line"/>
      <point x="474" y="-316" type="line" name="av01"/>
    </contour>
    <contour>
      <point x="474" y="1580" type="line" name="dh01"/>
      <point x="632" y="1580" type="line" name="dh02"/>
      <point x="632" y="790" type="line"/>
      <point x="474" y="790" type="line" name="av02"/>
    </contour>
  </outline>
</glyph>
<glyph name="section" format="2">
  <advance width="1103"/>
  <unicode hex="00A7"/>
  <outline>
    <contour>
      <point x="948" y="1422" type="line" name="at01"/>
      <point x="948" y="1264" type="line" name="sh01"/>
      <point x="553" y="1264" type="line"/>
      <point x="494" y="1264"/>
      <point x="405" y="1237"/>
      <point x="346" y="1192"/>
      <point x="316" y="1136"/>
      <point x="316" y="1106" type="qcurve" name="sh03"/>
      <point x="316" y="1076"/>
      <point x="346" y="1020"/>
      <point x="405" y="975"/>
      <point x="494" y="948"/>
      <point x="553" y="948" type="qcurve" name="sv01"/>
      <point x="592" y="948"/>
      <point x="682" y="934"/>
      <point x="770" y="904"/>
      <point x="850" y="855"/>
      <point x="911" y="785"/>
      <point x="948" y="693"/>
      <point x="948" y="634" type="qcurve" name="dh04"/>
      <point x="948" y="568"/>
      <point x="882" y="445"/>
      <point x="819" y="399" type="qcurve"/>
      <point x="847" y="380"/>
      <point x="894" y="332"/>
      <point x="928" y="273"/>
      <point x="948" y="202"/>
      <point x="948" y="160" type="qcurve" name="sh04"/>
      <point x="948" y="100"/>
      <point x="891" y="-14"/>
      <point x="788" y="-104"/>
      <point x="642" y="-158"/>
      <point x="553" y="-158" type="qcurve"/>
      <point x="158" y="-158" type="line" name="sv02"/>
      <point x="158" y="0" type="line" name="sh05"/>
      <point x="553" y="0" type="line"/>
      <point x="612" y="0"/>
      <point x="701" y="27"/>
      <point x="760" y="72"/>
      <point x="790" y="130"/>
      <point x="790" y="160" type="qcurve" name="sh06"/>
      <point x="790" y="189"/>
      <point x="760" y="245"/>
      <point x="701" y="289"/>
      <point x="612" y="316"/>
      <point x="553" y="316" type="qcurve" name="sv03"/>
      <point x="513" y="316"/>
      <point x="424" y="330"/>
      <point x="336" y="361"/>
      <point x="256" y="410"/>
      <point x="195" y="480"/>
      <point x="158" y="573"/>
      <point x="158" y="632" type="qcurve" name="dh02"/>
      <point x="158" y="698"/>
      <point x="225" y="820"/>
      <point x="286" y="865" type="qcurve"/>
      <point x="230" y="903"/>
      <point x="158" y="1020"/>
      <point x="158" y="1106" type="qcurve" name="sh02"/>
      <point x="158" y="1165"/>
      <point x="215" y="1279"/>
      <point x="318" y="1368"/>
      <point x="464" y="1422"/>
      <point x="553" y="1422" type="qcurve"/>
    </contour>
    <contour>
      <point x="316" y="632" type="qcurve" name="dh01"/>
      <point x="316" y="602"/>
      <point x="346" y="546"/>
      <point x="405" y="501"/>
      <point x="494" y="474"/>
      <point x="553" y="474" type="qcurve" name="at03"/>
      <point x="612" y="474"/>
      <point x="701" y="501"/>
      <point x="760" y="546"/>
      <point x="790" y="604"/>
      <point x="790" y="634" type="qcurve" name="dh03"/>
      <point x="790" y="663"/>
      <point x="760" y="719"/>
      <point x="701" y="763"/>
      <point x="612" y="790"/>
      <point x="553" y="790" type="qcurve" name="at02"/>
      <point x="435" y="790"/>
      <point x="316" y="720"/>
    </contour>
  </outline>
</glyph>
<glyph name="dieresis" format="2">
  <advance width="1103"/>
  <unicode hex="00A8"/>
  <outline>
    <contour>
      <point x="316" y="1343" type="qcurve" name="sh01"/>
      <point x="316" y="1376"/>
      <point x="362" y="1422"/>
      <point x="395" y="1422" type="qcurve" name="at01"/>
      <point x="428" y="1422"/>
      <point x="474" y="1376"/>
      <point x="474" y="1343" type="qcurve" name="dh01"/>
      <point x="474" y="1310"/>
      <point x="428" y="1264"/>
      <point x="395" y="1264" type="qcurve" name="sv01"/>
      <point x="362" y="1264"/>
      <point x="316" y="1310"/>
    </contour>
    <contour>
      <point x="632" y="1343" type="qcurve" name="dh02"/>
      <point x="632" y="1376"/>
      <point x="678" y="1422"/>
      <point x="711" y="1422" type="qcurve" name="sv02"/>
      <point x="744" y="1422"/>
      <point x="790" y="1376"/>
      <point x="790" y="1343" type="qcurve" name="sh02"/>
      <point x="790" y="1310"/>
      <point x="744" y="1264"/>
      <point x="711" y="1264" type="qcurve" name="sv03"/>
      <point x="678" y="1264"/>
      <point x="632" y="1310"/>
    </contour>
  </outline>
</glyph>
<glyph name="copyright" format="2">
  <advance width="1103"/>
  <unicode hex="00A9"/>
  <outline>
    <contour>
      <point x="0" y="711" type="qcurve" name="sh02"/>
      <point x="0" y="858"/>
      <point x="81" y="1117"/>
      <point x="227" y="1310"/>
      <point x="430" y="1422"/>
      <point x="553" y="1422" type="qcurve" name="sv02"/>
      <point x="676" y="1422"/>
      <point x="879" y="1310"/>
      <point x="1025" y="1117"/>
      <point x="1106" y="858"/>
      <point x="1106" y="711" type="qcurve" name="sh04"/>
      <point x="1106" y="564"/>
      <point x="1025" y="305"/>
      <point x="879" y="112"/>
      <point x="676" y="0"/>
      <point x="553" y="0" type="qcurve" name="sv04"/>
      <point x="430" y="0"/>
      <point x="227" y="112"/>
      <point x="81" y="305"/>
      <point x="0" y="564"/>
    </contour>
    <contour>
      <point x="158" y="711" type="qcurve" name="sh01"/>
      <point x="158" y="597"/>
      <point x="214" y="395"/>
      <point x="317" y="245"/>
      <point x="463" y="158"/>
      <point x="553" y="158" type="qcurve" name="sv03"/>
      <point x="643" y="158"/>
      <point x="789" y="245"/>
      <point x="892" y="395"/>
      <point x="948" y="597"/>
      <point x="948" y="711" type="qcurve" name="sh03"/>
      <point x="948" y="825"/>
      <point x="892" y="1027"/>
      <point x="789" y="1177"/>
      <point x="643" y="1264"/>
      <point x="553" y="1264" type="qcurve" name="sv01"/>
      <point x="463" y="1264"/>
      <point x="317" y="1177"/>
      <point x="214" y="1027"/>
      <point x="158" y="825"/>
    </contour>
    <contour>
      <point x="474" y="711" type="qcurve" name="dh01"/>
      <point x="474" y="662"/>
      <point x="480" y="576"/>
      <point x="497" y="511"/>
      <point x="528" y="474"/>
      <point x="553" y="474" type="qcurve" name="sh05"/>
      <point x="581" y="474"/>
      <point x="607" y="524"/>
      <point x="615" y="568" type="qcurve"/>
      <point x="625" y="632" type="line" name="dh03"/>
      <point x="784" y="632" type="line" name="dh04"/>
      <point x="775" y="564"/>
      <point x="738" y="449"/>
      <point x="681" y="364"/>
      <point x="603" y="316"/>
      <point x="553" y="316" type="qcurve" name="dv02"/>
      <point x="496" y="316"/>
      <point x="407" y="378"/>
      <point x="347" y="485"/>
      <point x="316" y="629"/>
      <point x="316" y="711" type="qcurve" name="dh02"/>
      <point x="316" y="793"/>
      <point x="347" y="937"/>
      <point x="407" y="1044"/>
      <point x="496" y="1106"/>
      <point x="553" y="1106" type="qcurve" name="dv01"/>
      <point x="603" y="1106"/>
      <point x="681" y="1058"/>
      <point x="738" y="973"/>
      <point x="775" y="857"/>
      <point x="784" y="790" type="qcurve" name="sh06"/>
      <point x="625" y="790" type="line" name="sh07"/>
      <point x="615" y="853" type="line"/>
      <point x="607" y="896"/>
      <point x="581" y="948"/>
      <point x="553" y="948" type="qcurve" name="sh08"/>
      <point x="528" y="948"/>
      <point x="497" y="911"/>
      <point x="480" y="846"/>
      <point x="474" y="760"/>
    </contour>
  </outline>
</glyph>
<glyph name="ordfeminine" format="2">
  <advance width="1103"/>
  <unicode hex="00AA"/>
  <outline>
    <contour>
      <point x="237" y="1422" type="line" name="at01"/>
      <point x="395" y="1422" type="line"/>
      <point x="632" y="1422"/>
      <point x="632" y="1185" type="qcurve"/>
      <point x="632" y="632" type="line" name="sh01"/>
      <point x="395" y="632" type="line" name="sv05"/>
      <point x="158" y="632"/>
      <point x="158" y="869" type="qcurve" name="sh02"/>
      <point x="158" y="1106"/>
      <point x="395" y="1106" type="qcurve" name="sv02"/>
      <point x="474" y="1106" type="line" name="sh03"/>
      <point x="474" y="1185" type="line"/>
      <point x="474" y="1200"/>
      <point x="461" y="1228"/>
      <point x="440" y="1250"/>
      <point x="411" y="1264"/>
      <point x="395" y="1264" type="qcurve"/>
      <point x="237" y="1264" type="line" name="sv01"/>
    </contour>
    <contour>
      <point x="395" y="948" type="line" name="sv03"/>
      <point x="357" y="948"/>
      <point x="316" y="903"/>
      <point x="316" y="868" type="qcurve" name="dh01"/>
      <point x="316" y="833"/>
      <point x="362" y="790"/>
      <point x="395" y="790" type="qcurve" name="sv04"/>
      <point x="474" y="790" type="line"/>
      <point x="474" y="948" type="line" name="dh02"/>
    </contour>
  </outline>
</glyph>
<glyph name="guillemotleft" format="2">
  <advance width="1103"/>
  <unicode hex="00AB"/>
  <outline>
    <contour>
      <point x="474" y="948" type="line"/>
      <point x="632" y="948" type="line"/>
      <point x="316" y="553" type="line"/>
      <point x="632" y="158" type="line"/>
      <point x="474" y="158" type="line"/>
      <point x="158" y="553" type="line"/>
    </contour>
    <contour>
      <point x="790" y="948" type="line"/>
      <point x="948" y="948" type="line"/>
      <point x="632" y="553" type="line"/>
      <point x="948" y="158" type="line"/>
      <point x="790" y="158" type="line"/>
      <point x="474" y="553" type="line"/>
    </contour>
  </outline>
</glyph>
<glyph name="logicalnot" format="2">
  <advance width="1103"/>
  <unicode hex="00AC"/>
  <outline>
    <contour>
      <point x="790" y="790" type="line"/>
      <point x="158" y="790" type="line" name="ah01"/>
      <point x="158" y="948" type="line" name="sv01"/>
      <point x="948" y="948" type="line"/>
      <point x="948" y="474" type="line" name="dh02"/>
      <point x="790" y="474" type="line" name="dh01"/>
    </contour>
  </outline>
</glyph>
<glyph name="registered" format="2">
  <advance width="1103"/>
  <unicode hex="00AE"/>
  <outline>
    <contour>
      <point x="0" y="711" type="qcurve" name="sh03"/>
      <point x="0" y="858"/>
      <point x="81" y="1117"/>
      <point x="227" y="1310"/>
      <point x="430" y="1422"/>
      <point x="553" y="1422" type="qcurve" name="sv03"/>
      <point x="676" y="1422"/>
      <point x="879" y="1310"/>
      <point x="1025" y="1117"/>
      <point x="1106" y="858"/>
      <point x="1106" y="711" type="qcurve" name="sh06"/>
      <point x="1106" y="564"/>
      <point x="1025" y="305"/>
      <point x="879" y="112"/>
      <point x="676" y="0"/>
      <point x="553" y="0" type="qcurve" name="sv05"/>
      <point x="430" y="0"/>
      <point x="227" y="112"/>
      <point x="81" y="305"/>
      <point x="0" y="564"/>
    </contour>
    <contour>
      <point x="158" y="711" type="qcurve" name="sh02"/>
      <point x="158" y="597"/>
      <point x="214" y="395"/>
      <point x="317" y="245"/>
      <point x="463" y="158"/>
      <point x="553" y="158" type="qcurve" name="sv04"/>
      <point x="643" y="158"/>
      <point x="789" y="245"/>
      <point x="892" y="395"/>
      <point x="948" y="597"/>
      <point x="948" y="711" type="qcurve" name="sh05"/>
      <point x="948" y="825"/>
      <point x="892" y="1027"/>
      <point x="789" y="1177"/>
      <point x="643" y="1264"/>
      <point x="553" y="1264" type="qcurve" name="sv02"/>
      <point x="463" y="1264"/>
      <point x="317" y="1177"/>
      <point x="214" y="1027"/>
      <point x="158" y="825"/>
    </contour>
    <contour>
      <point x="474" y="632" type="line" name="sh07"/>
      <point x="474" y="316" type="line" name="av01"/>
      <point x="316" y="316" type="line"/>
      <point x="316" y="1106" type="line" name="sh01"/>
      <point x="553" y="1106" type="line" name="sv01"/>
      <point x="602" y="1106"/>
      <point x="688" y="1069"/>
      <point x="753" y="1004"/>
      <point x="790" y="918"/>
      <point x="790" y="869" type="qcurve" name="sh04"/>
      <point x="790" y="823"/>
      <point x="763" y="738"/>
      <point x="718" y="672"/>
      <point x="662" y="632"/>
      <point x="632" y="632" type="qcurve"/>
      <point x="790" y="316" type="line"/>
      <point x="632" y="316" type="line" name="sv06"/>
    </contour>
    <contour>
      <point x="553" y="790" type="line"/>
      <point x="586" y="790"/>
      <point x="632" y="836"/>
      <point x="632" y="869" type="qcurve" name="dh02"/>
      <point x="632" y="902"/>
      <point x="586" y="948"/>
      <point x="553" y="948" type="qcurve"/>
      <point x="474" y="948" type="line" name="dv01"/>
      <point x="474" y="790" type="line" name="dh01"/>
    </contour>
  </outline>
</glyph>
<glyph name="degree" format="2">
  <advance width="1103"/>
  <unicode hex="00B0"/>
  <outline>
    <contour>
      <point x="158" y="1106" type="qcurve" name="dh01"/>
      <point x="158" y="1171"/>
      <point x="208" y="1286"/>
      <point x="294" y="1372"/>
      <point x="409" y="1422"/>
      <point x="474" y="1422" type="qcurve" name="at01"/>
      <point x="539" y="1422"/>
      <point x="654" y="1372"/>
      <point x="740" y="1286"/>
      <point x="790" y="1171"/>
      <point x="790" y="1106" type="qcurve" name="dh04"/>
      <point x="790" y="1041"/>
      <point x="740" y="926"/>
      <point x="654" y="840"/>
      <point x="539" y="790"/>
      <point x="474" y="790" type="qcurve" name="at02"/>
      <point x="409" y="790"/>
      <point x="294" y="840"/>
      <point x="208" y="926"/>
      <point x="158" y="1041"/>
    </contour>
    <contour>
      <point x="316" y="1106" type="qcurve" name="dh02"/>
      <point x="316" y="1073"/>
      <point x="341" y="1016"/>
      <point x="384" y="973"/>
      <point x="441" y="948"/>
      <point x="474" y="948" type="qcurve" name="sv01"/>
      <point x="507" y="948"/>
      <point x="564" y="973"/>
      <point x="607" y="1016"/>
      <point x="632" y="1073"/>
      <point x="632" y="1106" type="qcurve" name="dh03"/>
      <point x="632" y="1139"/>
      <point x="607" y="1196"/>
      <point x="564" y="1239"/>
      <point x="507" y="1264"/>
      <point x="474" y="1264" type="qcurve" name="sv02"/>
      <point x="441" y="1264"/>
      <point x="384" y="1239"/>
      <point x="341" y="1196"/>
      <point x="316" y="1139"/>
    </contour>
  </outline>
</glyph>
<glyph name="plusminus" format="2">
  <advance width="1103"/>
  <unicode hex="00B1"/>
  <outline>
    <contour>
      <point x="158" y="474" type="line" name="sh01"/>
      <point x="474" y="474" type="line" name="dh01"/>
      <point x="474" y="790" type="line"/>
      <point x="158" y="790" type="line" name="sh02"/>
      <point x="158" y="948" type="line" name="sv01"/>
      <point x="474" y="948" type="line" name="sh03"/>
      <point x="474" y="1264" type="line" name="av01"/>
      <point x="632" y="1264" type="line"/>
      <point x="632" y="948" type="line" name="sh04"/>
      <point x="948" y="948" type="line"/>
      <point x="948" y="790" type="line" name="sh06"/>
      <point x="632" y="790" type="line" name="sv02"/>
      <point x="632" y="474" type="line" name="dh02"/>
      <point x="948" y="474" type="line" name="sh05"/>
      <point x="948" y="316" type="line"/>
      <point x="158" y="316" type="line" name="sv03"/>
    </contour>
  </outline>
</glyph>
<glyph name="twosuperior" format="2">
  <advance width="1103"/>
  <unicode hex="00B2"/>
  <outline>
    <contour>
      <point x="158" y="948" type="line"/>
      <point x="158" y="963"/>
      <point x="185" y="1006"/>
      <point x="230" y="1058"/>
      <point x="287" y="1116"/>
      <point x="317" y="1145" type="qcurve"/>
      <point x="346" y="1174"/>
      <point x="403" y="1232"/>
      <point x="447" y="1285"/>
      <point x="474" y="1328"/>
      <point x="474" y="1343" type="qcurve"/>
      <point x="474" y="1372"/>
      <point x="448" y="1404"/>
      <point x="405" y="1419"/>
      <point x="350" y="1422"/>
      <point x="322" y="1422" type="qcurve"/>
      <point x="158" y="1422" type="line" name="at01"/>
      <point x="158" y="1580" type="line" name="sv01"/>
      <point x="394" y="1580" type="line"/>
      <point x="632" y="1580"/>
      <point x="632" y="1343" type="qcurve"/>
      <point x="632" y="1313"/>
      <point x="578" y="1226"/>
      <point x="489" y="1123"/>
      <point x="375" y="1007"/>
      <point x="316" y="948" type="qcurve"/>
      <point x="632" y="948" type="line" name="sv02"/>
      <point x="632" y="790" type="line" name="at02"/>
      <point x="158" y="790" type="line"/>
    </contour>
  </outline>
</glyph>
<glyph name="threesuperior" format="2">
  <advance width="1103"/>
  <unicode hex="00B3"/>
  <outline>
    <contour>
      <point x="158" y="948" type="line" name="ah01"/>
      <point x="316" y="948" type="line"/>
      <point x="346" y="948"/>
      <point x="402" y="952"/>
      <point x="447" y="968"/>
      <point x="474" y="1000"/>
      <point x="474" y="1027" type="qcurve" name="sh01"/>
      <point x="474" y="1054"/>
      <point x="447" y="1086"/>
      <point x="402" y="1102"/>
      <point x="346" y="1106"/>
      <point x="316" y="1106" type="qcurve" name="at02"/>
      <point x="316" y="1264" type="line" name="sh02"/>
      <point x="346" y="1264"/>
      <point x="403" y="1268"/>
      <point x="448" y="1284"/>
      <point x="475" y="1316"/>
      <point x="475" y="1343" type="qcurve" name="dh01"/>
      <point x="475" y="1370"/>
      <point x="448" y="1402"/>
      <point x="403" y="1418"/>
      <point x="346" y="1422"/>
      <point x="316" y="1422" type="qcurve"/>
      <point x="158" y="1422" type="line" name="sh03"/>
      <point x="158" y="1580" type="line" name="sv01"/>
      <point x="395" y="1580" type="line"/>
      <point x="632" y="1580"/>
      <point x="632" y="1343" type="qcurve" name="dh02"/>
      <point x="632" y="1313"/>
      <point x="623" y="1268"/>
      <point x="604" y="1231"/>
      <point x="573" y="1200"/>
      <point x="552" y="1185" type="qcurve"/>
      <point x="573" y="1170"/>
      <point x="604" y="1139"/>
      <point x="623" y="1102"/>
      <point x="632" y="1057"/>
      <point x="632" y="1027" type="qcurve" name="sh04"/>
      <point x="632" y="790"/>
      <point x="395" y="790" type="qcurve"/>
      <point x="158" y="790" type="line" name="at01"/>
    </contour>
  </outline>
</glyph>
<glyph name="mu" format="2">
  <advance width="1103"/>
  <unicode hex="00B5"/>
  <unicode hex="03BC"/>
  <outline>
    <contour>
      <point x="790" y="257" type="line"/>
      <point x="804" y="224"/>
      <point x="831" y="185"/>
      <point x="866" y="164"/>
      <point x="913" y="158"/>
      <point x="948" y="158" type="qcurve"/>
      <point x="948" y="0" type="line" name="sh01"/>
      <point x="908" y="1"/>
      <point x="830" y="14"/>
      <point x="759" y="42"/>
      <point x="698" y="86"/>
      <point x="676" y="117" type="qcurve"/>
      <point x="622" y="62"/>
      <point x="479" y="0"/>
      <point x="395" y="0" type="qcurve" name="ab01"/>
      <point x="328" y="0"/>
      <point x="209" y="42"/>
      <point x="158" y="80" type="qcurve"/>
      <point x="158" y="-316" type="line" name="sh02"/>
      <point x="0" y="-316" type="line"/>
      <point x="0" y="1106" type="line" name="dh01"/>
      <point x="158" y="1106" type="line" name="dh02"/>
      <point x="158" y="395" type="line"/>
      <point x="158" y="336"/>
      <point x="196" y="247"/>
      <point x="261" y="188"/>
      <point x="347" y="158"/>
      <point x="395" y="158" type="qcurve" name="sv01"/>
      <point x="444" y="158"/>
      <point x="530" y="195"/>
      <point x="595" y="260"/>
      <point x="632" y="346"/>
      <point x="632" y="395" type="qcurve"/>
      <point x="632" y="1106" type="line" name="dh03"/>
      <point x="790" y="1106" type="line" name="dh04"/>
    </contour>
  </outline>
</glyph>
<glyph name="paragraph" format="2">
  <advance width="1103"/>
  <unicode hex="00B6"/>
  <outline>
    <contour>
      <point x="474" y="632" type="line"/>
      <point x="415" y="632"/>
      <point x="301" y="686"/>
      <point x="212" y="775"/>
      <point x="158" y="889"/>
      <point x="158" y="948" type="qcurve"/>
      <point x="158" y="1106" type="line" name="ah01"/>
      <point x="158" y="1165"/>
      <point x="212" y="1279"/>
      <point x="301" y="1368"/>
      <point x="415" y="1422"/>
      <point x="474" y="1422" type="qcurve"/>
      <point x="948" y="1422" type="line" name="at01"/>
      <point x="948" y="-315" type="line" name="sh01"/>
      <point x="790" y="-315" type="line" name="dh02"/>
      <point x="790" y="1264" type="line" name="sv01"/>
      <point x="632" y="1264" type="line"/>
      <point x="632" y="-316" type="line" name="dh01"/>
      <point x="474" y="-316" type="line" name="sh02"/>
    </contour>
  </outline>
</glyph>
<glyph name="periodcentered" format="2">
  <advance width="1103"/>
  <unicode hex="00B7"/>
  <outline>
    <contour>
      <point x="316" y="790" type="qcurve" name="dh01"/>
      <point x="316" y="823"/>
      <point x="341" y="880"/>
      <point x="384" y="923"/>
      <point x="441" y="948"/>
      <point x="474" y="948" type="qcurve" name="dv01"/>
      <point x="507" y="948"/>
      <point x="564" y="923"/>
      <point x="607" y="880"/>
      <point x="632" y="823"/>
      <point x="632" y="790" type="qcurve" name="dh02"/>
      <point x="632" y="757"/>
      <point x="607" y="700"/>
      <point x="564" y="657"/>
      <point x="507" y="632"/>
      <point x="474" y="632" type="qcurve" name="dv02"/>
      <point x="441" y="632"/>
      <point x="384" y="657"/>
      <point x="341" y="700"/>
      <point x="316" y="757"/>
    </contour>
  </outline>
</glyph>
<glyph name="cedilla" format="2">
  <advance width="1103"/>
  <unicode hex="00B8"/>
  <outline>
    <contour>
      <point x="632" y="0" type="line"/>
      <point x="630" y="-77"/>
      <point x="585" y="-202"/>
      <point x="503" y="-290"/>
      <point x="385" y="-337"/>
      <point x="310" y="-337" type="qcurve"/>
      <point x="240" y="-337"/>
      <point x="158" y="-316" type="qcurve"/>
      <point x="158" y="-158" type="line"/>
      <point x="252" y="-189"/>
      <point x="316" y="-189" type="qcurve"/>
      <point x="402" y="-189"/>
      <point x="474" y="-87"/>
      <point x="474" y="0" type="qcurve"/>
    </contour>
  </outline>
</glyph>
<glyph name="onesuperior" format="2">
  <advance width="1103"/>
  <unicode hex="00B9"/>
  <outline>
    <contour>
      <point x="316" y="948" type="line"/>
      <point x="316" y="1264" type="line"/>
      <point x="158" y="1264" type="line"/>
      <point x="158" y="1422" type="line"/>
      <point x="191" y="1422"/>
      <point x="248" y="1447"/>
      <point x="291" y="1490"/>
      <point x="316" y="1547"/>
      <point x="316" y="1580" type="qcurve"/>
      <point x="474" y="1580" type="line"/>
      <point x="474" y="948" type="line"/>
      <point x="632" y="948" type="line"/>
      <point x="632" y="790" type="line"/>
      <point x="158" y="790" type="line"/>
      <point x="158" y="948" type="line"/>
    </contour>
  </outline>
</glyph>
<glyph name="ordmasculine" format="2">
  <advance width="1103"/>
  <unicode hex="00BA"/>
  <outline>
    <contour>
      <point x="158" y="1027" type="qcurve" name="sh01"/>
      <point x="158" y="1109"/>
      <point x="220" y="1253"/>
      <point x="327" y="1360"/>
      <point x="471" y="1422"/>
      <point x="553" y="1422" type="qcurve" name="at01"/>
      <point x="635" y="1422"/>
      <point x="779" y="1360"/>
      <point x="886" y="1253"/>
      <point x="948" y="1109"/>
      <point x="948" y="1027" type="qcurve" name="sh02"/>
      <point x="948" y="945"/>
      <point x="886" y="801"/>
      <point x="779" y="694"/>
      <point x="635" y="632"/>
      <point x="553" y="632" type="qcurve" name="sv01"/>
      <point x="471" y="632"/>
      <point x="327" y="694"/>
      <point x="220" y="801"/>
      <point x="158" y="945"/>
    </contour>
    <contour>
      <point x="316" y="1027" type="qcurve" name="dh01"/>
      <point x="316" y="978"/>
      <point x="353" y="892"/>
      <point x="418" y="827"/>
      <point x="504" y="790"/>
      <point x="553" y="790" type="qcurve" name="sv02"/>
      <point x="602" y="790"/>
      <point x="688" y="827"/>
      <point x="753" y="892"/>
      <point x="790" y="978"/>
      <point x="790" y="1027" type="qcurve" name="dh02"/>
      <point x="790" y="1076"/>
      <point x="753" y="1162"/>
      <point x="688" y="1227"/>
      <point x="602" y="1264"/>
      <point x="553" y="1264" type="qcurve" name="sv03"/>
      <point x="504" y="1264"/>
      <point x="418" y="1227"/>
      <point x="353" y="1162"/>
      <point x="316" y="1076"/>
    </contour>
    <contour>
      <point x="158" y="473" type="line" name="sh03"/>
      <point x="948" y="473" type="line" name="sh04"/>
      <point x="948" y="316" type="line"/>
      <point x="158" y="316" type="line" name="sv04"/>
    </contour>
  </outline>
</glyph>
<glyph name="questiondown" format="2">
  <advance width="1103"/>
  <unicode hex="00BF"/>
  <outline>
    <contour>
      <point x="948" y="395" type="line"/>
      <point x="948" y="313"/>
      <point x="891" y="169"/>
      <point x="788" y="62"/>
      <point x="642" y="0"/>
      <point x="553" y="0" type="qcurve" name="ab01"/>
      <point x="464" y="0"/>
      <point x="318" y="57"/>
      <point x="215" y="160"/>
      <point x="158" y="306"/>
      <point x="158" y="395" type="qcurve" name="dh06"/>
      <point x="158" y="453"/>
      <point x="185" y="545"/>
      <point x="229" y="619"/>
      <point x="286" y="677"/>
      <point x="316" y="701" type="qcurve"/>
      <point x="346" y="725"/>
      <point x="403" y="776"/>
      <point x="447" y="835"/>
      <point x="474" y="905"/>
      <point x="474" y="948" type="qcurve" name="sh01"/>
      <point x="632" y="948" type="line" name="sh02"/>
      <point x="632" y="890"/>
      <point x="605" y="798"/>
      <point x="561" y="724"/>
      <point x="504" y="666"/>
      <point x="474" y="642" type="qcurve"/>
      <point x="444" y="618"/>
      <point x="387" y="567"/>
      <point x="343" y="508"/>
      <point x="316" y="438"/>
      <point x="316" y="395" type="qcurve" name="dh05"/>
      <point x="316" y="158"/>
      <point x="553" y="158" type="qcurve" name="sv01"/>
      <point x="790" y="158"/>
      <point x="790" y="395" type="qcurve"/>
      <point x="790" y="474" type="line" name="dh03"/>
      <point x="948" y="474" type="line" name="dh04"/>
    </contour>
    <contour>
      <point x="632" y="1106" type="line" name="dh02"/>
      <point x="474" y="1106" type="line" name="dh01"/>
      <point x="474" y="1422" type="line" name="at01"/>
      <point x="632" y="1422" type="line"/>
    </contour>
  </outline>
</glyph>
<glyph name="Aring" format="2">
  <advance width="1103"/>
  <unicode hex="00C5"/>
  <outline>
    <contour>
      <point x="158" y="1027" type="line"/>
      <point x="158" y="1109"/>
      <point x="219" y="1252"/>
      <point x="273" y="1306" type="qcurve"/>
      <point x="292" y="1325"/>
      <point x="333" y="1356"/>
      <point x="355" y="1369" type="qcurve"/>
      <point x="331" y="1409"/>
      <point x="319" y="1477"/>
      <point x="319" y="1498" type="qcurve"/>
      <point x="319" y="1515"/>
      <point x="328" y="1576"/>
      <point x="347" y="1613" type="qcurve"/>
      <point x="376" y="1667"/>
      <point x="482" y="1738"/>
      <point x="553" y="1738" type="qcurve"/>
      <point x="599" y="1738"/>
      <point x="679" y="1704"/>
      <point x="709" y="1675" type="qcurve"/>
      <point x="740" y="1646"/>
      <point x="760" y="1609" type="qcurve"/>
      <point x="780" y="1572"/>
      <point x="789" y="1515"/>
      <point x="789" y="1495" type="qcurve"/>
      <point x="789" y="1470"/>
      <point x="776" y="1406"/>
      <point x="750" y="1369" type="qcurve"/>
      <point x="772" y="1356"/>
      <point x="813" y="1325"/>
      <point x="832" y="1306" type="qcurve"/>
      <point x="886" y="1252"/>
      <point x="948" y="1109"/>
      <point x="948" y="1027" type="qcurve"/>
      <point x="948" y="0" type="line"/>
      <point x="790" y="0" type="line"/>
      <point x="790" y="632" type="line"/>
      <point x="316" y="632" type="line"/>
      <point x="316" y="0" type="line"/>
      <point x="158" y="0" type="line"/>
    </contour>
    <contour>
      <point x="790" y="790" type="line"/>
      <point x="790" y="1027" type="line"/>
      <point x="790" y="1076"/>
      <point x="753" y="1162"/>
      <point x="688" y="1227"/>
      <point x="602" y="1264"/>
      <point x="553" y="1264" type="qcurve"/>
      <point x="504" y="1264"/>
      <point x="418" y="1227"/>
      <point x="353" y="1162"/>
      <point x="316" y="1076"/>
      <point x="316" y="1027" type="qcurve"/>
      <point x="316" y="790" type="line"/>
    </contour>
    <contour>
      <point x="632" y="1501" type="qcurve"/>
      <point x="632" y="1534"/>
      <point x="586" y="1580"/>
      <point x="553" y="1580" type="qcurve"/>
      <point x="520" y="1580"/>
      <point x="474" y="1534"/>
      <point x="474" y="1501" type="qcurve"/>
      <point x="474" y="1470"/>
      <point x="516" y="1424"/>
      <point x="546" y="1422" type="qcurve"/>
      <point x="553" y="1422" type="line"/>
      <point x="586" y="1422"/>
      <point x="632" y="1468"/>
    </contour>
  </outline>
</glyph>
<glyph name="AE" format="2">
  <advance width="1103"/>
  <unicode hex="00C6"/>
  <outline>
    <contour>
      <point x="158" y="1106" type="line"/>
      <point x="158" y="1165"/>
      <point x="212" y="1279"/>
      <point x="301" y="1368"/>
      <point x="415" y="1422"/>
      <point x="474" y="1422" type="qcurve"/>
      <point x="948" y="1422" type="line"/>
      <point x="948" y="1264" type="line"/>
      <point x="632" y="1264" type="line"/>
      <point x="632" y="790" type="line"/>
      <point x="790" y="790" type="line"/>
      <point x="790" y="632" type="line"/>
      <point x="632" y="632" type="line"/>
      <point x="632" y="158" type="line"/>
      <point x="948" y="158" type="line"/>
      <point x="948" y="0" type="line"/>
      <point x="474" y="0" type="line"/>
      <point x="474" y="632" type="line"/>
      <point x="316" y="632" type="line"/>
      <point x="316" y="0" type="line"/>
      <point x="158" y="0" type="line"/>
    </contour>
    <contour>
      <point x="474" y="790" type="line"/>
      <point x="474" y="1264" type="line"/>
      <point x="429" y="1264"/>
      <point x="369" y="1227"/>
      <point x="332" y="1176"/>
      <point x="316" y="1122"/>
      <point x="316" y="1106" type="qcurve"/>
      <point x="316" y="790" type="line"/>
    </contour>
  </outline>
</glyph>
<glyph name="Ccedilla" format="2">
  <advance width="1103"/>
  <unicode hex="00C7"/>
  <outline>
    <contour>
      <point x="632" y="0" type="line"/>
      <point x="632" y="-81"/>
      <point x="573" y="-212"/>
      <point x="513" y="-252" type="qcurve"/>
      <point x="453" y="-292"/>
      <point x="394" y="-300" type="qcurve"/>
      <point x="365" y="-304"/>
      <point x="321" y="-308"/>
      <point x="307" y="-308" type="qcurve"/>
      <point x="237" y="-308"/>
      <point x="155" y="-289" type="qcurve"/>
      <point x="155" y="-144" type="line"/>
      <point x="245" y="-172"/>
      <point x="366" y="-174"/>
      <point x="441" y="-133"/>
      <point x="473" y="-54"/>
      <point x="473" y="0" type="qcurve"/>
      <point x="469" y="1"/>
      <point x="433" y="17"/>
      <point x="399" y="31" type="qcurve"/>
      <point x="345" y="54"/>
      <point x="257" y="127"/>
      <point x="193" y="221"/>
      <point x="158" y="333"/>
      <point x="158" y="395" type="qcurve"/>
      <point x="158" y="1027" type="line"/>
      <point x="158" y="1109"/>
      <point x="219" y="1253"/>
      <point x="327" y="1360"/>
      <point x="472" y="1422"/>
      <point x="556" y="1422" type="qcurve"/>
      <point x="631" y="1422"/>
      <point x="762" y="1374"/>
      <point x="864" y="1289"/>
      <point x="934" y="1173"/>
      <point x="948" y="1106" type="qcurve"/>
      <point x="790" y="1106" type="line"/>
      <point x="778" y="1140"/>
      <point x="733" y="1198"/>
      <point x="673" y="1240"/>
      <point x="598" y="1264"/>
      <point x="556" y="1264" type="qcurve"/>
      <point x="505" y="1264"/>
      <point x="417" y="1227"/>
      <point x="353" y="1162"/>
      <point x="316" y="1076"/>
      <point x="316" y="1027" type="qcurve"/>
      <point x="316" y="395" type="line"/>
      <point x="316" y="346"/>
      <point x="353" y="260"/>
      <point x="417" y="195"/>
      <point x="505" y="158"/>
      <point x="556" y="158" type="qcurve"/>
      <point x="598" y="158"/>
      <point x="672" y="181"/>
      <point x="733" y="223"/>
      <point x="778" y="281"/>
      <point x="790" y="316" type="qcurve"/>
      <point x="948" y="316" type="line"/>
      <point x="927" y="213"/>
      <point x="793" y="60"/>
      <point x="696" y="24" type="qcurve"/>
    </contour>
  </outline>
</glyph>
<glyph name="Eth" format="2">
  <advance width="1103"/>
  <unicode hex="00D0"/>
  <outline>
    <contour>
      <point x="0" y="790" type="line"/>
      <point x="158" y="790" type="line"/>
      <point x="158" y="1422" type="line"/>
      <point x="553" y="1422" type="line"/>
      <point x="635" y="1422"/>
      <point x="779" y="1360"/>
      <point x="886" y="1253"/>
      <point x="948" y="1109"/>
      <point x="948" y="1027" type="qcurve"/>
      <point x="948" y="395" type="line"/>
      <point x="948" y="313"/>
      <point x="886" y="169"/>
      <point x="779" y="62"/>
      <point x="635" y="0"/>
      <point x="553" y="0" type="qcurve"/>
      <point x="158" y="0" type="line"/>
      <point x="158" y="632" type="line"/>
      <point x="0" y="632" type="line"/>
    </contour>
    <contour>
      <point x="553" y="158" type="line"/>
      <point x="602" y="158"/>
      <point x="688" y="195"/>
      <point x="753" y="260"/>
      <point x="790" y="346"/>
      <point x="790" y="395" type="qcurve"/>
      <point x="790" y="1027" type="line"/>
      <point x="790" y="1076"/>
      <point x="753" y="1162"/>
      <point x="688" y="1227"/>
      <point x="602" y="1264"/>
      <point x="553" y="1264" type="qcurve"/>
      <point x="316" y="1264" type="line"/>
      <point x="316" y="790" type="line"/>
      <point x="474" y="790" type="line"/>
      <point x="474" y="632" type="line"/>
      <point x="316" y="632" type="line"/>
      <point x="316" y="158" type="line"/>
    </contour>
  </outline>
</glyph>
<glyph name="multiply" format="2">
  <advance width="1103"/>
  <unicode hex="00D7"/>
  <outline>
    <contour>
      <point x="929" y="809" type="line" name="sh01"/>
      <point x="673" y="553" type="line" name="dh02"/>
      <point x="929" y="297" type="line" name="sh02"/>
      <point x="809" y="177" type="line" name="sv02"/>
      <point x="553" y="433" type="line" name="dv02"/>
      <point x="297" y="177" type="line" name="sv01"/>
      <point x="177" y="297" type="line" name="sh04"/>
      <point x="433" y="553" type="line" name="dh01"/>
      <point x="177" y="809" type="line" name="sh03"/>
      <point x="297" y="929" type="line" name="sv03"/>
      <point x="553" y="673" type="line" name="dv01"/>
      <point x="809" y="929" type="line" name="sv04"/>
    </contour>
  </outline>
</glyph>
<glyph name="Oslash" format="2">
  <advance width="1103"/>
  <unicode hex="00D8"/>
  <outline>
    <contour>
      <point x="323" y="0" type="line"/>
      <point x="158" y="0" type="line"/>
      <point x="227" y="172" type="line"/>
      <point x="194" y="220"/>
      <point x="158" y="332"/>
      <point x="158" y="395" type="qcurve"/>
      <point x="158" y="1027" type="line"/>
      <point x="158" y="1109"/>
      <point x="220" y="1253"/>
      <point x="327" y="1360"/>
      <point x="471" y="1422"/>
      <point x="553" y="1422" type="qcurve"/>
      <point x="610" y="1422"/>
      <point x="712" y="1392"/>
      <point x="757" y="1365" type="qcurve"/>
      <point x="790" y="1422" type="line"/>
      <point x="948" y="1422" type="line"/>
      <point x="948" y="1418"/>
      <point x="945" y="1406"/>
      <point x="932" y="1372"/>
      <point x="904" y="1307"/>
      <point x="879" y="1250" type="qcurve"/>
      <point x="911" y="1202"/>
      <point x="948" y="1090"/>
      <point x="948" y="1027" type="qcurve"/>
      <point x="948" y="395" type="line"/>
      <point x="948" y="313"/>
      <point x="886" y="169"/>
      <point x="779" y="62"/>
      <point x="635" y="0"/>
      <point x="553" y="0" type="qcurve"/>
      <point x="496" y="0"/>
      <point x="393" y="30"/>
      <point x="348" y="57" type="qcurve"/>
    </contour>
    <contour>
      <point x="790" y="1047" type="line"/>
      <point x="413" y="203" type="line"/>
      <point x="442" y="181"/>
      <point x="514" y="158"/>
      <point x="553" y="158" type="qcurve"/>
      <point x="602" y="158"/>
      <point x="688" y="195"/>
      <point x="753" y="260"/>
      <point x="790" y="346"/>
      <point x="790" y="395" type="qcurve"/>
    </contour>
    <contour>
      <point x="553" y="1264" type="qcurve"/>
      <point x="504" y="1264"/>
      <point x="418" y="1227"/>
      <point x="353" y="1162"/>
      <point x="316" y="1076"/>
      <point x="316" y="1027" type="qcurve"/>
      <point x="316" y="362" type="line"/>
      <point x="692" y="1219" type="line"/>
      <point x="663" y="1240"/>
      <point x="592" y="1264"/>
    </contour>
  </outline>
</glyph>
<glyph name="Thorn" format="2">
  <advance width="1103"/>
  <unicode hex="00DE"/>
  <outline>
    <contour>
      <point x="632" y="1106" type="line"/>
      <point x="691" y="1106"/>
      <point x="805" y="1052"/>
      <point x="894" y="963"/>
      <point x="948" y="849"/>
      <point x="948" y="790" type="qcurve" name="dh03"/>
      <point x="948" y="632" type="line"/>
      <point x="948" y="573"/>
      <point x="894" y="459"/>
      <point x="805" y="370"/>
      <point x="691" y="316"/>
      <point x="632" y="316" type="qcurve"/>
      <point x="316" y="316" type="line" name="sh01"/>
      <point x="316" y="0" type="line" name="ab01"/>
      <point x="158" y="0" type="line"/>
      <point x="158" y="1422" type="line" name="dh01"/>
      <point x="316" y="1422" type="line" name="dh02"/>
      <point x="316" y="1106" type="line" name="sv01"/>
    </contour>
    <contour>
      <point x="790" y="790" type="line" name="dh04"/>
      <point x="790" y="820"/>
      <point x="763" y="876"/>
      <point x="718" y="921"/>
      <point x="662" y="948"/>
      <point x="632" y="948" type="qcurve"/>
      <point x="316" y="948" type="line" name="sh02"/>
      <point x="316" y="474" type="line" name="dv01"/>
      <point x="632" y="474" type="line"/>
      <point x="662" y="474"/>
      <point x="718" y="501"/>
      <point x="763" y="546"/>
      <point x="790" y="602"/>
      <point x="790" y="632" type="qcurve"/>
    </contour>
  </outline>
</glyph>
<glyph name="ae" format="2">
  <advance width="1103"/>
  <unicode hex="00E6"/>
  <outline>
    <contour>
      <point x="395" y="0" type="line"/>
      <point x="336" y="0"/>
      <point x="247" y="54"/>
      <point x="188" y="143"/>
      <point x="158" y="257"/>
      <point x="158" y="316" type="qcurve"/>
      <point x="158" y="375"/>
      <point x="188" y="489"/>
      <point x="247" y="578"/>
      <point x="336" y="632"/>
      <point x="395" y="632" type="qcurve"/>
      <point x="474" y="632" type="line"/>
      <point x="474" y="750"/>
      <point x="447" y="879"/>
      <point x="402" y="938"/>
      <point x="346" y="948"/>
      <point x="316" y="948" type="qcurve"/>
      <point x="316" y="1106" type="line"/>
      <point x="332" y="1106"/>
      <point x="380" y="1104"/>
      <point x="435" y="1095"/>
      <point x="495" y="1074"/>
      <point x="522" y="1055" type="qcurve"/>
      <point x="545" y="1078"/>
      <point x="602" y="1106"/>
      <point x="632" y="1106" type="qcurve"/>
      <point x="711" y="1106" type="line"/>
      <point x="770" y="1106"/>
      <point x="859" y="1052"/>
      <point x="918" y="963"/>
      <point x="948" y="849"/>
      <point x="948" y="731"/>
      <point x="918" y="617"/>
      <point x="859" y="528"/>
      <point x="770" y="474"/>
      <point x="711" y="474" type="qcurve"/>
      <point x="632" y="474" type="line"/>
      <point x="632" y="395"/>
      <point x="638" y="287"/>
      <point x="649" y="217"/>
      <point x="664" y="178"/>
      <point x="682" y="161"/>
      <point x="701" y="158"/>
      <point x="711" y="158" type="qcurve"/>
      <point x="729" y="158"/>
      <point x="758" y="185"/>
      <point x="779" y="230"/>
      <point x="790" y="286"/>
      <point x="790" y="316" type="qcurve"/>
      <point x="948" y="316" type="line"/>
      <point x="948" y="227"/>
      <point x="918" y="106"/>
      <point x="859" y="32"/>
      <point x="770" y="0"/>
      <point x="711" y="0" type="qcurve"/>
    </contour>
    <contour>
      <point x="395" y="474" type="line"/>
      <point x="378" y="474"/>
      <point x="349" y="447"/>
      <point x="328" y="402"/>
      <point x="316" y="346"/>
      <point x="316" y="316" type="qcurve"/>
      <point x="316" y="286"/>
      <point x="328" y="230"/>
      <point x="349" y="185"/>
      <point x="378" y="158"/>
      <point x="395" y="158" type="qcurve"/>
      <point x="474" y="158" type="line"/>
      <point x="474" y="474" type="line"/>
    </contour>
    <contour>
      <point x="711" y="632" type="line"/>
      <point x="728" y="632"/>
      <point x="757" y="659"/>
      <point x="778" y="704"/>
      <point x="790" y="760"/>
      <point x="790" y="790" type="qcurve"/>
      <point x="790" y="820"/>
      <point x="778" y="876"/>
      <point x="757" y="921"/>
      <point x="728" y="948"/>
      <point x="711" y="948" type="qcurve"/>
      <point x="632" y="948" type="line"/>
      <point x="632" y="632" type="line"/>
    </contour>
  </outline>
</glyph>
<glyph name="eth" format="2">
  <advance width="1103"/>
  <unicode hex="00F0"/>
  <outline>
    <contour>
      <point x="316" y="1264" type="line"/>
      <point x="434" y="1342" type="line"/>
      <point x="368" y="1380"/>
      <point x="230" y="1422"/>
      <point x="158" y="1422" type="qcurve"/>
      <point x="158" y="1580" type="line"/>
      <point x="267" y="1580"/>
      <point x="479" y="1504"/>
      <point x="573" y="1435" type="qcurve"/>
      <point x="790" y="1580" type="line"/>
      <point x="790" y="1422" type="line"/>
      <point x="678" y="1347" type="line"/>
      <point x="738" y="1287"/>
      <point x="838" y="1143"/>
      <point x="909" y="981"/>
      <point x="948" y="804"/>
      <point x="948" y="711" type="qcurve"/>
      <point x="948" y="395" type="line"/>
      <point x="948" y="313"/>
      <point x="886" y="169"/>
      <point x="779" y="62"/>
      <point x="635" y="0"/>
      <point x="553" y="0" type="qcurve"/>
      <point x="471" y="0"/>
      <point x="327" y="62"/>
      <point x="220" y="169"/>
      <point x="158" y="313"/>
      <point x="158" y="395" type="qcurve"/>
      <point x="158" y="711" type="line"/>
      <point x="158" y="793"/>
      <point x="220" y="937"/>
      <point x="327" y="1044"/>
      <point x="471" y="1106"/>
      <point x="553" y="1106" type="qcurve"/>
      <point x="589" y="1106"/>
      <point x="658" y="1093"/>
      <point x="690" y="1082" type="qcurve"/>
      <point x="633" y="1182"/>
      <point x="547" y="1260" type="qcurve"/>
      <point x="316" y="1106" type="line"/>
    </contour>
    <contour>
      <point x="316" y="395" type="line"/>
      <point x="316" y="346"/>
      <point x="353" y="260"/>
      <point x="418" y="195"/>
      <point x="504" y="158"/>
      <point x="553" y="158" type="qcurve"/>
      <point x="602" y="158"/>
      <point x="688" y="195"/>
      <point x="753" y="260"/>
      <point x="790" y="346"/>
      <point x="790" y="395" type="qcurve"/>
      <point x="790" y="711" type="line"/>
      <point x="790" y="770"/>
      <point x="752" y="859"/>
      <point x="687" y="918"/>
      <point x="601" y="948"/>
      <point x="553" y="948" type="qcurve"/>
      <point x="504" y="948"/>
      <point x="418" y="911"/>
      <point x="353" y="846"/>
      <point x="316" y="760"/>
      <point x="316" y="711" type="qcurve"/>
    </contour>
  </outline>
</glyph>
<glyph name="divide" format="2">
  <advance width="1103"/>
  <unicode hex="00F7"/>
  <outline>
    <contour>
      <point x="0" y="790" type="line" name="sh01"/>
      <point x="948" y="790" type="line" name="sh02"/>
      <point x="948" y="632" type="line"/>
      <point x="0" y="632" type="line" name="sv01"/>
    </contour>
    <contour>
      <point x="316" y="1106" type="qcurve" name="dh01"/>
      <point x="316" y="1139"/>
      <point x="341" y="1196"/>
      <point x="384" y="1239"/>
      <point x="441" y="1264"/>
      <point x="474" y="1264" type="qcurve" name="sv03"/>
      <point x="507" y="1264"/>
      <point x="564" y="1239"/>
      <point x="607" y="1196"/>
      <point x="632" y="1139"/>
      <point x="632" y="1106" type="qcurve" name="dh02"/>
      <point x="632" y="1073"/>
      <point x="607" y="1016"/>
      <point x="564" y="973"/>
      <point x="507" y="948"/>
      <point x="474" y="948" type="qcurve" name="sv02"/>
      <point x="441" y="948"/>
      <point x="384" y="973"/>
      <point x="341" y="1016"/>
      <point x="316" y="1073"/>
    </contour>
    <contour>
      <point x="316" y="316" type="qcurve" name="sh03"/>
      <point x="316" y="349"/>
      <point x="341" y="406"/>
      <point x="384" y="449"/>
      <point x="441" y="474"/>
      <point x="474" y="474" type="qcurve" name="sv04"/>
      <point x="507" y="474"/>
      <point x="564" y="449"/>
      <point x="607" y="406"/>
      <point x="632" y="349"/>
      <point x="632" y="316" type="qcurve" name="sh04"/>
      <point x="632" y="283"/>
      <point x="607" y="226"/>
      <point x="564" y="183"/>
      <point x="507" y="158"/>
      <point x="474" y="158" type="qcurve" name="sv05"/>
      <point x="441" y="158"/>
      <point x="384" y="183"/>
      <point x="341" y="226"/>
      <point x="316" y="283"/>
    </contour>
  </outline>
</glyph>
<glyph name="oslash" format="2">
  <advance width="1103"/>
  <unicode hex="00F8"/>
  <outline>
    <contour>
      <point x="335" y="0" type="line"/>
      <point x="150" y="0" type="line"/>
      <point x="150" y="4"/>
      <point x="153" y="19"/>
      <point x="170" y="52"/>
      <point x="203" y="113"/>
      <point x="233" y="164" type="qcurve"/>
      <point x="198" y="213"/>
      <point x="158" y="329"/>
      <point x="158" y="395" type="qcurve"/>
      <point x="158" y="711" type="line"/>
      <point x="158" y="793"/>
      <point x="220" y="937"/>
      <point x="327" y="1044"/>
      <point x="471" y="1106"/>
      <point x="553" y="1106" type="qcurve"/>
      <point x="605" y="1106"/>
      <point x="700" y="1080"/>
      <point x="743" y="1057" type="qcurve"/>
      <point x="771" y="1106" type="line"/>
      <point x="956" y="1106" type="line"/>
      <point x="956" y="1101"/>
      <point x="952" y="1086"/>
      <point x="935" y="1053"/>
      <point x="902" y="993"/>
      <point x="873" y="942" type="qcurve"/>
      <point x="908" y="893"/>
      <point x="948" y="777"/>
      <point x="948" y="711" type="qcurve"/>
      <point x="948" y="395" type="line"/>
      <point x="948" y="313"/>
      <point x="886" y="169"/>
      <point x="779" y="62"/>
      <point x="635" y="0"/>
      <point x="553" y="0" type="qcurve"/>
      <point x="501" y="0"/>
      <point x="405" y="26"/>
      <point x="363" y="49" type="qcurve"/>
    </contour>
    <contour>
      <point x="790" y="711" type="line"/>
      <point x="790" y="748"/>
      <point x="780" y="778" type="qcurve"/>
      <point x="441" y="186" type="line"/>
      <point x="491" y="158"/>
      <point x="553" y="158" type="qcurve"/>
      <point x="602" y="158"/>
      <point x="688" y="195"/>
      <point x="753" y="260"/>
      <point x="790" y="346"/>
      <point x="790" y="395" type="qcurve"/>
    </contour>
    <contour>
      <point x="316" y="395" type="line"/>
      <point x="316" y="356"/>
      <point x="326" y="327" type="qcurve"/>
      <point x="664" y="920" type="line"/>
      <point x="639" y="933"/>
      <point x="583" y="948"/>
      <point x="553" y="948" type="qcurve"/>
      <point x="504" y="948"/>
      <point x="418" y="911"/>
      <point x="353" y="846"/>
      <point x="316" y="760"/>
      <point x="316" y="711" type="qcurve"/>
    </contour>
  </outline>
</glyph>
<glyph name="thorn" format="2">
  <advance width="1103"/>
  <unicode hex="00FE"/>
  <outline>
    <contour>
      <point x="948" y="474" type="qcurve" name="dh04"/>
      <point x="948" y="355"/>
      <point x="864" y="178"/>
      <point x="716" y="59"/>
      <point x="513" y="0"/>
      <point x="395" y="0" type="qcurve"/>
      <point x="315" y="0" type="line" name="sh01"/>
      <point x="315" y="-473" type="line" name="ab01"/>
      <point x="158" y="-473" type="line"/>
      <point x="158" y="1422" type="line" name="dh01"/>
      <point x="316" y="1422" type="line" name="dh02"/>
      <point x="316" y="948" type="line" name="sv01"/>
      <point x="395" y="948" type="line"/>
      <point x="513" y="948"/>
      <point x="716" y="889"/>
      <point x="864" y="770"/>
      <point x="948" y="592"/>
    </contour>
    <contour>
      <point x="315" y="158" type="line" name="dv01"/>
      <point x="474" y="158" type="line"/>
      <point x="494" y="158"/>
      <point x="556" y="172"/>
      <point x="626" y="203"/>
      <point x="697" y="252"/>
      <point x="754" y="322"/>
      <point x="790" y="415"/>
      <point x="790" y="474" type="qcurve" name="dh03"/>
      <point x="790" y="533"/>
      <point x="754" y="626"/>
      <point x="697" y="696"/>
      <point x="626" y="745"/>
      <point x="556" y="776"/>
      <point x="494" y="790"/>
      <point x="474" y="790" type="qcurve"/>
      <point x="316" y="790" type="line" name="sh02"/>
    </contour>
  </outline>
</glyph>
<glyph name="Aogonek" format="2">
  <advance width="1103"/>
  <unicode hex="0104"/>
  <outline>
    <contour>
      <point x="790" y="0" type="line" name="dh01"/>
      <point x="790" y="-82"/>
      <point x="862" y="-177"/>
      <point x="948" y="-177" type="qcurve"/>
      <point x="1012" y="-177"/>
      <point x="1106" y="-148" type="qcurve" name="ah01"/>
      <point x="1106" y="-296" type="line"/>
      <point x="1023" y="-316"/>
      <point x="954" y="-316" type="qcurve"/>
      <point x="875" y="-316"/>
      <point x="755" y="-269"/>
      <point x="674" y="-185"/>
      <point x="633" y="-68"/>
      <point x="632" y="0" type="qcurve" name="dh02"/>
      <point x="634" y="0" type="line"/>
      <point x="634" y="632" type="line"/>
      <point x="160" y="632" type="line" name="sv01"/>
      <point x="160" y="0" type="line" name="dh03"/>
      <point x="2" y="0" type="line" name="dh04"/>
      <point x="2" y="1027" type="line"/>
      <point x="2" y="1109"/>
      <point x="64" y="1253"/>
      <point x="171" y="1360"/>
      <point x="315" y="1422"/>
      <point x="397" y="1422" type="qcurve" name="at01"/>
      <point x="479" y="1422"/>
      <point x="623" y="1360"/>
      <point x="730" y="1253"/>
      <point x="792" y="1109"/>
      <point x="792" y="1027" type="qcurve"/>
      <point x="792" y="0" type="line"/>
    </contour>
    <contour>
      <point x="634" y="790" type="line" name="sh01"/>
      <point x="634" y="1027" type="line"/>
      <point x="634" y="1076"/>
      <point x="597" y="1162"/>
      <point x="532" y="1227"/>
      <point x="446" y="1264"/>
      <point x="397" y="1264" type="qcurve" name="sv02"/>
      <point x="348" y="1264"/>
      <point x="262" y="1227"/>
      <point x="197" y="1162"/>
      <point x="160" y="1076"/>
      <point x="160" y="1027" type="qcurve"/>
      <point x="160" y="790" type="line" name="sh02"/>
    </contour>
  </outline>
</glyph>
<glyph name="Ccircumflex" format="2">
  <advance width="1103"/>
  <unicode hex="0108"/>
  <outline>
    <contour>
      <point x="556" y="1264" type="qcurve"/>
      <point x="505" y="1264"/>
      <point x="417" y="1227"/>
      <point x="353" y="1162"/>
      <point x="316" y="1076"/>
      <point x="316" y="1027" type="qcurve"/>
      <point x="316" y="395" type="line"/>
      <point x="316" y="346"/>
      <point x="353" y="260"/>
      <point x="417" y="195"/>
      <point x="505" y="158"/>
      <point x="556" y="158" type="qcurve"/>
      <point x="598" y="158"/>
      <point x="672" y="181"/>
      <point x="733" y="223"/>
      <point x="778" y="281"/>
      <point x="790" y="316" type="qcurve"/>
      <point x="948" y="316" type="line"/>
      <point x="934" y="248"/>
      <point x="864" y="132"/>
      <point x="761" y="48"/>
      <point x="631" y="0"/>
      <point x="556" y="0" type="qcurve"/>
      <point x="472" y="0"/>
      <point x="327" y="62"/>
      <point x="219" y="169"/>
      <point x="158" y="313"/>
      <point x="158" y="395" type="qcurve"/>
      <point x="158" y="1027" type="line"/>
      <point x="158" y="1109"/>
      <point x="219" y="1253"/>
      <point x="327" y="1360"/>
      <point x="472" y="1422"/>
      <point x="556" y="1422" type="qcurve"/>
      <point x="631" y="1422"/>
      <point x="762" y="1374"/>
      <point x="864" y="1289"/>
      <point x="934" y="1173"/>
      <point x="948" y="1106" type="qcurve"/>
      <point x="790" y="1106" type="line"/>
      <point x="778" y="1140"/>
      <point x="733" y="1198"/>
      <point x="673" y="1240"/>
      <point x="598" y="1264"/>
    </contour>
    <contour>
      <point x="553" y="1896" type="line"/>
      <point x="790" y="1659" type="line"/>
      <point x="711" y="1580" type="line"/>
      <point x="553" y="1738" type="line"/>
      <point x="395" y="1580" type="line"/>
      <point x="316" y="1659" type="line"/>
    </contour>
  </outline>
</glyph>
<glyph name="dcroat" format="2">
  <advance width="1103"/>
  <unicode hex="0111"/>
  <outline>
    <contour>
      <point x="632" y="1422" type="line"/>
      <point x="1106" y="1422" type="line"/>
      <point x="1106" y="1264" type="line"/>
      <point x="632" y="1264" type="line"/>
    </contour>
    <contour>
      <point x="948" y="0" type="line"/>
      <point x="790" y="0" type="line"/>
      <point x="790" y="98" type="line"/>
      <point x="764" y="80"/>
      <point x="709" y="44"/>
      <point x="649" y="17"/>
      <point x="586" y="0"/>
      <point x="553" y="0" type="qcurve"/>
      <point x="471" y="0"/>
      <point x="327" y="62"/>
      <point x="220" y="169"/>
      <point x="158" y="313"/>
      <point x="158" y="395" type="qcurve"/>
      <point x="158" y="711" type="line"/>
      <point x="158" y="793"/>
      <point x="220" y="937"/>
      <point x="327" y="1044"/>
      <point x="471" y="1106"/>
      <point x="553" y="1106" type="qcurve"/>
      <point x="616" y="1116"/>
      <point x="732" y="1049"/>
      <point x="790" y="1007" type="qcurve"/>
      <point x="790" y="1580" type="line"/>
      <point x="948" y="1580" type="line"/>
    </contour>
    <contour>
      <point x="790" y="720" type="line"/>
      <point x="776" y="837"/>
      <point x="652" y="948"/>
      <point x="553" y="948" type="qcurve"/>
      <point x="504" y="948"/>
      <point x="418" y="911"/>
      <point x="353" y="846"/>
      <point x="316" y="760"/>
      <point x="316" y="711" type="qcurve"/>
      <point x="316" y="395" type="line"/>
      <point x="316" y="346"/>
      <point x="353" y="260"/>
      <point x="418" y="195"/>
      <point x="504" y="158"/>
      <point x="553" y="158" type="qcurve"/>
      <point x="602" y="158"/>
      <point x="688" y="195"/>
      <point x="753" y="260"/>
      <point x="790" y="346"/>
      <point x="790" y="395" type="qcurve"/>
    </contour>
  </outline>
</glyph>
<glyph name="hbar" format="2">
  <advance width="1103"/>
  <unicode hex="0127"/>
  <outline>
    <contour>
      <point x="0" y="1422" type="line"/>
      <point x="158" y="1422" type="line"/>
      <point x="158" y="1580" type="line"/>
      <point x="316" y="1580" type="line"/>
      <point x="316" y="1422" type="line"/>
      <point x="474" y="1422" type="line"/>
      <point x="474" y="1264" type="line"/>
      <point x="316" y="1264" type="line"/>
      <point x="316" y="1026" type="line"/>
      <point x="367" y="1064"/>
      <point x="486" y="1106"/>
      <point x="553" y="1106" type="qcurve"/>
      <point x="635" y="1106"/>
      <point x="779" y="1044"/>
      <point x="886" y="937"/>
      <point x="948" y="793"/>
      <point x="948" y="711" type="qcurve"/>
      <point x="948" y="0" type="line"/>
      <point x="790" y="0" type="line"/>
      <point x="790" y="711" type="line"/>
      <point x="790" y="760"/>
      <point x="753" y="846"/>
      <point x="688" y="911"/>
      <point x="602" y="948"/>
      <point x="553" y="948" type="qcurve"/>
      <point x="505" y="948"/>
      <point x="420" y="912"/>
      <point x="356" y="851"/>
      <point x="318" y="768"/>
      <point x="316" y="721" type="qcurve"/>
      <point x="316" y="0" type="line"/>
      <point x="158" y="0" type="line"/>
      <point x="158" y="1264" type="line"/>
      <point x="0" y="1264" type="line"/>
    </contour>
  </outline>
</glyph>
<glyph name="IJ" format="2">
  <advance width="1103"/>
  <unicode hex="0132"/>
  <outline>
    <contour>
      <point x="0" y="158" type="line"/>
      <point x="158" y="158" type="line"/>
      <point x="158" y="1264" type="line"/>
      <point x="0" y="1264" type="line"/>
      <point x="0" y="1422" type="line"/>
      <point x="474" y="1422" type="line"/>
      <point x="474" y="1264" type="line"/>
      <point x="316" y="1264" type="line"/>
      <point x="316" y="158" type="line"/>
      <point x="474" y="158" type="line"/>
      <point x="474" y="0" type="line"/>
      <point x="0" y="0" type="line"/>
    </contour>
    <contour>
      <point x="711" y="0" type="qcurve"/>
      <point x="652" y="0"/>
      <point x="563" y="32"/>
      <point x="504" y="106"/>
      <point x="474" y="227"/>
      <point x="474" y="316" type="qcurve"/>
      <point x="637" y="316" type="line"/>
      <point x="635" y="286"/>
      <point x="636" y="230"/>
      <point x="649" y="185"/>
      <point x="681" y="158"/>
      <point x="711" y="158" type="qcurve"/>
      <point x="741" y="158"/>
      <point x="773" y="185"/>
      <point x="788" y="230"/>
      <point x="790" y="286"/>
      <point x="790" y="316" type="qcurve"/>
      <point x="790" y="1422" type="line"/>
      <point x="948" y="1422" type="line"/>
      <point x="948" y="316" type="line"/>
      <point x="948" y="227"/>
      <point x="918" y="106"/>
      <point x="859" y="32"/>
      <point x="770" y="0"/>
    </contour>
  </outline>
</glyph>
<glyph name="kgreenlandic" format="2">
  <advance width="1103"/>
  <unicode hex="0138"/>
  <outline>
    <contour>
      <point x="316" y="600" type="line"/>
      <point x="755" y="1106" type="line"/>
      <point x="948" y="1106" type="line"/>
      <point x="474" y="553" type="line"/>
      <point x="948" y="0" type="line"/>
      <point x="753" y="0" type="line"/>
      <point x="316" y="509" type="line"/>
      <point x="316" y="0" type="line"/>
      <point x="158" y="0" type="line"/>
      <point x="158" y="1106" type="line"/>
      <point x="316" y="1106" type="line"/>
    </contour>
  </outline>
</glyph>
<glyph name="ldot" format="2">
  <advance width="1103"/>
  <unicode hex="0140"/>
  <outline>
    <contour>
      <point x="316" y="1264" type="line"/>
      <point x="158" y="1264" type="line"/>
      <point x="158" y="1422" type="line"/>
      <point x="474" y="1422" type="line"/>
      <point x="474" y="0" type="line"/>
      <point x="316" y="0" type="line"/>
    </contour>
    <contour>
      <point x="632" y="790" type="qcurve"/>
      <point x="632" y="823"/>
      <point x="657" y="880"/>
      <point x="700" y="923"/>
      <point x="757" y="948"/>
      <point x="790" y="948" type="qcurve"/>
      <point x="823" y="948"/>
      <point x="880" y="923"/>
      <point x="923" y="880"/>
      <point x="948" y="823"/>
      <point x="948" y="790" type="qcurve"/>
      <point x="948" y="757"/>
      <point x="923" y="700"/>
      <point x="880" y="657"/>
      <point x="823" y="632"/>
      <point x="790" y="632" type="qcurve"/>
      <point x="757" y="632"/>
      <point x="700" y="657"/>
      <point x="657" y="700"/>
      <point x="632" y="757"/>
    </contour>
  </outline>
</glyph>
<glyph name="lslash" format="2">
  <advance width="1103"/>
  <unicode hex="0142"/>
  <outline>
    <contour>
      <point x="269" y="466" type="line"/>
      <point x="474" y="602" type="line"/>
      <point x="474" y="1264" type="line"/>
      <point x="316" y="1264" type="line"/>
      <point x="316" y="1422" type="line"/>
      <point x="632" y="1422" type="line"/>
      <point x="632" y="708" type="line"/>
      <point x="743" y="782" type="line"/>
      <point x="837" y="640" type="line"/>
      <point x="632" y="503" type="line"/>
      <point x="632" y="0" type="line"/>
      <point x="474" y="0" type="line"/>
      <point x="474" y="398" type="line"/>
      <point x="363" y="324" type="line"/>
    </contour>
  </outline>
</glyph>
<glyph name="Eng" format="2">
  <advance width="1103"/>
  <unicode hex="014A"/>
  <outline>
    <contour>
      <point x="549" y="-474" type="qcurve"/>
      <point x="477" y="-474"/>
      <point x="346" y="-426"/>
      <point x="242" y="-341"/>
      <point x="171" y="-226"/>
      <point x="158" y="-158" type="qcurve"/>
      <point x="322" y="-158" type="line"/>
      <point x="335" y="-193"/>
      <point x="380" y="-251"/>
      <point x="439" y="-293"/>
      <point x="510" y="-316"/>
      <point x="549" y="-316" type="qcurve"/>
      <point x="598" y="-316"/>
      <point x="686" y="-279"/>
      <point x="750" y="-214"/>
      <point x="788" y="-128"/>
      <point x="788" y="-79" type="qcurve"/>
      <point x="788" y="0" type="line"/>
      <point x="318" y="1050" type="line"/>
      <point x="318" y="0" type="line"/>
      <point x="160" y="0" type="line"/>
      <point x="160" y="1422" type="line"/>
      <point x="325" y="1422" type="line"/>
      <point x="790" y="375" type="line"/>
      <point x="790" y="1422" type="line"/>
      <point x="948" y="1422" type="line"/>
      <point x="948" y="-79" type="line"/>
      <point x="948" y="-161"/>
      <point x="885" y="-305"/>
      <point x="777" y="-412"/>
      <point x="631" y="-474"/>
    </contour>
  </outline>
</glyph>
<glyph name="eng" format="2">
  <advance width="1103"/>
  <unicode hex="014B"/>
  <outline>
    <contour>
      <point x="553" y="-158" type="line"/>
      <point x="790" y="-158"/>
      <point x="790" y="79" type="qcurve"/>
      <point x="790" y="711" type="line"/>
      <point x="790" y="760"/>
      <point x="753" y="846"/>
      <point x="688" y="911"/>
      <point x="602" y="948"/>
      <point x="553" y="948" type="qcurve"/>
      <point x="505" y="948"/>
      <point x="418" y="912"/>
      <point x="354" y="851"/>
      <point x="316" y="768"/>
      <point x="316" y="721" type="qcurve"/>
      <point x="316" y="0" type="line"/>
      <point x="158" y="0" type="line"/>
      <point x="158" y="1106" type="line"/>
      <point x="316" y="1106" type="line"/>
      <point x="316" y="1026" type="line"/>
      <point x="367" y="1064"/>
      <point x="486" y="1106"/>
      <point x="553" y="1106" type="qcurve"/>
      <point x="635" y="1106"/>
      <point x="779" y="1044"/>
      <point x="886" y="937"/>
      <point x="948" y="793"/>
      <point x="948" y="711" type="qcurve"/>
      <point x="948" y="0" type="line"/>
      <point x="948" y="-61"/>
      <point x="892" y="-175"/>
      <point x="802" y="-263"/>
      <point x="689" y="-316"/>
      <point x="632" y="-316" type="qcurve"/>
      <point x="316" y="-316" type="line"/>
      <point x="316" y="-158" type="line"/>
    </contour>
  </outline>
</glyph>
<glyph name="OE" format="2">
  <advance width="1103"/>
  <unicode hex="0152"/>
  <outline>
    <contour>
      <point x="632" y="790" type="line" name="dh01"/>
      <point x="790" y="790" type="line" name="at01"/>
      <point x="790" y="632" type="line" name="sv01"/>
      <point x="632" y="632" type="line" name="sh01"/>
      <point x="632" y="158" type="line"/>
      <point x="948" y="158" type="line" name="sv02"/>
      <point x="948" y="0" type="line" name="ab01"/>
      <point x="474" y="0" type="line"/>
      <point x="474" y="15" type="line"/>
      <point x="438" y="0"/>
      <point x="395" y="0" type="qcurve" name="sv03"/>
      <point x="336" y="0"/>
      <point x="247" y="57"/>
      <point x="188" y="160"/>
      <point x="158" y="306"/>
      <point x="158" y="395" type="qcurve"/>
      <point x="158" y="1027" type="line" name="sh03"/>
      <point x="158" y="1116"/>
      <point x="188" y="1262"/>
      <point x="247" y="1365"/>
      <point x="336" y="1422"/>
      <point x="395" y="1422" type="qcurve" name="sv04"/>
      <point x="439" y="1422"/>
      <point x="474" y="1406" type="qcurve"/>
      <point x="474" y="1422" type="line"/>
      <point x="948" y="1422" type="line" name="at02"/>
      <point x="948" y="1264" type="line" name="sv05"/>
      <point x="632" y="1264" type="line"/>
    </contour>
    <contour>
      <point x="395" y="1264" type="qcurve" name="sv06"/>
      <point x="365" y="1264"/>
      <point x="333" y="1234"/>
      <point x="318" y="1175"/>
      <point x="316" y="1086"/>
      <point x="316" y="1027" type="qcurve" name="sh02"/>
      <point x="316" y="395" type="line"/>
      <point x="316" y="336"/>
      <point x="318" y="247"/>
      <point x="333" y="188"/>
      <point x="365" y="158"/>
      <point x="395" y="158" type="qcurve" name="sv07"/>
      <point x="421" y="158"/>
      <point x="452" y="188"/>
      <point x="469" y="247"/>
      <point x="474" y="336"/>
      <point x="474" y="395" type="qcurve"/>
      <point x="474" y="1027" type="line" name="dh02"/>
      <point x="474" y="1086"/>
      <point x="472" y="1175"/>
      <point x="457" y="1234"/>
      <point x="425" y="1264"/>
    </contour>
  </outline>
</glyph>
<glyph name="oe" format="2">
  <advance width="1103"/>
  <unicode hex="0153"/>
  <outline>
    <contour>
      <point x="158" y="711" type="line"/>
      <point x="158" y="800"/>
      <point x="188" y="946"/>
      <point x="247" y="1049"/>
      <point x="336" y="1106"/>
      <point x="395" y="1106" type="qcurve"/>
      <point x="443" y="1106"/>
      <point x="526" y="1063"/>
      <point x="553" y="1027" type="qcurve"/>
      <point x="583" y="1065"/>
      <point x="663" y="1106"/>
      <point x="711" y="1106" type="qcurve"/>
      <point x="770" y="1106"/>
      <point x="859" y="1049"/>
      <point x="918" y="946"/>
      <point x="948" y="800"/>
      <point x="948" y="711" type="qcurve"/>
      <point x="948" y="474" type="line"/>
      <point x="632" y="474" type="line"/>
      <point x="632" y="437"/>
      <point x="632" y="383"/>
      <point x="632" y="345"/>
      <point x="632" y="320"/>
      <point x="633" y="311" type="qcurve"/>
      <point x="633" y="291" type="line"/>
      <point x="635" y="225"/>
      <point x="666" y="158"/>
      <point x="711" y="158" type="qcurve"/>
      <point x="948" y="158" type="line"/>
      <point x="948" y="0" type="line"/>
      <point x="711" y="0" type="line"/>
      <point x="660" y="0"/>
      <point x="581" y="41"/>
      <point x="553" y="79" type="qcurve"/>
      <point x="523" y="41"/>
      <point x="443" y="0"/>
      <point x="395" y="0" type="qcurve"/>
      <point x="336" y="0"/>
      <point x="247" y="57"/>
      <point x="188" y="160"/>
      <point x="158" y="306"/>
      <point x="158" y="395" type="qcurve"/>
    </contour>
    <contour>
      <point x="316" y="395" type="line"/>
      <point x="316" y="336"/>
      <point x="318" y="247"/>
      <point x="333" y="188"/>
      <point x="365" y="158"/>
      <point x="395" y="158" type="qcurve"/>
      <point x="416" y="158"/>
      <point x="445" y="178"/>
      <point x="463" y="231"/>
      <point x="472" y="323"/>
      <point x="474" y="395" type="qcurve"/>
      <point x="474" y="711" type="line"/>
      <point x="472" y="783"/>
      <point x="463" y="875"/>
      <point x="445" y="928"/>
      <point x="416" y="948"/>
      <point x="395" y="948" type="qcurve"/>
      <point x="365" y="948"/>
      <point x="333" y="918"/>
      <point x="318" y="859"/>
      <point x="316" y="770"/>
      <point x="316" y="711" type="qcurve"/>
    </contour>
    <contour>
      <point x="632" y="632" type="line"/>
      <point x="788" y="632" type="line"/>
      <point x="788" y="711"/>
      <point x="786" y="829"/>
      <point x="771" y="908"/>
      <point x="740" y="948"/>
      <point x="711" y="948" type="qcurve"/>
      <point x="686" y="948"/>
      <point x="655" y="916"/>
      <point x="637" y="862"/>
      <point x="631" y="789"/>
      <point x="632" y="747" type="qcurve"/>
    </contour>
  </outline>
</glyph>
<glyph name="Scedilla" format="2">
  <advance width="1103"/>
  <unicode hex="015E"/>
  <outline>
    <contour>
      <point x="316" y="1027" type="qcurve"/>
      <point x="316" y="978"/>
      <point x="353" y="892"/>
      <point x="418" y="827"/>
      <point x="504" y="790"/>
      <point x="553" y="790" type="qcurve"/>
      <point x="635" y="790"/>
      <point x="779" y="728"/>
      <point x="886" y="621"/>
      <point x="948" y="477"/>
      <point x="948" y="395" type="qcurve"/>
      <point x="948" y="333"/>
      <point x="913" y="221"/>
      <point x="849" y="127"/>
      <point x="760" y="54"/>
      <point x="707" y="31" type="qcurve"/>
      <point x="671" y="14"/>
      <point x="632" y="7" type="qcurve"/>
      <point x="627" y="-42" type="line"/>
      <point x="625" y="-74"/>
      <point x="610" y="-133"/>
      <point x="599" y="-160" type="qcurve"/>
      <point x="570" y="-232"/>
      <point x="510" y="-276" type="qcurve"/>
      <point x="451" y="-322"/>
      <point x="394" y="-329" type="qcurve"/>
      <point x="365" y="-333"/>
      <point x="322" y="-337"/>
      <point x="307" y="-337" type="qcurve"/>
      <point x="237" y="-337"/>
      <point x="155" y="-316" type="qcurve"/>
      <point x="155" y="-158" type="line"/>
      <point x="244" y="-188"/>
      <point x="365" y="-191"/>
      <point x="439" y="-146"/>
      <point x="471" y="-59"/>
      <point x="471" y="0" type="qcurve"/>
      <point x="158" y="0" type="line"/>
      <point x="158" y="158" type="line"/>
      <point x="553" y="158" type="line"/>
      <point x="602" y="158"/>
      <point x="688" y="195"/>
      <point x="753" y="260"/>
      <point x="790" y="346"/>
      <point x="790" y="395" type="qcurve"/>
      <point x="790" y="444"/>
      <point x="753" y="530"/>
      <point x="688" y="595"/>
      <point x="602" y="632"/>
      <point x="553" y="632" type="qcurve"/>
      <point x="471" y="632"/>
      <point x="327" y="694"/>
      <point x="220" y="801"/>
      <point x="158" y="945"/>
      <point x="158" y="1027" type="qcurve"/>
      <point x="158" y="1109"/>
      <point x="220" y="1253"/>
      <point x="327" y="1360"/>
      <point x="471" y="1422"/>
      <point x="553" y="1422" type="qcurve"/>
      <point x="948" y="1422" type="line"/>
      <point x="948" y="1264" type="line"/>
      <point x="553" y="1264" type="line"/>
      <point x="504" y="1264"/>
      <point x="418" y="1227"/>
      <point x="353" y="1162"/>
      <point x="316" y="1076"/>
    </contour>
  </outline>
</glyph>
<glyph name="scedilla" format="2">
  <advance width="1103"/>
  <unicode hex="015F"/>
  <outline>
    <contour>
      <point x="632" y="0" type="line"/>
      <point x="632" y="-90"/>
      <point x="573" y="-231"/>
      <point x="513" y="-276" type="qcurve"/>
      <point x="452" y="-322"/>
      <point x="395" y="-329" type="qcurve"/>
      <point x="366" y="-333"/>
      <point x="323" y="-337"/>
      <point x="308" y="-337" type="qcurve"/>
      <point x="237" y="-337"/>
      <point x="155" y="-316" type="qcurve"/>
      <point x="155" y="-158" type="line"/>
      <point x="245" y="-188"/>
      <point x="366" y="-191"/>
      <point x="441" y="-146"/>
      <point x="473" y="-59"/>
      <point x="473" y="0" type="qcurve"/>
      <point x="158" y="0" type="line"/>
      <point x="158" y="158" type="line"/>
      <point x="553" y="158" type="line"/>
      <point x="612" y="158"/>
      <point x="701" y="185"/>
      <point x="760" y="230"/>
      <point x="790" y="288"/>
      <point x="790" y="318" type="qcurve"/>
      <point x="790" y="347"/>
      <point x="760" y="403"/>
      <point x="701" y="447"/>
      <point x="612" y="474"/>
      <point x="553" y="474" type="qcurve"/>
      <point x="513" y="474"/>
      <point x="424" y="488"/>
      <point x="336" y="519"/>
      <point x="256" y="568"/>
      <point x="195" y="638"/>
      <point x="158" y="731"/>
      <point x="158" y="790" type="qcurve"/>
      <point x="158" y="849"/>
      <point x="215" y="963"/>
      <point x="318" y="1052"/>
      <point x="464" y="1106"/>
      <point x="553" y="1106" type="qcurve"/>
      <point x="948" y="1106" type="line"/>
      <point x="948" y="948" type="line"/>
      <point x="553" y="948" type="line"/>
      <point x="494" y="948"/>
      <point x="405" y="921"/>
      <point x="346" y="876"/>
      <point x="316" y="820"/>
      <point x="316" y="790" type="qcurve"/>
      <point x="316" y="760"/>
      <point x="346" y="704"/>
      <point x="405" y="659"/>
      <point x="494" y="632"/>
      <point x="553" y="632" type="qcurve"/>
      <point x="592" y="632"/>
      <point x="682" y="618"/>
      <point x="770" y="588"/>
      <point x="850" y="539"/>
      <point x="911" y="469"/>
      <point x="948" y="377"/>
      <point x="948" y="318" type="qcurve"/>
      <point x="948" y="273"/>
      <point x="916" y="186"/>
      <point x="855" y="109"/>
      <point x="769" y="47"/>
      <point x="715" y="27" type="qcurve"/>
      <point x="676" y="12"/>
      <point x="632" y="6" type="qcurve"/>
    </contour>
  </outline>
</glyph>
<glyph name="tbar" format="2">
  <advance width="1103"/>
  <unicode hex="0167"/>
  <outline>
    <contour>
      <point x="158" y="790" type="line"/>
      <point x="316" y="790" type="line"/>
      <point x="316" y="948" type="line"/>
      <point x="158" y="948" type="line"/>
      <point x="158" y="1106" type="line"/>
      <point x="316" y="1106" type="line"/>
      <point x="316" y="1422" type="line"/>
      <point x="474" y="1422" type="line"/>
      <point x="474" y="1106" type="line"/>
      <point x="790" y="1106" type="line"/>
      <point x="790" y="948" type="line"/>
      <point x="474" y="948" type="line"/>
      <point x="474" y="790" type="line"/>
      <point x="790" y="790" type="line"/>
      <point x="790" y="632" type="line"/>
      <point x="474" y="632" type="line"/>
      <point x="474" y="395" type="line"/>
      <point x="474" y="346"/>
      <point x="511" y="260"/>
      <point x="576" y="195"/>
      <point x="662" y="158"/>
      <point x="711" y="158" type="qcurve"/>
      <point x="948" y="158" type="line"/>
      <point x="948" y="0" type="line"/>
      <point x="711" y="0" type="line"/>
      <point x="629" y="0"/>
      <point x="485" y="62"/>
      <point x="378" y="169"/>
      <point x="316" y="313"/>
      <point x="316" y="395" type="qcurve"/>
      <point x="316" y="632" type="line"/>
      <point x="158" y="632" type="line"/>
    </contour>
  </outline>
</glyph>
<glyph name="longs" format="2">
  <advance width="1103"/>
  <unicode hex="017F"/>
  <outline>
    <contour>
      <point x="158" y="948" type="line" name="sv01"/>
      <point x="316" y="948" type="line" name="sh01"/>
      <point x="316" y="1027" type="line"/>
      <point x="316" y="1109"/>
      <point x="378" y="1253"/>
      <point x="485" y="1360"/>
      <point x="629" y="1422"/>
      <point x="711" y="1422" type="qcurve"/>
      <point x="948" y="1422" type="line" name="at01"/>
      <point x="948" y="1264" type="line" name="ah01"/>
      <point x="711" y="1264" type="line"/>
      <point x="662" y="1264"/>
      <point x="576" y="1227"/>
      <point x="511" y="1162"/>
      <point x="474" y="1076"/>
      <point x="474" y="1027" type="qcurve"/>
      <point x="474" y="0" type="line" name="dh02"/>
      <point x="316" y="0" type="line" name="dh01"/>
      <point x="316" y="790" type="line"/>
      <point x="158" y="790" type="line" name="sh02"/>
    </contour>
  </outline>
</glyph>
<glyph name="uni0191" format="2">
  <advance width="1103"/>
  <unicode hex="0191"/>
  <outline>
    <contour>
      <point x="316" y="1422" type="line" name="dh01"/>
      <point x="1106" y="1422" type="line" name="ah02"/>
      <point x="1106" y="1264" type="line" name="sv01"/>
      <point x="474" y="1264" type="line" name="dh02"/>
      <point x="474" y="790" type="line"/>
      <point x="948" y="790" type="line" name="ah03"/>
      <point x="948" y="632" type="line" name="sv02"/>
      <point x="474" y="632" type="line" name="sh01"/>
      <point x="474" y="-79" type="line"/>
      <point x="474" y="-161"/>
      <point x="412" y="-305"/>
      <point x="305" y="-412"/>
      <point x="161" y="-474"/>
      <point x="79" y="-474" type="qcurve"/>
      <point x="0" y="-474" type="line" name="ab01"/>
      <point x="0" y="-316" type="line" name="ah01"/>
      <point x="79" y="-316" type="line"/>
      <point x="128" y="-316"/>
      <point x="214" y="-279"/>
      <point x="279" y="-214"/>
      <point x="316" y="-128"/>
      <point x="316" y="-79" type="qcurve"/>
    </contour>
  </outline>
</glyph>
<glyph name="florin" format="2">
  <advance width="1103"/>
  <unicode hex="0192"/>
  <outline>
    <contour>
      <point x="869" y="1264" type="line"/>
      <point x="820" y="1264"/>
      <point x="734" y="1227"/>
      <point x="669" y="1162"/>
      <point x="632" y="1076"/>
      <point x="632" y="1027" type="qcurve"/>
      <point x="632" y="948" type="line" name="sh01"/>
      <point x="948" y="948" type="line" name="sh02"/>
      <point x="948" y="790" type="line"/>
      <point x="632" y="790" type="line" name="dh02"/>
      <point x="632" y="-79" type="line"/>
      <point x="632" y="-161"/>
      <point x="570" y="-305"/>
      <point x="463" y="-412"/>
      <point x="319" y="-474"/>
      <point x="237" y="-474" type="qcurve"/>
      <point x="158" y="-474" type="line" name="ab01"/>
      <point x="158" y="-316" type="line" name="ah02"/>
      <point x="237" y="-316" type="line"/>
      <point x="286" y="-316"/>
      <point x="372" y="-279"/>
      <point x="437" y="-214"/>
      <point x="474" y="-128"/>
      <point x="474" y="-79" type="qcurve"/>
      <point x="474" y="790" type="line" name="dh01"/>
      <point x="316" y="790" type="line" name="at01"/>
      <point x="316" y="948" type="line" name="sv01"/>
      <point x="474" y="948" type="line" name="sh03"/>
      <point x="474" y="1027" type="line"/>
      <point x="474" y="1109"/>
      <point x="536" y="1253"/>
      <point x="643" y="1360"/>
      <point x="787" y="1422"/>
      <point x="869" y="1422" type="qcurve"/>
      <point x="948" y="1422" type="line" name="at02"/>
      <point x="948" y="1264" type="line" name="ah01"/>
    </contour>
  </outline>
</glyph>
<glyph name="oslashacute" format="2">
  <advance width="1103"/>
  <unicode hex="01FF"/>
  <outline>
    <contour>
      <point x="339" y="0" type="line"/>
      <point x="158" y="0" type="line"/>
      <point x="158" y="4"/>
      <point x="162" y="19"/>
      <point x="178" y="52"/>
      <point x="210" y="113"/>
      <point x="239" y="164" type="qcurve"/>
      <point x="205" y="213"/>
      <point x="166" y="329"/>
      <point x="166" y="395" type="qcurve"/>
      <point x="166" y="711" type="line"/>
      <point x="166" y="793"/>
      <point x="227" y="937"/>
      <point x="332" y="1044"/>
      <point x="473" y="1106"/>
      <point x="553" y="1106" type="qcurve"/>
      <point x="604" y="1106"/>
      <point x="697" y="1080"/>
      <point x="739" y="1057" type="qcurve"/>
      <point x="767" y="1106" type="line"/>
      <point x="948" y="1106" type="line"/>
      <point x="948" y="1101"/>
      <point x="944" y="1086"/>
      <point x="927" y="1053"/>
      <point x="895" y="993"/>
      <point x="867" y="942" type="qcurve"/>
      <point x="901" y="893"/>
      <point x="940" y="777"/>
      <point x="940" y="711" type="qcurve"/>
      <point x="940" y="395" type="line"/>
      <point x="940" y="313"/>
      <point x="880" y="169"/>
      <point x="775" y="62"/>
      <point x="634" y="0"/>
      <point x="553" y="0" type="qcurve"/>
      <point x="502" y="0"/>
      <point x="409" y="26"/>
      <point x="367" y="49" type="qcurve"/>
    </contour>
    <contour>
      <point x="785" y="711" type="line"/>
      <point x="785" y="728"/>
      <point x="780" y="762"/>
      <point x="776" y="778" type="qcurve"/>
      <point x="443" y="186" type="line"/>
      <point x="492" y="158"/>
      <point x="553" y="158" type="qcurve"/>
      <point x="601" y="158"/>
      <point x="685" y="195"/>
      <point x="748" y="260"/>
      <point x="785" y="346"/>
      <point x="785" y="395" type="qcurve"/>
    </contour>
    <contour>
      <point x="321" y="395" type="line"/>
      <point x="321" y="356"/>
      <point x="331" y="327" type="qcurve"/>
      <point x="662" y="920" type="line"/>
      <point x="637" y="933"/>
      <point x="582" y="948"/>
      <point x="553" y="948" type="qcurve"/>
      <point x="505" y="948"/>
      <point x="420" y="911"/>
      <point x="357" y="846"/>
      <point x="321" y="760"/>
      <point x="321" y="711" type="qcurve"/>
    </contour>
    <contour>
      <point x="316" y="1264" type="line"/>
      <point x="316" y="1422" type="line"/>
      <point x="790" y="1580" type="line"/>
      <point x="790" y="1422" type="line"/>
    </contour>
  </outline>
</glyph>
<glyph name="caron" format="2">
  <advance width="1103"/>
  <unicode hex="02C7"/>
  <outline>
    <contour>
      <point x="316" y="1501" type="line"/>
      <point x="395" y="1580" type="line"/>
      <point x="553" y="1422" type="line"/>
      <point x="711" y="1580" type="line"/>
      <point x="790" y="1501" type="line"/>
      <point x="553" y="1264" type="line"/>
    </contour>
  </outline>
</glyph>
<glyph name="breve" format="2">
  <advance width="1103"/>
  <unicode hex="02D8"/>
  <outline>
    <contour>
      <point x="553" y="1264" type="qcurve"/>
      <point x="494" y="1264"/>
      <point x="405" y="1318"/>
      <point x="346" y="1407"/>
      <point x="316" y="1521"/>
      <point x="316" y="1580" type="qcurve"/>
      <point x="474" y="1580" type="line"/>
      <point x="474" y="1574" type="line"/>
      <point x="474" y="1545"/>
      <point x="477" y="1490"/>
      <point x="492" y="1448"/>
      <point x="524" y="1422"/>
      <point x="553" y="1422" type="qcurve"/>
      <point x="582" y="1422"/>
      <point x="614" y="1448"/>
      <point x="629" y="1490"/>
      <point x="632" y="1545"/>
      <point x="632" y="1574" type="qcurve"/>
      <point x="632" y="1580" type="line"/>
      <point x="790" y="1580" type="line"/>
      <point x="790" y="1521"/>
      <point x="760" y="1407"/>
      <point x="701" y="1318"/>
      <point x="612" y="1264"/>
    </contour>
  </outline>
</glyph>
<glyph name="dotaccent" format="2">
  <advance width="1103"/>
  <unicode hex="02D9"/>
  <outline>
    <contour>
      <point x="316" y="1343" type="qcurve"/>
      <point x="316" y="1376"/>
      <point x="362" y="1422"/>
      <point x="395" y="1422" type="qcurve"/>
      <point x="428" y="1422"/>
      <point x="474" y="1376"/>
      <point x="474" y="1343" type="qcurve"/>
      <point x="474" y="1310"/>
      <point x="428" y="1264"/>
      <point x="395" y="1264" type="qcurve"/>
      <point x="362" y="1264"/>
      <point x="316" y="1310"/>
    </contour>
  </outline>
</glyph>
<glyph name="ring" format="2">
  <advance width="1103"/>
  <unicode hex="02DA"/>
  <outline>
    <contour>
      <point x="316" y="1501" type="qcurve"/>
      <point x="316" y="1550"/>
      <point x="353" y="1636"/>
      <point x="418" y="1701"/>
      <point x="504" y="1738"/>
      <point x="553" y="1738" type="qcurve"/>
      <point x="602" y="1738"/>
      <point x="688" y="1701"/>
      <point x="753" y="1636"/>
      <point x="790" y="1550"/>
      <point x="790" y="1501" type="qcurve"/>
      <point x="790" y="1452"/>
      <point x="753" y="1366"/>
      <point x="688" y="1301"/>
      <point x="602" y="1264"/>
      <point x="553" y="1264" type="qcurve"/>
      <point x="504" y="1264"/>
      <point x="418" y="1301"/>
      <point x="353" y="1366"/>
      <point x="316" y="1452"/>
    </contour>
    <contour>
      <point x="474" y="1501" type="qcurve"/>
      <point x="474" y="1468"/>
      <point x="520" y="1422"/>
      <point x="553" y="1422" type="qcurve"/>
      <point x="586" y="1422"/>
      <point x="632" y="1468"/>
      <point x="632" y="1501" type="qcurve"/>
      <point x="632" y="1534"/>
      <point x="586" y="1580"/>
      <point x="553" y="1580" type="qcurve"/>
      <point x="520" y="1580"/>
      <point x="474" y="1534"/>
    </contour>
  </outline>
</glyph>
<glyph name="ogonek" format="2">
  <advance width="1103"/>
  <unicode hex="02DB"/>
  <outline>
    <contour>
      <point x="474" y="0" type="line"/>
      <point x="474" y="-87"/>
      <point x="546" y="-189"/>
      <point x="632" y="-189" type="qcurve"/>
      <point x="696" y="-189"/>
      <point x="790" y="-158" type="qcurve"/>
      <point x="790" y="-316" type="line"/>
      <point x="707" y="-337"/>
      <point x="638" y="-337" type="qcurve"/>
      <point x="559" y="-337"/>
      <point x="439" y="-287"/>
      <point x="358" y="-197"/>
      <point x="317" y="-73"/>
      <point x="316" y="0" type="qcurve"/>
    </contour>
  </outline>
</glyph>
<glyph name="tilde" format="2">
  <advance width="1103"/>
  <unicode hex="02DC"/>
  <outline>
    <contour>
      <point x="948" y="1580" type="line"/>
      <point x="948" y="1491"/>
      <point x="896" y="1370"/>
      <point x="822" y="1296"/>
      <point x="741" y="1264"/>
      <point x="711" y="1264" type="qcurve"/>
      <point x="674" y="1264"/>
      <point x="614" y="1287"/>
      <point x="563" y="1323"/>
      <point x="517" y="1363"/>
      <point x="472" y="1399"/>
      <point x="424" y="1422"/>
      <point x="395" y="1422" type="qcurve"/>
      <point x="366" y="1422"/>
      <point x="334" y="1396"/>
      <point x="319" y="1354"/>
      <point x="316" y="1299"/>
      <point x="316" y="1270" type="qcurve"/>
      <point x="316" y="1264" type="line"/>
      <point x="158" y="1264" type="line"/>
      <point x="158" y="1353"/>
      <point x="210" y="1474"/>
      <point x="284" y="1548"/>
      <point x="365" y="1580"/>
      <point x="395" y="1580" type="qcurve"/>
      <point x="450" y="1580"/>
      <point x="531" y="1531"/>
      <point x="601" y="1471"/>
      <point x="669" y="1422"/>
      <point x="711" y="1422" type="qcurve"/>
      <point x="740" y="1422"/>
      <point x="772" y="1448"/>
      <point x="787" y="1490"/>
      <point x="790" y="1545"/>
      <point x="790" y="1574" type="qcurve"/>
      <point x="790" y="1580" type="line"/>
    </contour>
  </outline>
</glyph>
<glyph name="uni0374" format="2">
  <advance width="1103"/>
  <unicode hex="0374"/>
  <outline>
    <contour>
      <point x="474" y="1106" type="line"/>
      <point x="316" y="1106" type="line"/>
      <point x="474" y="1580" type="line"/>
      <point x="632" y="1580" type="line"/>
    </contour>
  </outline>
</glyph>
<glyph name="dieresistonos" format="2">
  <advance width="1103"/>
  <unicode hex="0385"/>
  <outline>
    <contour>
      <point x="474" y="1580" type="line"/>
      <point x="632" y="1580" type="line"/>
      <point x="632" y="1264" type="line"/>
      <point x="474" y="1264" type="line"/>
    </contour>
    <contour>
      <point x="790" y="1343" type="qcurve"/>
      <point x="790" y="1376"/>
      <point x="836" y="1422"/>
      <point x="869" y="1422" type="qcurve"/>
      <point x="902" y="1422"/>
      <point x="948" y="1376"/>
      <point x="948" y="1343" type="qcurve"/>
      <point x="948" y="1310"/>
      <point x="902" y="1264"/>
      <point x="869" y="1264" type="qcurve"/>
      <point x="836" y="1264"/>
      <point x="790" y="1310"/>
    </contour>
    <contour>
      <point x="158" y="1343" type="qcurve"/>
      <point x="158" y="1376"/>
      <point x="204" y="1422"/>
      <point x="237" y="1422" type="qcurve"/>
      <point x="270" y="1422"/>
      <point x="316" y="1376"/>
      <point x="316" y="1343" type="qcurve"/>
      <point x="316" y="1310"/>
      <point x="270" y="1264"/>
      <point x="237" y="1264" type="qcurve"/>
      <point x="204" y="1264"/>
      <point x="158" y="1310"/>
    </contour>
  </outline>
</glyph>
<glyph name="Lambda" format="2">
  <advance width="1103"/>
  <unicode hex="039B"/>
  <outline>
    <contour>
      <point x="158" y="0" type="line"/>
      <point x="474" y="1422" type="line"/>
      <point x="632" y="1422" type="line"/>
      <point x="948" y="0" type="line"/>
      <point x="790" y="0" type="line"/>
      <point x="553" y="1040" type="line"/>
      <point x="316" y="0" type="line"/>
    </contour>
  </outline>
</glyph>
<glyph name="Xi" format="2">
  <advance width="1103"/>
  <unicode hex="039E"/>
  <outline>
    <contour>
      <point x="158" y="1422" type="line"/>
      <point x="948" y="1422" type="line"/>
      <point x="948" y="1264" type="line" name="ah02"/>
      <point x="158" y="1264" type="line" name="ah01"/>
    </contour>
    <contour>
      <point x="158" y="158" type="line" name="sh01"/>
      <point x="948" y="158" type="line" name="sh02"/>
      <point x="948" y="0" type="line"/>
      <point x="158" y="0" type="line"/>
    </contour>
    <contour>
      <point x="316" y="790" type="line" name="sh03"/>
      <point x="790" y="790" type="line" name="sh04"/>
      <point x="790" y="632" type="line"/>
      <point x="316" y="632" type="line" name="sv01"/>
    </contour>
  </outline>
</glyph>
<glyph name="Sigma" format="2">
  <advance width="1103"/>
  <unicode hex="03A3"/>
  <outline>
    <contour>
      <point x="948" y="1264" type="line" name="sv01"/>
      <point x="316" y="1264" type="line" name="dh02"/>
      <point x="632" y="711" type="line"/>
      <point x="316" y="158" type="line" name="sh01"/>
      <point x="948" y="158" type="line" name="sh02"/>
      <point x="948" y="0" type="line" name="ab01"/>
      <point x="158" y="0" type="line"/>
      <point x="158" y="158" type="line" name="sh03"/>
      <point x="474" y="711" type="line" name="sh04"/>
      <point x="158" y="1264" type="line" name="dh01"/>
      <point x="158" y="1422" type="line"/>
      <point x="948" y="1422" type="line" name="ah01"/>
    </contour>
  </outline>
</glyph>
